<?xml version="1.0" encoding="utf-8"?>
<!-- Generator: Adobe Illustrator 15.0.2, SVG Export Plug-In . SVG Version: 6.00 Build 0)  -->
<!DOCTYPE svg PUBLIC "-//W3C//DTD SVG 1.1//EN" "http://www.w3.org/Graphics/SVG/1.1/DTD/svg11.dtd">
<svg version="1.1" id="Layer_1" xmlns="http://www.w3.org/2000/svg" xmlns:xlink="http://www.w3.org/1999/xlink" x="0px" y="0px"
	 width="972px" height="684px" viewBox="0 0 972 684" enable-background="new 0 0 972 684" xml:space="preserve">
<g>
	<defs>
		<rect id="SVGID_1_" width="972" height="684"/>
	</defs>
	<clipPath id="SVGID_2_">
		<use xlink:href="#SVGID_1_"  overflow="visible"/>
	</clipPath>
	
		<path clip-path="url(#SVGID_2_)" fill="none" stroke="#FFFFFF" stroke-width="2" stroke-linecap="round" stroke-linejoin="round" stroke-miterlimit="10" d="
		M293.326,92.609c0.425-5.141,11.313-6.155,11.135,1.822c-0.178,7.977-3.816,7.076-4.117,10.09
		c-0.354,3.546-5.223,5.098-7.018,1.453"/>
	
		<path clip-path="url(#SVGID_2_)" fill="none" stroke="#FFFFFF" stroke-width="2" stroke-linecap="round" stroke-linejoin="round" stroke-miterlimit="10" d="
		M288.893,92.652c-4.963-1.95,0.102-7.66-5.495-11.345c-7.268-4.786,1.241-13.295-10.636-20.439c-5.827-3.505-10.994,0-10.994,0
		c-4.869,3.246-10.28,16.232-9.198,27.595c1.082,11.362-11.065,18.726-4.869,22.725c7.33,4.732,3.054,8.014,4.676,10.178
		c2.127,2.836,0.935,6.987,2.48,10.459c1.449,3.256,1.95,4.609,15.028,1.006c13.919-3.834,25.034-5.083,23.807-12.445"/>
	
		<path clip-path="url(#SVGID_2_)" fill="none" stroke="#FFFFFF" stroke-width="2" stroke-linecap="round" stroke-linejoin="round" stroke-miterlimit="10" d="
		M261.769,60.868c2.484-6.149,15.424-16.077,22.87-13.063c7.445,3.014,7.125-1.316,12.94,2.836
		c6.204,4.431,15.421,1.948,17.549,7.091c3.545,9.038,11.167,11.875,11.344,22.513c0,7.453,2.812,13.884,1.773,16.306
		c-1.596,3.719,0.811,8.059-3.546,13.472c-5.283,6.565-6.597,5.25-13.826,10.946c-2.629,1.971-8.509-0.135-8.863-1.021
		c0,0-3.406-4.892-3.406-6.644"/>
	
		<path clip-path="url(#SVGID_2_)" fill="none" stroke="#FFFFFF" stroke-width="2" stroke-linejoin="round" stroke-miterlimit="10" d="
		M269.585,132.914c2.646,3.338,5.836,16.456,0.695,25.142c8.334-7.972,29.251-9.39,39.532-25.142
		c1.596-2.506,6.545,4.779,7.255,6.02"/>
	
		<path clip-path="url(#SVGID_2_)" fill="none" stroke="#FFFFFF" stroke-width="2" stroke-linecap="round" stroke-linejoin="round" stroke-miterlimit="10" d="
		M302.009,119.948c0.719,6.018,6.45,13.514,7.57,13.316"/>
	
		<path clip-path="url(#SVGID_2_)" fill="none" stroke="#FFFFFF" stroke-width="2" stroke-linecap="round" stroke-linejoin="round" stroke-miterlimit="10" d="
		M279.347,152.612c-2.858,2.432-3.213,2.604-3.567,5.443c-0.355,2.839-4.765,18.97,1.783,13.298
		c6.548-5.673,11.481-9.403,12.013-10.999"/>
	
		<path clip-path="url(#SVGID_2_)" fill="none" stroke="#FFFFFF" stroke-width="2" stroke-linecap="round" stroke-linejoin="round" stroke-miterlimit="10" d="
		M303.105,140.363c-6.231,7.059-20.257,25.901-27.565,58.788c-7.308,32.886-7.83,45.935,0,68.904
		c7.83,22.969-2.612,42.544,5.74,68.123c8.352,25.58,5.221,26.623,34.453,27.146c29.233,0.521,77.256,2.088,66.815-19.314
		c-10.44-21.403-17.227-48.547-17.749-54.811"/>
	
		<path clip-path="url(#SVGID_2_)" fill="none" stroke="#FFFFFF" stroke-width="2" stroke-linecap="round" stroke-linejoin="round" stroke-miterlimit="10" d="
		M310.603,175.806c-16.818-14.643-4.809-39.992,12.436-36.942c20.073,3.55,51.157,35.496,57.421,38.107
		c6.265,2.61,45.938,25.056,42.284,41.761c-3.655,16.704-31.843,52.199-35.497,56.375c-3.655,4.177-9.397,19.315-16.183,12.529
		c-6.786-6.787-13.195-13.286-17.893-17.462c-4.698-4.176-6.48-4.517,8.137-21.744c14.617-17.227,23.329-31.267,25.417-31.789"/>
	
		<path clip-path="url(#SVGID_2_)" fill="none" stroke="#FFFFFF" stroke-width="2" stroke-linecap="round" stroke-linejoin="round" stroke-miterlimit="10" d="
		M320.429,185.32c11.259,12.582,43.896,31.843,61.661,36.446"/>
	
		<path clip-path="url(#SVGID_2_)" fill="none" stroke="#FFFFFF" stroke-width="2" stroke-linejoin="round" stroke-miterlimit="10" d="
		M302.548,157.652c-1.81,6.61-1.278,11.269-0.387,13.051c-6.786,3.655-15.028,13.05-12.734,13.573
		c2.294,0.522,7.773-0.522,3.728,6.264c-4.044,6.786-16.561,36.532-16.572,51.679c-0.015,19.839,6.264,31.322,4.698,45.938
		c-1.566,14.617-3.442,30.823-2.926,34.491"/>
	
		<path clip-path="url(#SVGID_2_)" fill="none" stroke="#FFFFFF" stroke-width="2" stroke-linecap="round" stroke-linejoin="round" stroke-miterlimit="10" d="
		M272.494,257.969c-15.367-23.835-4.511-73.056-2.214-86.269c-1.501-2.088-3.884-10.456,0.443-14.048"/>
	
		<path clip-path="url(#SVGID_2_)" fill="none" stroke="#FFFFFF" stroke-width="2" stroke-linecap="round" stroke-linejoin="round" stroke-miterlimit="10" d="
		M274.403,171.935c-0.389,9.245-0.982,16.916,0.176,31.608"/>
	
		<path clip-path="url(#SVGID_2_)" fill="none" stroke="#FFFFFF" stroke-width="2" stroke-linecap="round" stroke-linejoin="round" stroke-miterlimit="10" d="
		M268.504,161.244c-13.563,32.228-10.217,58.795-7.417,73.078c2.873,14.65,19.004,54.61,17.258,64.36"/>
	
		<path clip-path="url(#SVGID_2_)" fill="none" stroke="#FFFFFF" stroke-width="2" stroke-linecap="round" stroke-linejoin="round" stroke-miterlimit="10" d="
		M278.238,300.69c-2.437,11.185-5.227,25.653-10.949,33.031"/>
	
		<path clip-path="url(#SVGID_2_)" fill="none" stroke="#FFFFFF" stroke-width="2" stroke-linecap="round" stroke-linejoin="round" stroke-miterlimit="10" d="
		M350.656,207.853c0.661,16.613,1.94,31.616,5.933,46.262"/>
	
		<path clip-path="url(#SVGID_2_)" fill="none" stroke="#FFFFFF" stroke-width="2" stroke-linecap="round" stroke-linejoin="round" stroke-miterlimit="10" d="
		M260.744,232.515c-4.014,0.707-13.961-1.532-14.956-0.537c-0.994,0.995,0.498,7.461,0.995,14.672
		c0.498,7.212-4.725,20.143,1.244,19.646c5.968-0.498,21.065,0.442,23.712,2.956"/>
	
		<path clip-path="url(#SVGID_2_)" fill="none" stroke="#FFFFFF" stroke-width="2" stroke-linecap="round" stroke-linejoin="round" stroke-miterlimit="10" d="
		M245.142,233.207c-3.079-0.271-6.067-1.726-5.818,2.501c0.248,4.228,0.745,17.159,0.497,19.646
		c-0.249,2.487,0.695,2.496,5.321,2.616"/>
	
		<path clip-path="url(#SVGID_2_)" fill="none" stroke="#FFFFFF" stroke-width="2" stroke-linecap="round" stroke-linejoin="round" stroke-miterlimit="10" d="
		M239.328,235.061c-8.9-3.614-15.647-16.144-24.803-18.071c-9.156-1.928-11.084-3.374-11.565-4.337
		c-0.482-0.964-4.337-1.181-3.855,2.421c0.481,3.602,3.373,5.289,6.746,5.53c2.675,0.191,4.138,2.352,4.629,3.239
		c0.128,0.231,0.545,1.19,0.726,1.574"/>
	
		<path clip-path="url(#SVGID_2_)" fill="none" stroke="#FFFFFF" stroke-width="2" stroke-linecap="round" stroke-linejoin="round" stroke-miterlimit="10" d="
		M239.885,253.614c-3.675-1.206-7.048-1.446-10.903-0.482c-3.855,0.963-9.3,0.543-13.134-1.747c-3.411-2.04-7.757-2.977-9.685-3.7"
		/>
	
		<path clip-path="url(#SVGID_2_)" fill="none" stroke="#FFFFFF" stroke-width="2" stroke-linecap="round" stroke-linejoin="round" stroke-miterlimit="10" d="
		M208.893,225.184c3.484-0.151,4.473,5.237,0.219,5.164c-3.963-0.069-2.858,0.173-6.495-0.011c-3.787-0.193-3.899-5.39,0.925-5.303
		C208.341,225.12,208.893,225.184,208.893,225.184z"/>
	
		<path clip-path="url(#SVGID_2_)" fill="none" stroke="#FFFFFF" stroke-width="2" stroke-linecap="round" stroke-linejoin="round" stroke-miterlimit="10" d="
		M203.077,230.359c-4.951-0.328-5.233,6.155-0.685,6.177c4.256,0.019,5.488,0.129,8.469,0.129c4.419,0,5.113-6.556-1.395-6.331"/>
	
		<path clip-path="url(#SVGID_2_)" fill="none" stroke="#FFFFFF" stroke-width="2" stroke-linecap="round" stroke-linejoin="round" stroke-miterlimit="10" d="
		M203.345,236.541c-4.795-0.322-4.99,5.771-0.583,5.791c4.122,0.019,5.316,0.054,8.203,0.125c4.1,0.101,4.757-5.718-0.104-5.792"/>
	
		<path clip-path="url(#SVGID_2_)" fill="none" stroke="#FFFFFF" stroke-width="2" stroke-linecap="round" stroke-linejoin="round" stroke-miterlimit="10" d="
		M204.315,242.341c-4.354-0.295-4.488,5.291-0.488,5.309c3.743,0.015,4.828,0.048,7.448,0.113c3.724,0.092,4.519-5.25,0.105-5.317"
		/>
	
		<path clip-path="url(#SVGID_2_)" fill="none" stroke="#FFFFFF" stroke-width="2" stroke-linecap="round" stroke-linejoin="round" stroke-miterlimit="10" d="
		M351.233,268.446c-2.12,2.384-5.355,4.872-3.364,6.864c1.991,1.991,14.793,16.151,17.175,13.351
		c2.538-2.983,3.391-3.654,3.391-3.654"/>
	
		<path clip-path="url(#SVGID_2_)" fill="none" stroke="#FFFFFF" stroke-width="2" stroke-linecap="round" stroke-linejoin="round" stroke-miterlimit="10" d="
		M279.066,327.433c-27.47,14.378-107.944,58.733-102.241,78.377c5.703,19.644,17.284,30.932,26.614,44.989
		c18.098,27.268,30.482,74.116,33.583,74.771c3.347,0.706,8.015-4.995,27.99-11.147c14.125-4.351,16.381-4.352,21.087-6.454
		c3.616-1.616,7.989-1.725,3.746-8.634c-10.402-16.94-17.972-26.992-24.942-38.397c-6.97-11.405-18.377-40.553-33.584-47.524"/>
	
		<path clip-path="url(#SVGID_2_)" fill="none" stroke="#FFFFFF" stroke-width="2" stroke-linecap="round" stroke-linejoin="round" stroke-miterlimit="10" d="
		M366.188,361.521c-17.022,25.277-55.027,32.247-82.274,42.386c-26.345,9.803-39.401,10.131-47.939,12.396"/>
	
		<path clip-path="url(#SVGID_2_)" fill="none" stroke="#FFFFFF" stroke-width="2" stroke-linecap="round" stroke-linejoin="round" stroke-miterlimit="10" d="
		M366.188,361.521c11.379,30.835,28.93,90.546,31.465,100.051c2.535,9.505,30.415,25.345,57.028,57.027
		c26.613,31.683,26.613,26.613-2.535,45.623c-29.147,19.01-23.445,20.277-29.781,9.505c-6.337-10.772-47.088-55.763-56.177-70.97
		s-11.051-6.946-21.763-34.217c-6.969-17.744-19.009-20.912-41.168-71.138"/>
	
		<path clip-path="url(#SVGID_2_)" fill="none" stroke="#FFFFFF" stroke-width="2" stroke-linecap="round" stroke-linejoin="round" stroke-miterlimit="10" d="
		M259.612,518.202c-3.512-1.033-7.565,0.001-10.087,13.114s-12.106,15.636-16.645,18.156c-4.539,2.522-24.021,6.406-18.798,18.343
		c16.644,2.018,33.929-2.707,49.061-15.82c15.131-13.113,17.149-8.07,17.149-5.548s11.096-3.026,13.618-5.044
		c2.521-2.018,8.07-4.035,6.556-8.574c-1.513-4.539-1.499-13.33-8.709-19.166c-2.387-0.504-3.288,4.684-11.527,5.86
		C272.403,520.641,266.105,520.7,259.612,518.202z"/>
	
		<path clip-path="url(#SVGID_2_)" fill="none" stroke="#FFFFFF" stroke-width="2" stroke-linecap="round" stroke-linejoin="round" stroke-miterlimit="10" d="
		M454.797,568.378c-3.553,0.879-6.532,3.817-2.093,16.412c4.439,12.594,1.868,22.97-1.605,26.829
		c-3.531,3.924-13.536,4.512-10.594,16.797c28.342,0.162,28.863-12.349,35.312-31.305c6.448-18.956,9.813-16.959,11.085-14.781
		s8.054-8.212,9.213-11.226c1.158-3.014,4.932-7.556,1.335-10.711c-3.598-3.155-8.021-10.753-17.19-12.153
		c-2.315,0.769-0.475,5.702-6.996,10.876C467.071,564.03,461.663,567.258,454.797,568.378z"/>
	
		<path clip-path="url(#SVGID_2_)" fill="none" stroke="#FFFFFF" stroke-width="2" stroke-linecap="round" stroke-linejoin="round" stroke-miterlimit="10" d="
		M286.646,508.193c1.147,1.602,2.907,4.678,3.2,6.229"/>
	
		<path clip-path="url(#SVGID_2_)" fill="none" stroke="#FFFFFF" stroke-width="2" stroke-linecap="round" stroke-linejoin="round" stroke-miterlimit="10" d="
		M259.4,516.307c0.25,0.804,0.355,1.576,0.212,1.896"/>
	
		<path clip-path="url(#SVGID_2_)" fill="none" stroke="#FFFFFF" stroke-width="2" stroke-linecap="round" stroke-linejoin="round" stroke-miterlimit="10" d="
		M474.335,548.24c0,0,2.26,1.331,4.462,2.247"/>
	
		<path clip-path="url(#SVGID_2_)" fill="none" stroke="#FFFFFF" stroke-width="2" stroke-linecap="round" stroke-linejoin="round" stroke-miterlimit="10" d="
		M450.688,565.179c1.388,0.817,3.046,3.547,3.046,3.547"/>
	
		<path clip-path="url(#SVGID_2_)" fill="none" stroke="#FFFFFF" stroke-width="2" stroke-linecap="round" stroke-linejoin="round" stroke-miterlimit="10" d="
		M327.193,304.634c-2.24,3.209-6.881,0.444-4.136-3.71c2.541-3.846,4.342-5.843,4.342-5.843l2.964-2.385
		c-0.436-0.052-3.362,2.483-4.992,4.719c-2.056,2.822-6.017,4.395-9.434,2.846c-3.416-1.548-1.119-4.804-0.011-4.698
		c1.107,0.106,4.506-1.429,11.201-8.389c6.695-6.96,14.006-4.179,22.039-9.993"/>
	
		<path clip-path="url(#SVGID_2_)" fill="none" stroke="#FFFFFF" stroke-width="2" stroke-linecap="round" stroke-linejoin="round" stroke-miterlimit="10" d="
		M327.465,304.243c-2.996,4.155,2.525,7.948,5.031,3.978"/>
	
		<path clip-path="url(#SVGID_2_)" fill="none" stroke="#FFFFFF" stroke-width="2" stroke-linecap="round" stroke-linejoin="round" stroke-miterlimit="10" d="
		M333.021,307.391c-2.82,3.906,2.029,7.322,4.534,3.991c0.074-0.098,0.472-0.604,0.542-0.715"/>
	
		<path clip-path="url(#SVGID_2_)" fill="none" stroke="#FFFFFF" stroke-width="2" stroke-linecap="round" stroke-linejoin="round" stroke-miterlimit="10" d="
		M338.629,309.713c-2.639,3.649,1.893,6.036,4.378,3.331c0,0,4.956-3.872,8.059-6.698c3.58-3.26,6.774-7.388,8.712-10.539
		c1.497-2.432,2.144-4.908,3.865-6.852"/>
	<line clip-path="url(#SVGID_2_)" fill="#FFFFFF" x1="68.958" y1="629.416" x2="898.06" y2="629.416"/>
	
		<line clip-path="url(#SVGID_2_)" fill="none" stroke="#FFFFFF" stroke-width="2" stroke-linecap="round" stroke-linejoin="round" stroke-miterlimit="10" x1="68.958" y1="629.416" x2="898.06" y2="629.416"/>
	
		<line clip-path="url(#SVGID_2_)" fill="none" stroke="#FFFFFF" stroke-width="2" stroke-miterlimit="10" x1="347.246" y1="113.279" x2="443.914" y2="113.279"/>
	
		<line clip-path="url(#SVGID_2_)" fill="none" stroke="#FFFFFF" stroke-width="2" stroke-linecap="round" stroke-linejoin="round" stroke-miterlimit="10" x1="368.435" y1="143.13" x2="496.452" y2="143.13"/>
	
		<line clip-path="url(#SVGID_2_)" fill="none" stroke="#FFFFFF" stroke-width="2" stroke-linecap="round" stroke-linejoin="round" stroke-miterlimit="10" x1="416.452" y1="168.205" x2="525.109" y2="168.205"/>
	
		<line clip-path="url(#SVGID_2_)" fill="none" stroke="#FFFFFF" stroke-width="2" stroke-linecap="round" stroke-linejoin="round" stroke-miterlimit="10" x1="436.75" y1="185.32" x2="618.243" y2="185.32"/>
	
		<line clip-path="url(#SVGID_2_)" fill="none" stroke="#FFFFFF" stroke-width="2" stroke-linecap="round" stroke-linejoin="round" stroke-miterlimit="10" x1="434.446" y1="200.841" x2="569.76" y2="200.841"/>
	
		<line clip-path="url(#SVGID_2_)" fill="none" stroke="#FFFFFF" stroke-width="2" stroke-linecap="round" stroke-linejoin="round" stroke-miterlimit="10" x1="422.981" y1="259.639" x2="572.982" y2="259.639"/>
	
		<line clip-path="url(#SVGID_2_)" fill="none" stroke="#FFFFFF" stroke-width="2" stroke-linecap="round" stroke-linejoin="round" stroke-miterlimit="10" x1="404.645" y1="281.386" x2="564.123" y2="281.386"/>
	
		<line clip-path="url(#SVGID_2_)" fill="none" stroke="#FFFFFF" stroke-width="2" stroke-linecap="round" stroke-linejoin="round" stroke-miterlimit="10" x1="388.796" y1="301.581" x2="549.625" y2="301.581"/>
	
		<line clip-path="url(#SVGID_2_)" fill="none" stroke="#FFFFFF" stroke-width="2" stroke-linecap="round" stroke-linejoin="round" stroke-miterlimit="10" x1="402.231" y1="370.794" x2="521.437" y2="370.794"/>
	
		<line clip-path="url(#SVGID_2_)" fill="none" stroke="#FFFFFF" stroke-width="2" stroke-linecap="round" stroke-linejoin="round" stroke-miterlimit="10" x1="399.009" y1="388.912" x2="582.65" y2="388.912"/>
	
		<line clip-path="url(#SVGID_2_)" fill="none" stroke="#FFFFFF" stroke-width="2" stroke-linecap="round" stroke-linejoin="round" stroke-miterlimit="10" x1="402.231" y1="412.677" x2="553.654" y2="412.677"/>
	
		<line clip-path="url(#SVGID_2_)" fill="none" stroke="#FFFFFF" stroke-width="2" stroke-linecap="round" stroke-miterlimit="10" x1="415.118" y1="436.034" x2="545.6" y2="436.034"/>
	
		<path clip-path="url(#SVGID_2_)" fill="none" stroke="#FFFFFF" stroke-width="2" stroke-linecap="round" stroke-linejoin="round" stroke-miterlimit="10" d="
		M211.206,225.417c2.097,5.706,5.461,12.967,14.282,14.077"/>
</g>
</svg>
