<?xml version="1.0" encoding="utf-8"?>
<!-- Generator: Adobe Illustrator 15.0.2, SVG Export Plug-In . SVG Version: 6.00 Build 0)  -->
<!DOCTYPE svg PUBLIC "-//W3C//DTD SVG 1.1//EN" "http://www.w3.org/Graphics/SVG/1.1/DTD/svg11.dtd">
<svg version="1.1" xmlns="http://www.w3.org/2000/svg" xmlns:xlink="http://www.w3.org/1999/xlink" x="0px" y="0px" width="2800px"
	 height="2800px" viewBox="0 0 2800 2800" enable-background="new 0 0 2800 2800" xml:space="preserve">
<g id="bg">
	<rect y="0" fill="#0094B3" width="2800" height="2800"/>
</g>
<g id="image">
	<g>
		<path fill="#3EAEC6" d="M1346.375,495.888l-16.802-29.484l-18.533,5.093l0.623,34.058c-17.561,5.542-34.629,11.949-51.173,19.146
			l-21.627-26.065l-17.366,8.229l6.503,33.34c-16.287,8.48-32.003,17.767-47.097,27.797l-25.77-21.874l-15.678,11.124l12.186,31.668
			c-14.518,11.168-28.363,23.06-41.516,35.603l-29.211-17.081l-13.504,13.673l17.541,29.144
			c-12.311,13.48-23.879,27.577-34.675,42.229l-31.804-11.785l-10.919,15.82l22.368,25.696
			c-9.765,15.375-18.721,31.252-26.828,47.566l-33.387-6.082l-8.012,17.474l26.479,21.414
			c-6.956,16.809-13.043,33.997-18.218,51.512l-33.867-0.194l-4.856,18.593l29.722,16.451c-3.931,17.74-6.938,35.747-8.984,53.946
			l-33.324,5.687l-1.551,19.154l32.094,11.021c-0.767,18.104-0.588,36.357,0.577,54.69l-31.854,11.395l1.797,19.135l33.604,5.295
			c2.396,17.88,5.746,35.794,10.075,53.688l-29.486,16.807l5.088,18.533l34.066-0.615c5.546,17.552,11.953,34.618,19.148,51.16
			l-26.072,21.641l8.232,17.36l33.34-6.509c8.479,16.291,17.77,32.006,27.79,47.107l-21.865,25.768l11.122,15.671l31.666-12.181
			c11.166,14.513,23.066,28.362,35.606,41.516l-17.086,29.213l13.673,13.504l29.147-17.543
			c13.485,12.307,27.579,23.883,42.229,34.667l-11.781,31.81l15.812,10.926l25.699-22.379c15.377,9.767,31.259,18.722,47.568,26.83
			l-6.082,33.391l17.469,8.007l21.412-26.481c16.813,6.961,34.011,13.051,51.516,18.223l-0.188,33.87l18.59,4.854l16.447-29.721
			c17.737,3.934,35.745,6.933,53.95,8.984l5.683,33.322l19.156,1.554l11.026-32.101c18.104,0.777,36.353,0.593,54.686-0.572
			l11.398,31.855l19.137-1.793l5.293-33.609c17.877-2.394,35.796-5.746,53.689-10.077l16.809,29.493l18.528-5.092l-0.618-34.063
			c17.561-5.55,34.624-11.95,51.164-19.151l21.635,26.073l17.365-8.234l-6.51-33.335c16.295-8.484,32.005-17.774,47.107-27.793
			l25.767,21.863l15.68-11.122l-12.185-31.671c14.51-11.166,28.355-23.058,41.508-35.599l29.215,17.08l13.504-13.676l-17.543-29.139
			c12.309-13.485,23.884-27.58,34.668-42.23l31.809,11.781l10.926-15.817l-22.376-25.697c9.771-15.375,18.726-31.26,26.831-47.568
			l33.391,6.081l8.01-17.468l-26.48-21.413c6.953-16.808,13.047-34.003,18.22-51.515l33.866,0.193l4.859-18.594l-29.721-16.452
			c3.932-17.74,6.933-35.743,8.98-53.946l33.328-5.682l1.545-19.154l-32.09-11.028c0.768-18.103,0.586-36.357-0.579-54.686
			l31.851-11.4l-1.793-19.131l-33.602-5.294c-2.398-17.886-5.746-35.799-10.079-53.692l29.487-16.809l-5.088-18.528l-34.071,0.613
			c-5.54-17.553-11.938-34.616-19.146-51.162l26.072-21.633L1962.481,754l-33.335,6.502c-8.485-16.295-17.767-32.007-27.794-47.105
			l21.869-25.771l-11.124-15.669l-31.667,12.183c-11.168-14.519-23.062-28.366-35.607-41.518l17.085-29.209l-13.681-13.502
			l-29.139,17.539c-13.484-12.306-27.58-23.883-42.223-34.669l11.771-31.807l-15.814-10.918l-25.693,22.364
			c-15.373-9.768-31.256-18.719-47.564-26.827l6.076-33.387l-17.469-8.015l-21.414,26.481
			c-16.809-6.951-34.006-13.039-51.514-18.218l0.189-33.862l-18.593-4.859l-16.449,29.716c-17.738-3.933-35.748-6.93-53.943-8.982
			l-5.685-33.318l-19.154-1.555l-11.029,32.092c-18.096-0.762-36.35-0.584-54.686,0.584l-11.396-31.858l-19.132,1.794l-5.301,33.603
			C1382.192,488.204,1364.276,491.551,1346.375,495.888z M1904.803,881.045c66.207,241.005-75.501,490.044-316.497,556.248
			c-241.005,66.207-490.049-75.486-556.256-316.492c-66.205-241.003,75.492-490.052,316.502-556.258
			C1589.544,498.338,1838.597,640.039,1904.803,881.045z"/>
	</g>
	<g>
		<path fill="#3EAEC6" d="M2376.716,1240.705c-137.176,39.26-280.715-40.4-319.969-177.568
			c-39.259-137.181,40.399-280.715,177.579-319.973c137.171-39.259,280.705,40.402,319.961,177.578
			C2593.547,1057.917,2513.89,1201.449,2376.716,1240.705L2376.716,1240.705z M2251.794,804.207
			c-103.516,29.626-163.63,137.944-134.008,241.458c29.627,103.509,137.944,163.621,241.459,133.99
			c103.509-29.619,163.626-137.932,134.001-241.441C2463.626,834.7,2355.299,774.586,2251.794,804.207L2251.794,804.207z"/>
		<path fill="#3EAEC6" d="M2321.177,1046.641c-30.166,8.632-61.727-8.889-70.355-39.046c-8.636-30.167,8.882-61.727,39.047-70.357
			c30.153-8.633,61.71,8.882,70.344,39.049C2368.843,1006.444,2351.336,1038.013,2321.177,1046.641L2321.177,1046.641z
			 M2299.166,969.734c-12.249,3.507-19.358,16.317-15.856,28.563c3.505,12.235,16.317,19.347,28.563,15.843
			c12.245-3.505,19.352-16.316,15.847-28.553C2324.218,973.341,2311.41,966.229,2299.166,969.734L2299.166,969.734z"/>
		<polygon fill="#3EAEC6" points="2217.185,710.928 2236.681,705.345 2257.354,740.741 2218.366,751.899 		"/>
		<polygon fill="#3EAEC6" points="2292.928,697.638 2313.206,697.292 2324.01,736.835 2283.46,737.519 		"/>
		<polygon fill="#3EAEC6" points="2369.522,704.409 2389.194,709.322 2389.412,750.323 2350.062,740.485 		"/>
		<polygon fill="#3EAEC6" points="2441.759,730.769 2459.494,740.614 2449.089,780.26 2413.621,760.577 		"/>
		<polygon fill="#3EAEC6" points="2504.71,774.93 2519.296,789.032 2498.984,824.626 2469.821,796.433 		"/>
		<polygon fill="#3EAEC6" points="2554.089,833.887 2564.531,851.27 2535.694,880.406 2514.819,845.622 		"/>
		<polygon fill="#3EAEC6" points="2586.53,903.604 2592.106,923.092 2556.719,943.777 2545.557,904.784 		"/>
		<polygon fill="#3EAEC6" points="2599.809,979.342 2600.153,999.616 2560.621,1010.434 2559.931,969.879 		"/>
		<polygon fill="#3EAEC6" points="2593.042,1055.941 2588.13,1075.621 2547.143,1075.824 2556.971,1036.478 		"/>
		<polygon fill="#3EAEC6" points="2566.684,1128.172 2556.838,1145.911 2517.194,1135.508 2536.878,1100.039 		"/>
		<polygon fill="#3EAEC6" points="2522.518,1191.125 2508.422,1205.712 2472.823,1185.397 2501.011,1156.23 		"/>
		<polygon fill="#3EAEC6" points="2463.57,1240.505 2446.188,1250.945 2417.05,1222.11 2451.825,1201.24 		"/>
		<polygon fill="#3EAEC6" points="2393.851,1272.938 2374.351,1278.521 2353.675,1243.132 2392.668,1231.975 		"/>
		<polygon fill="#3EAEC6" points="2318.106,1286.228 2297.831,1286.575 2287.02,1247.039 2327.575,1246.359 		"/>
		<polygon fill="#3EAEC6" points="2241.507,1279.463 2221.835,1274.544 2221.624,1233.569 2260.97,1243.393 		"/>
		<polygon fill="#3EAEC6" points="2169.278,1253.101 2151.542,1243.255 2161.948,1203.605 2197.409,1223.288 		"/>
		<polygon fill="#3EAEC6" points="2106.321,1208.933 2091.745,1194.845 2112.052,1159.243 2141.214,1187.434 		"/>
		<polygon fill="#3EAEC6" points="2056.948,1149.989 2046.515,1132.601 2075.343,1103.467 2096.213,1138.245 		"/>
		<polygon fill="#3EAEC6" points="2024.505,1080.261 2018.926,1060.771 2054.315,1040.102 2065.474,1079.091 		"/>
		<polygon fill="#3EAEC6" points="2011.218,1004.526 2010.877,984.25 2050.409,973.442 2051.103,1013.999 		"/>
		<polygon fill="#3EAEC6" points="2017.992,927.931 2022.905,908.258 2063.896,908.042 2054.065,947.393 		"/>
		<polygon fill="#3EAEC6" points="2044.35,855.692 2054.194,837.955 2093.84,848.363 2074.153,883.823 		"/>
		<polygon fill="#3EAEC6" points="2088.519,792.74 2102.61,778.159 2138.21,798.466 2110.02,827.63 		"/>
		<polygon fill="#3EAEC6" points="2147.464,743.368 2164.851,732.929 2193.979,761.759 2159.201,782.633 		"/>
		
			<rect x="2251.323" y="755.709" transform="matrix(0.9614 -0.2751 0.2751 0.9614 -148.1782 656.6912)" fill="#3EAEC6" width="30.881" height="201.669"/>
		<polygon fill="#3EAEC6" points="2347.312,982.396 2330.06,956.784 2497.3,844.107 2514.556,869.707 		"/>
		<polygon fill="#3EAEC6" points="2486.358,1152.976 2327.509,1028.735 2346.534,1004.419 2505.376,1128.654 		"/>
		<polygon fill="#3EAEC6" points="2237.253,1224.266 2208.239,1213.694 2277.313,1024.225 2306.315,1034.797 		"/>
		<polygon fill="#3EAEC6" points="2264.998,1005.95 2063.459,998.807 2064.556,967.955 2266.087,975.091 		"/>
	</g>
	<path fill="#3EAEC6" d="M733.411,1763.593l21.453,30.303l19.777-7.589l-4.338-37.128c7.544-3.424,14.959-7.05,22.184-10.919
		l26.375,26.09l18.162-10.91l-10.705-35.734c6.846-4.682,13.515-9.561,19.985-14.646l30.448,21.078l15.988-13.891l-16.742-33.346
		c5.92-5.776,11.625-11.744,17.111-17.896l33.669,15.484l13.329-16.469l-22.299-29.955c4.806-6.712,9.366-13.584,13.689-20.588
		l35.922,9.425l10.277-18.524l-27.186-25.645c3.555-7.435,6.854-14.986,9.92-22.64l37.025,3.036l6.893-20.027l-31.201-20.521
		c2.219-7.939,4.188-15.953,5.876-24.033l36.927-3.428l3.32-20.923l-34.264-14.774c0.828-8.191,1.375-16.449,1.624-24.719
		l35.718-9.778l-0.346-21.185l-36.297-8.601c-0.641-8.191-1.537-16.41-2.732-24.603l33.51-15.844l-4.045-20.807l-37.293-2.172
		c-2.05-7.93-4.35-15.839-6.943-23.707l30.298-21.48l-7.588-19.77l-37.124,4.337c-3.438-7.561-7.061-14.968-10.934-22.197
		l26.102-26.362l-10.914-18.16l-35.728,10.695c-4.688-6.838-9.56-13.52-14.654-19.981l21.091-30.445l-13.914-15.98l-33.307,16.743
		c-5.809-5.933-11.78-11.636-17.92-17.114l15.48-33.68l-16.453-13.321l-29.968,22.293c-6.718-4.792-13.578-9.363-20.581-13.694
		l9.415-35.917l-18.517-10.282l-25.663,27.203c-7.419-3.56-14.985-6.874-22.628-9.921l3.033-37.033l-20.018-6.894l-20.525,31.211
		c-7.934-2.231-15.947-4.19-24.04-5.884l-3.429-36.939l-20.907-3.308l-14.782,34.252c-8.202-0.801-16.455-1.352-24.723-1.624
		l-9.782-35.725l-21.177,0.367l-8.597,36.283c-8.208,0.646-16.415,1.547-24.618,2.736l-15.842-33.511l-20.797,4.042l-2.176,37.304
		c-7.931,2.037-15.844,4.34-23.729,6.958l-21.451-30.314l-19.783,7.581l4.34,37.139c-7.558,3.421-14.965,7.052-22.189,10.912
		l-26.357-26.092l-18.16,10.913l10.701,35.733c-6.854,4.681-13.528,9.561-19.998,14.646l-30.448-21.077l-15.975,13.888
		l16.733,33.347c-5.916,5.773-11.625,11.756-17.113,17.902l-33.668-15.491l-13.324,16.466l22.292,29.958
		c-4.792,6.72-9.364,13.576-13.692,20.587l-35.919-9.426l-10.282,18.527l27.211,25.655c-3.568,7.432-6.873,14.974-9.933,22.63
		l-37.028-3.043l-6.889,20.035l31.199,20.529c-2.229,7.93-4.183,15.947-5.861,24.024l-36.947,3.433l-3.312,20.915l34.251,14.775
		c-0.814,8.206-1.359,16.456-1.628,24.727l-35.721,9.773l0.364,21.188l36.292,8.597c0.624,8.195,1.544,16.402,2.737,24.605
		l-33.506,15.842l4.034,20.798l37.288,2.181c2.043,7.927,4.354,15.836,6.951,23.725l-30.298,21.459l7.59,19.768l37.132-4.342
		c3.407,7.57,7.042,14.975,10.92,22.197l-26.096,26.375l10.9,18.15l35.741-10.695c4.681,6.86,9.553,13.523,14.644,19.985
		l-21.066,30.45l13.889,15.979l33.32-16.738c5.803,5.912,11.771,11.633,17.918,17.109l-15.471,33.68l16.443,13.328l29.96-22.303
		c6.716,4.791,13.584,9.367,20.593,13.696l-9.424,35.919l18.531,10.273l25.652-27.195c7.428,3.578,14.975,6.862,22.627,9.924
		l-3.039,37.021l20.043,6.907l20.512-31.207c7.935,2.218,15.943,4.184,24.047,5.876l3.411,36.936l20.921,3.323l14.78-34.27
		c8.194,0.802,16.438,1.359,24.705,1.614l9.805,35.737l21.165-0.374l8.596-36.277c8.204-0.64,16.4-1.535,24.613-2.736l15.857,33.504
		l20.782-4.036l2.175-37.301C717.607,1768.5,725.523,1766.191,733.411,1763.593z M328.118,1524.6
		c-61.428-160.111,18.583-339.672,178.674-401.083c160.11-61.427,339.677,18.568,401.105,178.685
		c61.409,160.099-18.592,339.664-178.692,401.09C569.1,1764.697,389.53,1684.698,328.118,1524.6z"/>
	<g>
		<g>
			<path fill="#C6E7EE" d="M490.128,1861.779l1.832-5.231l-2.612-1.738l-4.132,3.728c-2.564-1.572-5.184-2.989-7.844-4.259
				l0.896-5.459l-2.876-1.258l-3.413,4.373c-2.793-1.099-5.619-2.04-8.474-2.827l-0.063-5.521l-3.052-0.74l-2.599,4.895
				c-2.932-0.593-5.881-1.025-8.836-1.303l-1.025-5.432l-3.131-0.199l-1.715,5.284c-2.981-0.071-5.957,0.014-8.92,0.252
				l-1.956-5.184l-3.12,0.35l-0.771,5.51c-2.941,0.444-5.859,1.042-8.737,1.79l-2.83-4.768l-3.01,0.886l0.196,5.559
				c-2.817,0.943-5.589,2.035-8.303,3.273l-3.605-4.196l-2.812,1.395l1.157,5.427c-2.608,1.415-5.152,2.975-7.613,4.672
				l-4.271-3.498l-2.527,1.861l2.08,5.137c-2.313,1.845-4.546,3.824-6.68,5.934l-4.817-2.708l-2.167,2.271l2.947,4.71
				c-1.947,2.212-3.795,4.545-5.539,6.995l-5.23-1.833l-1.74,2.613l3.727,4.133c-1.568,2.564-2.988,5.183-4.254,7.842l-5.461-0.895
				l-1.259,2.875l4.374,3.412c-1.1,2.791-2.041,5.619-2.83,8.473l-5.519,0.066l-0.739,3.051l4.894,2.599
				c-0.593,2.932-1.024,5.882-1.303,8.837l-5.433,1.024l-0.197,3.132l5.285,1.714c-0.072,2.98,0.011,5.958,0.252,8.921l-5.184,1.956
				l0.347,3.12l5.511,0.771c0.445,2.941,1.043,5.859,1.791,8.737l-4.768,2.828l0.885,3.012l5.559-0.197
				c0.943,2.818,2.036,5.591,3.273,8.303l-4.194,3.606l1.393,2.812l5.427-1.157c1.416,2.608,2.976,5.149,4.673,7.615l-3.499,4.27
				l1.86,2.527l5.14-2.079c1.844,2.314,3.822,4.544,5.932,6.68l-2.707,4.818l2.271,2.166l4.712-2.948
				c2.211,1.947,4.543,3.797,6.994,5.539l-1.834,5.231l2.611,1.739l4.135-3.727c2.564,1.569,5.183,2.987,7.844,4.256l-0.9,5.46
				l2.879,1.258l3.411-4.374c2.793,1.101,5.621,2.041,8.475,2.83l0.066,5.521l3.05,0.738l2.6-4.896
				c2.932,0.593,5.88,1.025,8.837,1.303l1.024,5.432l3.132,0.2l1.713-5.284c2.983,0.07,5.959-0.014,8.922-0.254l1.954,5.185
				l3.121-0.348l0.771-5.512c2.94-0.443,5.857-1.042,8.735-1.79l2.83,4.768l3.013-0.884l-0.198-5.56
				c2.815-0.943,5.589-2.034,8.304-3.274l3.604,4.197l2.814-1.395l-1.158-5.426c2.607-1.417,5.15-2.976,7.613-4.674l4.271,3.499
				l2.526-1.86l-2.078-5.137c2.313-1.846,4.544-3.824,6.679-5.933l4.818,2.704l2.166-2.27l-2.949-4.709
				c1.948-2.213,3.799-4.547,5.541-6.998l5.229,1.835l1.74-2.611l-3.725-4.136c1.569-2.563,2.988-5.182,4.256-7.842l5.459,0.895
				l1.258-2.873l-4.373-3.413c1.1-2.792,2.043-5.62,2.827-8.475l5.522-0.065l0.738-3.05l-4.895-2.597
				c0.593-2.934,1.026-5.884,1.303-8.839l5.432-1.024l0.199-3.133l-5.285-1.713c0.071-2.981-0.011-5.959-0.251-8.921l5.183-1.956
				l-0.35-3.12l-5.51-0.771c-0.441-2.941-1.041-5.859-1.788-8.738l4.767-2.828l-0.883-3.01l-5.562,0.194
				c-0.941-2.816-2.035-5.588-3.272-8.303l4.194-3.604l-1.395-2.812l-5.424,1.156c-1.415-2.608-2.975-5.148-4.672-7.611l3.497-4.271
				l-1.861-2.528l-5.136,2.079c-1.848-2.312-3.824-4.543-5.933-6.678l2.706-4.818l-2.271-2.166l-4.713,2.947
				C494.913,1865.369,492.58,1863.521,490.128,1861.779z M502.484,1971.889c-22.616,33.986-68.499,43.2-102.487,20.587
				c-33.984-22.616-43.202-68.498-20.586-102.483c22.615-33.985,68.499-43.205,102.484-20.589
				C515.882,1892.018,525.101,1937.902,502.484,1971.889z"/>
		</g>
		<path fill="#C6E7EE" d="M470.78,1890.373l-3.496-2.324l-5.576,5.314c-1.734-0.96-3.512-1.787-5.317-2.486l0.392-7.737
			l-4.041-1.132l-3.658,6.77c-1.933-0.373-3.881-0.606-5.828-0.709l-2.019-7.482l-4.192,0.173l-1.387,7.579
			c-1.944,0.242-3.869,0.617-5.76,1.12l-4.234-6.497l-3.936,1.459l1.022,7.631c-1.771,0.826-3.487,1.777-5.14,2.845l-6.025-4.862
			l-3.291,2.604l3.326,6.939c-1.414,1.326-2.751,2.758-3.998,4.299l-7.243-2.766l-2.324,3.493l5.315,5.577
			c-0.961,1.734-1.787,3.51-2.486,5.318l-7.736-0.395l-1.133,4.044l6.771,3.655c-0.374,1.934-0.606,3.882-0.71,5.829l-7.481,2.018
			l0.173,4.195l7.578,1.389c0.242,1.942,0.619,3.864,1.121,5.757l-6.498,4.234l1.461,3.936l7.629-1.02
			c0.826,1.766,1.776,3.483,2.846,5.135l-4.863,6.028l2.603,3.292l6.941-3.33c1.324,1.416,2.759,2.752,4.298,3.998l-2.768,7.244
			l3.494,2.324l5.578-5.315c1.734,0.962,3.51,1.788,5.316,2.487l-0.392,7.736l4.04,1.132l3.66-6.771
			c1.931,0.373,3.881,0.608,5.828,0.71l2.018,7.482l4.193-0.171l1.389-7.58c1.941-0.242,3.867-0.617,5.756-1.121l4.236,6.497
			l3.937-1.46l-1.022-7.629c1.769-0.826,3.486-1.775,5.139-2.846l6.026,4.863l3.29-2.604l-3.326-6.938
			c1.414-1.324,2.75-2.759,3.996-4.299l7.243,2.768l2.327-3.496l-5.316-5.575c0.962-1.735,1.789-3.511,2.488-5.319l7.734,0.393
			l1.133-4.041l-6.77-3.657c0.373-1.933,0.606-3.881,0.711-5.829l7.479-2.018l-0.173-4.194l-7.578-1.387
			c-0.241-1.942-0.617-3.867-1.119-5.759l6.496-4.234l-1.461-3.937l-7.629,1.021c-0.827-1.767-1.777-3.482-2.846-5.136l4.864-6.026
			l-2.605-3.292l-6.941,3.329c-1.321-1.414-2.756-2.752-4.296-4L470.78,1890.373z M467.811,1948.815
			c-9.872,14.837-29.903,18.863-44.739,8.989c-14.836-9.873-18.859-29.904-8.986-44.74c9.872-14.836,29.902-18.86,44.738-8.986
			C473.659,1913.949,477.685,1933.979,467.811,1948.815z"/>
		<g>
			<path fill="#C6E7EE" d="M565.272,1936.666c-6.148,9.24-3.643,21.717,5.597,27.866c9.241,6.147,21.718,3.642,27.866-5.599
				s3.643-21.717-5.597-27.865C583.899,1924.919,571.422,1927.426,565.272,1936.666z M596.093,1957.175
				c-5.18,7.78-15.684,9.892-23.465,4.715c-7.781-5.179-9.895-15.683-4.713-23.464c5.178-7.781,15.682-9.893,23.464-4.715
				C599.159,1938.89,601.27,1949.393,596.093,1957.175z"/>
			<g>
				<g>
					<g>
						<polygon fill="#C6E7EE" points="561.302,1937.25 562.233,1935.852 565.435,1936.975 563.573,1939.771 						"/>
					</g>
				</g>
				<g>
					<g>
						<polygon fill="#C6E7EE" points="558.942,1944.967 559.335,1943.334 562.73,1943.294 561.94,1946.559 						"/>
					</g>
				</g>
				<g>
					<g>
						<polygon fill="#C6E7EE" points="559.362,1953.025 559.177,1951.354 562.353,1950.157 562.726,1953.496 						"/>
					</g>
				</g>
				<g>
					<g>
						<polygon fill="#C6E7EE" points="562.517,1960.454 561.77,1958.949 564.343,1956.736 565.834,1959.746 						"/>
					</g>
				</g>
				<g>
					<g>
						<polygon fill="#C6E7EE" points="568.019,1966.356 566.803,1965.197 568.465,1962.238 570.892,1964.556 						"/>
					</g>
				</g>
				<g>
					<g>
						<polygon fill="#C6E7EE" points="575.21,1970.02 573.669,1969.347 574.218,1965.998 577.297,1967.344 						"/>
					</g>
				</g>
				<g>
					<g>
						<polygon fill="#C6E7EE" points="583.219,1971.002 581.542,1970.897 580.913,1967.561 584.262,1967.776 						"/>
					</g>
				</g>
				<g>
					<g>
						<polygon fill="#C6E7EE" points="591.082,1969.189 589.47,1969.663 587.738,1966.743 590.96,1965.798 						"/>
					</g>
				</g>
				<g>
					<g>
						<polygon fill="#C6E7EE" points="597.849,1964.795 596.496,1965.791 593.872,1963.639 596.575,1961.648 						"/>
					</g>
				</g>
				<g>
					<g>
						<polygon fill="#C6E7EE" points="602.708,1958.351 601.777,1959.748 598.574,1958.625 600.433,1955.829 						"/>
					</g>
				</g>
				<g>
					<g>
						<polygon fill="#C6E7EE" points="605.068,1950.634 604.671,1952.265 601.276,1952.307 602.069,1949.041 						"/>
					</g>
				</g>
				<g>
					<g>
						<polygon fill="#C6E7EE" points="604.644,1942.575 604.832,1944.244 601.655,1945.441 601.282,1942.105 						"/>
					</g>
				</g>
				<g>
					<g>
						<polygon fill="#C6E7EE" points="601.491,1935.146 602.238,1936.65 599.665,1938.865 598.172,1935.854 						"/>
					</g>
				</g>
				<g>
					<g>
						<polygon fill="#C6E7EE" points="595.989,1929.244 597.204,1930.402 595.542,1933.361 593.11,1931.043 						"/>
					</g>
				</g>
				<g>
					<g>
						<polygon fill="#C6E7EE" points="588.8,1925.579 590.337,1926.252 589.787,1929.602 586.712,1928.256 						"/>
					</g>
				</g>
				<g>
					<g>
						<polygon fill="#C6E7EE" points="580.789,1924.596 582.467,1924.701 583.092,1928.038 579.743,1927.824 						"/>
					</g>
				</g>
				<g>
					<g>
						<polygon fill="#C6E7EE" points="572.926,1926.41 574.538,1925.938 576.269,1928.857 573.046,1929.803 						"/>
					</g>
				</g>
				<g>
					<g>
						<polygon fill="#C6E7EE" points="566.159,1930.805 567.511,1929.809 570.136,1931.96 567.431,1933.952 						"/>
					</g>
				</g>
			</g>
		</g>
		<g>
			<path fill="#C6E7EE" d="M546.362,1924.082c-13.098,19.686-7.762,46.263,11.924,59.36c19.686,13.101,46.261,7.761,59.359-11.925
				c13.098-19.685,7.762-46.26-11.926-59.359C586.038,1899.061,559.461,1904.398,546.362,1924.082z M609.411,1966.036
				c-10.074,15.138-30.51,19.242-45.646,9.17c-15.135-10.071-19.241-30.507-9.167-45.644c10.07-15.135,30.506-19.242,45.641-9.17
				C615.377,1930.467,619.481,1950.901,609.411,1966.036z"/>
			<g>
				<g>
					<polygon fill="#C6E7EE" points="535.782,1920.584 539.05,1915.674 550.306,1919.62 543.767,1929.445 					"/>
				</g>
				<g>
					<polygon fill="#C6E7EE" points="528.366,1947.344 528.741,1941.455 540.462,1939.243 539.712,1951.021 					"/>
				</g>
				<g>
					<polygon fill="#C6E7EE" points="535.323,1974.225 532.704,1968.938 541.748,1961.162 546.989,1971.736 					"/>
				</g>
				<g>
					<polygon fill="#C6E7EE" points="554.79,1994.023 549.876,1990.755 553.823,1979.499 563.649,1986.036 					"/>
				</g>
				<g>
					<polygon fill="#C6E7EE" points="581.548,2001.438 575.659,2001.063 573.448,1989.344 585.226,1990.092 					"/>
				</g>
				<g>
					<polygon fill="#C6E7EE" points="608.429,1994.481 603.14,1997.101 595.365,1988.055 605.939,1982.814 					"/>
				</g>
				<g>
					<polygon fill="#C6E7EE" points="628.224,1975.016 624.958,1979.928 613.704,1975.981 620.241,1966.156 					"/>
				</g>
				<g>
					<polygon fill="#C6E7EE" points="635.643,1948.258 635.267,1954.146 623.547,1956.355 624.296,1944.578 					"/>
				</g>
				<g>
					<polygon fill="#C6E7EE" points="628.685,1921.377 631.304,1926.664 622.258,1934.439 617.021,1923.865 					"/>
				</g>
				<g>
					<polygon fill="#C6E7EE" points="609.218,1901.576 614.132,1904.847 610.186,1916.102 600.361,1909.564 					"/>
				</g>
				<g>
					<polygon fill="#C6E7EE" points="582.462,1894.161 588.35,1894.537 590.561,1906.259 578.782,1905.508 					"/>
				</g>
				<g>
					<polygon fill="#C6E7EE" points="555.581,1901.12 560.868,1898.501 568.643,1907.545 558.069,1912.784 					"/>
				</g>
			</g>
		</g>
	</g>
	<polygon fill="#63295C" points="1429.308,1279.419 1419.308,1279.419 1419.308,1241.42 1429.308,1241.42 1429.308,1279.419 	"/>
	<polygon fill="#85577F" points="1627.153,932.302 1597.153,932.302 1597.153,889.125 1627.153,889.125 1627.153,932.302 	"/>
	<polygon fill="#85577F" points="1799.312,1064.295 1769.312,1064.295 1769.312,991.42 1799.312,991.42 1799.312,1064.295 	"/>
	<g>
		<polygon fill="#85577F" points="2048.372,481.207 1612.153,481.207 1612.153,451.207 2048.372,451.207 2048.372,481.207 		"/>
		<polygon fill="#85577F" points="2027.118,431.323 2087.538,466.207 2027.118,501.09 		"/>
		<polygon fill="#63295C" points="2100.423,497.933 2119.165,508.753 2100.423,519.574 		"/>
		<polygon fill="#B3D600" points="1965.013,383.177 1983.755,393.998 1965.013,404.819 		"/>
	</g>
	<path fill="#63295C" d="M1908.308,792.42h-128.929c-35.594,0-64.552-28.958-64.552-64.551V617.42h50v110.449
		c0,8.023,6.528,14.551,14.552,14.551h128.929V792.42L1908.308,792.42z"/>
	<polygon fill="#63295C" points="997.723,492.42 922.308,492.42 922.308,482.42 997.723,482.42 997.723,492.42 	"/>
	<polygon fill="#B3D600" points="1302.308,1222.42 1199.308,1222.42 1199.308,1192.42 1302.308,1192.42 1302.308,1222.42 	"/>
	<path fill="#63295C" d="M825.532,2009.764h-10v-352.793c0-24.565,19.985-44.551,44.551-44.551h137.639v10H860.083
		c-19.052,0-34.551,15.499-34.551,34.551V2009.764L825.532,2009.764z"/>
	<path fill="#CEEAF0" d="M1573.489,1428.42h-14.495c-30.08,0-54.552-24.472-54.552-54.551v-40.897
		c0-30.08,24.472-54.551,54.552-54.551h106.979v30h-106.979c-13.538,0-24.552,11.014-24.552,24.551v40.897
		c0,13.538,11.014,24.551,24.552,24.551h14.495V1428.42L1573.489,1428.42z"/>
	<polygon fill="#63295C" points="1726.311,1093.172 1676.311,1093.172 1676.311,941.302 1726.311,941.302 1726.311,1093.172 	"/>
	<polygon fill="#63295C" points="1379.308,1492.753 1329.308,1492.753 1329.308,1445.42 1379.308,1445.42 1379.308,1492.753 	"/>
	<g>
		<g>
			<path fill="#FFFFFF" d="M2129.366,2009.764H1637.08c-43.651,57.409-106.239,224.459-124.561,274.984h81.709
				c0,0-5.832,43.562-7.508,61.939c-1.674,18.376,11.723,25.869,30.98,32.17c-15.07,3.79-29.34,13.666-31.618,34.086
				c-2.821,25.295,15.909,38.223,14.845,48.838c-2.467,24.526-14.945,338.219-14.945,338.219h629.24L2129.366,2009.764z"/>
		</g>
		<g>
			<circle fill="#63295C" cx="1677.307" cy="2113.846" r="24.004"/>
			<g>
				<path fill="#63295C" d="M1809.896,2122.231l0.468-2.656l-5.644-2.364l-0.288,1.637c0.143-1.114,0.225-2.248,0.225-3.401
					c0-1.152-0.082-2.285-0.225-3.399l0.229,1.303l5.643-2.365l-0.468-2.657l-6.112-0.292l0.275,1.562
					c-0.498-2.206-1.271-4.307-2.283-6.266l0.633,1.096l4.493-4.151l-1.348-2.336l-5.843,1.815l0.827,1.434
					c-1.227-1.913-2.689-3.659-4.354-5.192l0.999,0.838l2.803-5.438l-2.066-1.734l-4.869,3.705l1.259,1.057
					c-1.738-1.329-3.645-2.45-5.686-3.319l1.053,0.383l0.774-6.069l-2.535-0.923l-3.31,5.146l1.391,0.507
					c-2.057-0.628-4.221-1.013-6.457-1.119h1.255l-1.35-5.968h-2.698l-1.349,5.968h1.593c-2.236,0.106-4.399,0.491-6.457,1.118
					l1.071-0.39l-3.308-5.146l-2.536,0.923l0.774,6.069l1.365-0.497c-2.032,0.866-3.932,1.981-5.664,3.305l0.983-0.826l-4.869-3.704
					l-2.066,1.733l2.803,5.438l1.249-1.048c-1.652,1.523-3.105,3.257-4.326,5.154l0.642-1.11l-5.844-1.815l-1.348,2.336l4.492,4.152
					l0.794-1.374c-1.009,1.956-1.779,4.053-2.277,6.255l0.218-1.232l-6.11,0.292l-0.47,2.656l5.645,2.365l0.286-1.624
					c-0.143,1.11-0.224,2.239-0.224,3.388c0,1.152,0.082,2.285,0.225,3.399l-0.229-1.302l-5.643,2.364l0.47,2.657l6.11,0.292
					l-0.275-1.56c0.497,2.198,1.266,4.291,2.272,6.244l-0.621-1.076l-4.494,4.152l1.35,2.336l5.842-1.815l-0.817-1.415
					c1.223,1.901,2.679,3.638,4.333,5.165l-0.988-0.83l-2.803,5.438l2.067,1.733l4.868-3.704l-1.243-1.043
					c1.734,1.323,3.635,2.439,5.668,3.306l-1.052-0.383l-0.771,6.069l2.533,0.923l3.309-5.146l-1.392-0.507
					c2.058,0.628,4.222,1.013,6.459,1.119h-1.253l1.348,5.968h2.697l1.35-5.968h-1.593c2.237-0.106,4.401-0.491,6.459-1.119
					l-1.073,0.391l3.309,5.146l2.534-0.923l-0.774-6.068l-1.368,0.498c2.035-0.867,3.938-1.985,5.674-3.311l-0.99,0.83l4.87,3.704
					l2.066-1.733l-2.804-5.438l-1.252,1.051c1.661-1.532,3.121-3.275,4.347-5.185l-0.657,1.138l5.844,1.815l1.35-2.336l-4.494-4.151
					l-0.811,1.402c1.017-1.966,1.793-4.074,2.293-6.289l-0.219,1.238L1809.896,2122.231z M1778.207,2133.857
					c-10.169,0-18.41-8.243-18.41-18.411s8.241-18.411,18.41-18.411c10.168,0,18.411,8.243,18.411,18.411
					S1788.375,2133.857,1778.207,2133.857z"/>
				<path fill="#63295C" d="M1778.207,2102.306c-7.258,0-13.141,5.884-13.141,13.141c0,7.258,5.883,13.14,13.141,13.14
					c7.257,0,13.14-5.882,13.14-13.14C1791.347,2108.189,1785.464,2102.306,1778.207,2102.306z M1778.207,2121.831
					c-3.525,0-6.384-2.858-6.384-6.385s2.858-6.384,6.384-6.384c3.526,0,6.384,2.857,6.384,6.384
					S1781.733,2121.831,1778.207,2121.831z"/>
			</g>
		</g>
		<g>
			<g>
				<path fill="#C6E7EE" d="M2129.617,2124.592v232.709c64.26,0,116.354-52.094,116.354-116.354
					S2193.877,2124.592,2129.617,2124.592z"/>
			</g>
			<path fill="#FFFFFF" d="M2129.617,2328.176v-11.812c41.586,0,75.418-33.832,75.418-75.418s-33.832-75.418-75.418-75.418v-11.812
				c48.099,0,87.229,39.131,87.229,87.229S2177.716,2328.176,2129.617,2328.176z"/>
			<path fill="#FFFFFF" d="M2129.617,2294.598v-11.811c23.07,0,41.839-18.77,41.839-41.841c0-23.07-18.769-41.84-41.839-41.84
				v-11.812c29.582,0,53.65,24.068,53.65,53.651C2183.268,2270.53,2159.199,2294.598,2129.617,2294.598z"/>
		</g>
	</g>
	<g>
		<g>
			<path fill="#63295C" d="M655.336,2009.764h492.285c43.652,57.409,106.24,224.459,124.562,274.984h-81.709
				c0,0,5.832,43.562,7.506,61.939c1.676,18.376-11.722,25.869-30.979,32.17c15.071,3.79,29.339,13.666,31.618,34.086
				c2.822,25.295-15.909,38.223-14.844,48.838c2.466,24.526,14.945,338.219,14.945,338.219H569.48L655.336,2009.764z"/>
		</g>
		<g>
			<circle fill="#FFFFFF" cx="1107.396" cy="2113.846" r="24.005"/>
			<g>
				<g>
					<polygon fill="#FFFFFF" points="1004.696,2140.896 997.723,2158.402 1016.833,2143.298 					"/>
				</g>
				<ellipse fill="#FFFFFF" cx="1013.933" cy="2114.297" rx="36.391" ry="29.357"/>
			</g>
		</g>
		<g>
			<g>
				<path fill="#85577F" d="M655.086,2124.592v232.709c-64.261,0-116.355-52.094-116.355-116.354S590.825,2124.592,655.086,2124.592
					z"/>
			</g>
			<path fill="#FFFFFF" d="M655.086,2328.176c-48.1,0-87.23-39.131-87.23-87.229s39.131-87.229,87.23-87.229v11.812
				c-41.586,0-75.418,33.832-75.418,75.418s33.832,75.418,75.418,75.418V2328.176z"/>
			<path fill="#FFFFFF" d="M655.086,2294.598c-29.584,0-53.65-24.067-53.65-53.651c0-29.583,24.066-53.651,53.65-53.651v11.812
				c-23.07,0-41.84,18.77-41.84,41.84c0,23.071,18.77,41.841,41.84,41.841V2294.598z"/>
		</g>
	</g>
	<g>
		<g>
			<g>
				<circle fill="#FFFFFF" cx="488.235" cy="1484.918" r="58.202"/>
				<path fill="#FFFFFF" d="M430.033,1484.918c0-60.15,63.339-124.255,194.112-127.963c1.475-0.042,2.765,0.989,3.05,2.437
					c0.285,1.449-0.519,2.892-1.9,3.411c-66.254,24.92-78.858,75.469-78.858,122.115
					C520.865,1484.918,430.033,1484.918,430.033,1484.918z"/>
			</g>
			<g>
				<circle fill="#63295C" cx="508.995" cy="1459.542" r="12.604"/>
				<circle fill="#63295C" cx="461.003" cy="1485.653" r="12.604"/>
				<circle fill="#63295C" cx="503.775" cy="1507.565" r="12.604"/>
				<polygon fill="#63295C" points="502.273,1510.499 453.945,1485.741 507.42,1456.646 510.57,1462.438 468.061,1485.565 
					505.279,1504.632 502.273,1510.499 				"/>
			</g>
		</g>
		<g>
			<circle fill="#CEEAF0" cx="601.102" cy="1265.489" r="47.77"/>
			<path fill="#CEEAF0" d="M553.332,1265.489c0,47.148,35.148,77.188,159.103,82.209c1.535,0.062,2.872-1.037,3.107-2.554
				c0.236-1.517-0.703-2.973-2.184-3.378c-49.354-13.521-64.487-42.244-64.487-76.277
				C627.883,1265.489,553.332,1265.489,553.332,1265.489z"/>
		</g>
		<g>
			<circle fill="#B3D600" cx="492.165" cy="1292.882" r="31.996"/>
			<path fill="#B3D600" d="M460.169,1292.882c0,30.571,22.061,50.402,98.785,54.689c1.499,0.084,2.832-0.945,3.129-2.417
				c0.298-1.471-0.529-2.939-1.943-3.444c-27.34-9.768-35.979-27.783-35.979-48.828
				C510.104,1292.882,460.169,1292.882,460.169,1292.882z"/>
		</g>
	</g>
	<g>
		<g>
			
				<rect x="587.715" y="1269.223" transform="matrix(0.707 0.7072 -0.7072 0.707 1083.4982 -49.478)" fill="#63295C" width="27.503" height="27.501"/>
		</g>
		<path fill="#63295C" d="M620.915,1282.972c-10.74,10.742-28.156,10.742-38.895,0c-10.744-10.739-10.744-28.154,0-38.895
			c10.738-10.74,28.154-10.74,38.895,0S631.655,1272.232,620.915,1282.972z"/>
		<path fill="#B3D600" d="M601.466,1280.089c-9.152,0-16.564-7.408-16.564-16.563c0-9.153,7.408-16.564,16.564-16.564
			c9.154,0,16.562,7.407,16.562,16.563C618.028,1272.679,610.622,1280.089,601.466,1280.089L601.466,1280.089z"/>
		<path fill="#FFFFFF" d="M601.466,1273.187c-5.34,0-9.662-4.32-9.662-9.661c0-5.339,4.322-9.663,9.662-9.663
			s9.662,4.322,9.662,9.662S606.808,1273.187,601.466,1273.187L601.466,1273.187z"/>
	</g>
	<g>
		<path fill="#FFFFFF" d="M1830.644,284.312h-1.945c-2.149,0-3.892-1.742-3.892-3.892s1.742-3.892,3.892-3.892h1.945
			c2.149,0,3.892,1.742,3.892,3.892S1832.793,284.312,1830.644,284.312L1830.644,284.312z M1815.078,284.312h-1.946
			c-2.149,0-3.892-1.742-3.892-3.892s1.742-3.892,3.892-3.892h1.946c2.149,0,3.892,1.742,3.892,3.892
			S1817.228,284.312,1815.078,284.312L1815.078,284.312z M1799.512,284.312h-1.945c-2.149,0-3.892-1.742-3.892-3.892
			s1.742-3.892,3.892-3.892h1.945c2.149,0,3.892,1.742,3.892,3.892S1801.661,284.312,1799.512,284.312L1799.512,284.312z
			 M1783.946,284.312h-1.945c-2.149,0-3.892-1.742-3.892-3.892s1.742-3.892,3.892-3.892h1.945c2.149,0,3.892,1.742,3.892,3.892
			S1786.096,284.312,1783.946,284.312L1783.946,284.312z M1768.381,284.312h-1.946c-2.149,0-3.892-1.742-3.892-3.892
			s1.742-3.892,3.892-3.892h1.946c2.149,0,3.892,1.742,3.892,3.892S1770.53,284.312,1768.381,284.312L1768.381,284.312z
			 M1752.815,284.312h-1.946c-2.149,0-3.892-1.742-3.892-3.892s1.742-3.892,3.892-3.892h1.946c2.149,0,3.892,1.742,3.892,3.892
			S1754.965,284.312,1752.815,284.312L1752.815,284.312z M1737.249,284.312h-1.945c-2.149,0-3.892-1.742-3.892-3.892
			s1.742-3.892,3.892-3.892h1.945c2.149,0,3.892,1.742,3.892,3.892S1739.398,284.312,1737.249,284.312L1737.249,284.312z
			 M1721.684,284.312h-1.945c-2.149,0-3.892-1.742-3.892-3.892s1.742-3.892,3.892-3.892h1.945c2.149,0,3.892,1.742,3.892,3.892
			S1723.833,284.312,1721.684,284.312L1721.684,284.312z M1706.118,284.312h-1.946c-2.149,0-3.892-1.742-3.892-3.892
			s1.742-3.892,3.892-3.892h1.946c2.149,0,3.892,1.742,3.892,3.892S1708.268,284.312,1706.118,284.312L1706.118,284.312z
			 M1690.552,284.312h-1.945c-2.149,0-3.892-1.742-3.892-3.892s1.742-3.892,3.892-3.892h1.945c2.149,0,3.892,1.742,3.892,3.892
			S1692.701,284.312,1690.552,284.312L1690.552,284.312z M1674.986,284.312h-1.945c-2.149,0-3.892-1.742-3.892-3.892
			s1.742-3.892,3.892-3.892h1.945c2.149,0,3.892,1.742,3.892,3.892S1677.136,284.312,1674.986,284.312L1674.986,284.312z
			 M1659.421,284.312h-1.946c-2.149,0-3.892-1.742-3.892-3.892s1.742-3.892,3.892-3.892h1.946c2.149,0,3.892,1.742,3.892,3.892
			S1661.57,284.312,1659.421,284.312L1659.421,284.312z M1643.855,284.312h-1.946c-2.149,0-3.892-1.742-3.892-3.892
			s1.742-3.892,3.892-3.892h1.946c2.148,0,3.891,1.742,3.891,3.892S1646.004,284.312,1643.855,284.312L1643.855,284.312z"/>
		<polygon fill="#FFFFFF" points="1837.525,266.896 1860.949,280.42 1837.525,293.943 		"/>
	</g>
	<g>
		<g>
			<g>
				<circle fill="#FFFFFF" cx="2277.476" cy="634.064" r="32.57"/>
				<path fill="#FFFFFF" d="M2310.044,634.063c0-29.973-26.89-66.843-94.428-71.263c-1.43-0.094-2.727,0.832-3.107,2.211
					c-0.38,1.381,0.262,2.841,1.537,3.491c30.178,15.389,30.857,44.394,30.857,65.561
					C2259.213,634.063,2310.044,634.063,2310.044,634.063z"/>
			</g>
			<g>
				<circle fill="#63295C" cx="2314.829" cy="509.61" r="23.832"/>
				<path fill="#63295C" d="M2338.659,509.61c0,23.772-24.16,49.053-73.99,52.148c-1.059,0.065-2.014-0.626-2.277-1.657
					c-0.263-1.026,0.239-2.095,1.2-2.547c22.877-10.755,27.406-30.048,27.406-47.944
					C2301.468,509.61,2338.659,509.61,2338.659,509.61z"/>
			</g>
			<g>
				<circle fill="#B3D600" cx="2357.287" cy="603.683" r="23.832"/>
				<path fill="#B3D600" d="M2381.118,603.683c0-22.808-16.488-37.591-73.868-40.751c-1.097-0.061-2.071,0.695-2.287,1.773
					c-0.216,1.077,0.394,2.15,1.431,2.516c20.571,7.253,27.062,20.719,27.062,36.462
					C2343.925,603.683,2381.118,603.683,2381.118,603.683z"/>
			</g>
		</g>
		<path fill="#FFFFFF" d="M2191.392,569.439h-0.5c-3.043,0-5.511-2.467-5.511-5.51s2.468-5.511,5.511-5.511h0.5
			c3.043,0,5.511,2.467,5.511,5.511S2194.435,569.439,2191.392,569.439L2191.392,569.439z M2171.605,569.439h-0.5
			c-3.043,0-5.511-2.467-5.511-5.51s2.468-5.511,5.511-5.511h0.5c3.043,0,5.511,2.467,5.511,5.511
			S2174.648,569.439,2171.605,569.439L2171.605,569.439z M2151.818,569.439h-0.5c-3.043,0-5.511-2.467-5.511-5.511
			s2.468-5.511,5.511-5.511h0.5c3.043,0,5.511,2.467,5.511,5.511S2154.861,569.439,2151.818,569.439L2151.818,569.439z
			 M2132.032,569.439h-0.5c-3.043,0-5.511-2.467-5.511-5.511s2.468-5.511,5.511-5.511h0.5c3.043,0,5.511,2.467,5.511,5.511
			S2135.075,569.439,2132.032,569.439L2132.032,569.439z M2112.245,569.439h-0.5c-3.043,0-5.511-2.467-5.511-5.511
			s2.468-5.511,5.511-5.511h0.5c3.043,0,5.511,2.467,5.511,5.511S2115.288,569.439,2112.245,569.439L2112.245,569.439z
			 M2092.459,569.438h-0.5c-3.043,0-5.511-2.467-5.511-5.511s2.468-5.51,5.511-5.51h0.5c3.043,0,5.511,2.467,5.511,5.51
			S2095.502,569.438,2092.459,569.438L2092.459,569.438z M2072.672,569.438h-0.5c-3.043,0-5.511-2.467-5.511-5.511
			s2.468-5.51,5.511-5.51h0.5c3.043,0,5.511,2.467,5.511,5.51S2075.715,569.438,2072.672,569.438L2072.672,569.438z"/>
	</g>
	<g>
		<g>
			<g>
				<circle fill="#FFFFFF" cx="2080.515" cy="895.917" r="31.315"/>
				<path fill="#FFFFFF" d="M2080.517,864.603c28.819,0,64.267,25.854,68.516,90.789c0.09,1.373-0.798,2.622-2.125,2.987
					c-1.328,0.364-2.731-0.252-3.356-1.479c-14.796-29.014-42.683-29.669-63.034-29.669
					C2080.517,913.474,2080.517,864.603,2080.517,864.603z"/>
			</g>
		</g>
		<g>
			<g>
				<circle fill="#B3D600" cx="2252.937" cy="911.445" r="44.325"/>
				<path fill="#B3D600" d="M2252.935,867.121c-40.79,0-90.964,36.596-96.979,128.506c-0.127,1.944,1.129,3.71,3.008,4.228
					c1.879,0.519,3.866-0.355,4.751-2.092c20.942-41.066,60.413-41.993,89.22-41.993
					C2252.935,936.295,2252.935,867.121,2252.935,867.121z"/>
			</g>
		</g>
		<g>
			<g>
				<g>
					<path fill="#0094B3" d="M2248.478,916.296v-8.782h22.449v5.294c0,1.927-1.562,3.488-3.488,3.488H2248.478z"/>
				</g>
				<g>
					<path fill="#0094B3" d="M2257.262,916.296h-8.783v-22.449c4.851,0,8.783,3.932,8.783,8.783V916.296z"/>
				</g>
			</g>
			<g>
				<g>
					<path fill="#0094B3" d="M2257.262,907.515v8.781h-22.449v-5.293c0-1.927,1.562-3.488,3.488-3.488H2257.262z"/>
				</g>
				<g>
					<path fill="#0094B3" d="M2248.479,907.515h8.782v22.449h-5.294c-1.927,0-3.488-1.562-3.488-3.488V907.515z"/>
				</g>
			</g>
		</g>
		<g>
			<circle fill="#0094B3" cx="2071.534" cy="889.478" r="8.983"/>
			<g>
				<circle fill="#0094B3" cx="2089.5" cy="889.478" r="8.983"/>
				<path fill="#0094B3" d="M2080.517,889.478c0,0-18.251,0.787-17.304,3.383c1.443,3.953,6.714,9.272,9.779,11.615
					c2.311,1.766,3.943,2.897,5.118,4.019c1.349,1.287,3.465,1.285,4.813-0.001c1.176-1.121,2.807-2.252,5.116-4.017
					c3.066-2.343,8.337-7.662,9.78-11.615C2098.768,890.265,2080.517,889.478,2080.517,889.478z"/>
			</g>
		</g>
	</g>
	<g>
		<polygon fill="#FFFFFF" points="889.479,212.543 846.504,187.73 889.479,162.919 		"/>
		<path fill="#FFFFFF" d="M1187.161,195.23h-1c-4.142,0-7.5-3.358-7.5-7.5s3.358-7.5,7.5-7.5h1c4.142,0,7.5,3.358,7.5,7.5
			S1191.303,195.23,1187.161,195.23L1187.161,195.23z M1156.161,195.23h-1c-4.142,0-7.5-3.358-7.5-7.5s3.358-7.5,7.5-7.5h1
			c4.142,0,7.5,3.358,7.5,7.5S1160.303,195.23,1156.161,195.23L1156.161,195.23z M1125.161,195.23h-1c-4.142,0-7.5-3.358-7.5-7.5
			s3.358-7.5,7.5-7.5h1c4.142,0,7.5,3.358,7.5,7.5S1129.303,195.23,1125.161,195.23L1125.161,195.23z M1094.161,195.23h-1
			c-4.142,0-7.5-3.358-7.5-7.5s3.358-7.5,7.5-7.5h1c4.142,0,7.5,3.358,7.5,7.5S1098.303,195.23,1094.161,195.23L1094.161,195.23z
			 M1063.161,195.23h-1c-4.142,0-7.5-3.358-7.5-7.5s3.358-7.5,7.5-7.5h1c4.142,0,7.5,3.358,7.5,7.5S1067.303,195.23,1063.161,195.23
			L1063.161,195.23z M1032.161,195.23h-1c-4.142,0-7.5-3.358-7.5-7.5s3.358-7.5,7.5-7.5h1c4.142,0,7.5,3.358,7.5,7.5
			S1036.303,195.23,1032.161,195.23L1032.161,195.23z M1001.161,195.23h-1c-4.142,0-7.5-3.358-7.5-7.5s3.358-7.5,7.5-7.5h1
			c4.142,0,7.5,3.358,7.5,7.5S1005.303,195.23,1001.161,195.23L1001.161,195.23z M970.161,195.23h-1c-4.142,0-7.5-3.358-7.5-7.5
			s3.358-7.5,7.5-7.5h1c4.142,0,7.5,3.358,7.5,7.5S974.303,195.23,970.161,195.23L970.161,195.23z M939.161,195.23h-1
			c-4.142,0-7.5-3.358-7.5-7.5s3.358-7.5,7.5-7.5h1c4.142,0,7.5,3.358,7.5,7.5S943.303,195.23,939.161,195.23L939.161,195.23z
			 M908.161,195.23h-1c-4.142,0-7.5-3.358-7.5-7.5s3.358-7.5,7.5-7.5h1c4.142,0,7.5,3.358,7.5,7.5S912.303,195.23,908.161,195.23
			L908.161,195.23z M877.161,195.23h-1c-4.142,0-7.5-3.358-7.5-7.5s3.358-7.5,7.5-7.5h1c4.142,0,7.5,3.358,7.5,7.5
			S881.303,195.23,877.161,195.23L877.161,195.23z"/>
	</g>
	<g>
		<polygon fill="#FFFFFF" points="2240.54,1856.603 2269.296,1873.206 2240.54,1889.806 		"/>
		<polygon fill="#FFFFFF" points="2210.071,1856.603 2238.826,1873.206 2210.071,1889.808 		"/>
		<polygon fill="#FFFFFF" points="2179.601,1856.604 2208.356,1873.208 2179.601,1889.808 		"/>
		<polygon fill="#FFFFFF" points="2149.131,1856.604 2177.887,1873.208 2149.131,1889.81 		"/>
		<polygon fill="#FFFFFF" points="2118.661,1856.606 2147.417,1873.21 2118.661,1889.81 		"/>
	</g>
	<g>
		<polygon fill="#FFFFFF" points="714.877,468.778 743.633,485.382 714.877,501.981 		"/>
		<polygon fill="#FFFFFF" points="684.407,468.778 713.163,485.382 684.407,501.983 		"/>
		<polygon fill="#FFFFFF" points="653.938,468.78 682.693,485.384 653.938,501.983 		"/>
		<polygon fill="#FFFFFF" points="436.031,468.78 464.787,485.384 436.031,501.985 		"/>
		<polygon fill="#FFFFFF" points="405.562,468.782 434.317,485.386 405.562,501.985 		"/>
	</g>
	<path fill="#97D3E0" d="M554.155,380.796c-0.003,0-0.007,0-0.01,0c-2.188-0.004-4.12-1.432-4.766-3.522
		c-4.411-14.255-10.553-20.359-26.29-26.128c-1.878-0.688-3.165-2.43-3.271-4.427c-0.107-1.998,0.987-3.866,2.781-4.751
		c13.53-6.673,21.106-14.234,27.022-26.968c0.82-1.765,2.59-2.893,4.535-2.893c0.007,0,0.014,0,0.021,0
		c1.953,0.008,3.723,1.152,4.531,2.93c5.987,13.167,12.799,19.961,26.996,26.926c1.82,0.893,2.921,2.796,2.787,4.819
		c-0.134,2.022-1.476,3.764-3.398,4.41c-15.207,5.105-21.565,11.447-26.166,26.102C558.271,379.378,556.339,380.796,554.155,380.796
		L554.155,380.796z M536.062,345.836c8.453,4.295,14.033,9.466,18.12,16.902c4.154-7.54,9.762-12.854,17.842-16.961
		c-7.754-4.967-13.335-10.593-17.929-18.066C549.425,335.107,543.687,340.875,536.062,345.836L536.062,345.836z"/>
	<path fill="#97D3E0" d="M242.983,978.123c-0.003,0-0.007,0-0.01,0c-2.188-0.004-4.12-1.432-4.766-3.522
		c-4.411-14.255-10.553-20.359-26.29-26.128c-1.878-0.688-3.165-2.43-3.271-4.427c-0.107-1.998,0.987-3.866,2.781-4.751
		c13.53-6.673,21.106-14.234,27.022-26.968c0.82-1.765,2.59-2.893,4.535-2.893c0.007,0,0.014,0,0.021,0
		c1.953,0.008,3.723,1.152,4.531,2.93c5.987,13.167,12.799,19.961,26.996,26.926c1.82,0.893,2.921,2.796,2.787,4.819
		c-0.134,2.022-1.476,3.764-3.398,4.41c-15.207,5.105-21.565,11.447-26.166,26.102C247.1,976.705,245.167,978.123,242.983,978.123
		L242.983,978.123z M224.891,943.163c8.453,4.295,14.033,9.466,18.12,16.902c4.154-7.54,9.762-12.854,17.842-16.961
		c-7.754-4.967-13.335-10.593-17.929-18.066C238.253,932.434,232.515,938.201,224.891,943.163L224.891,943.163z"/>
	<path fill="#97D3E0" d="M2463.569,1455.675c-0.003,0-0.007,0-0.01,0c-2.188-0.005-4.12-1.432-4.767-3.522
		c-4.411-14.254-10.553-20.358-26.288-26.128c-1.878-0.688-3.164-2.431-3.271-4.427c-0.106-1.998,0.987-3.866,2.781-4.752
		c13.529-6.674,21.104-14.234,27.021-26.968c0.819-1.765,2.589-2.894,4.534-2.894c0.007,0,0.014,0,0.021,0
		c1.953,0.008,3.723,1.152,4.531,2.93c5.986,13.165,12.798,19.958,26.996,26.927c1.819,0.893,2.92,2.797,2.786,4.818
		c-0.135,2.023-1.477,3.766-3.398,4.41c-15.207,5.104-21.564,11.447-26.165,26.102
		C2467.686,1454.257,2465.754,1455.675,2463.569,1455.675L2463.569,1455.675z M2445.478,1420.715
		c8.452,4.295,14.032,9.467,18.119,16.902c4.154-7.541,9.761-12.854,17.842-16.963c-7.756-4.968-13.336-10.592-17.929-18.064
		C2458.839,1409.986,2453.103,1415.753,2445.478,1420.715L2445.478,1420.715z"/>
	<polygon fill="#85577F" points="2111.165,1568.42 1884.308,1568.42 1884.308,1538.42 2111.165,1538.42 2111.165,1568.42 	"/>
	<polygon fill="#63295C" points="1965.803,1655.802 1810.364,1655.802 1810.364,1605.802 1965.803,1605.802 1965.803,1655.802 	"/>
	<polygon fill="#85577F" points="1263.308,1923.42 1233.308,1923.42 1233.308,1885.42 1263.308,1885.42 1263.308,1923.42 	"/>
	<polygon fill="#63295C" points="1447.267,1923.42 1437.267,1923.42 1437.267,1895.42 1447.267,1895.42 1447.267,1923.42 	"/>
	<polygon fill="#B3D600" points="1952.307,1118.674 1763.422,1118.674 1763.422,1088.674 1952.307,1088.674 1952.307,1118.674 	"/>
	<polygon fill="#B3D600" points="1055.227,477.672 1025.227,477.672 1025.227,341.42 1055.227,341.42 1055.227,477.672 	"/>
	<polygon fill="#CEEAF0" points="1322.776,696.814 1292.776,696.814 1292.776,673.853 1322.776,673.853 1322.776,696.814 	"/>
	<polygon fill="#63295C" points="1050.324,529.615 881.356,529.615 881.356,519.615 1050.324,519.615 1050.324,529.615 	"/>
	<polygon fill="#63295C" points="1256.248,1158.676 1016.833,1158.676 1016.833,1108.676 1256.248,1108.676 1256.248,1158.676 	"/>
	<polygon fill="#B3D600" points="1324.308,799.641 1139.397,799.641 1139.397,769.641 1324.308,769.641 1324.308,799.641 	"/>
	<polygon fill="#63295C" points="1475.308,874.9 1425.308,874.9 1425.308,844.42 1475.308,844.42 1475.308,874.9 	"/>
	<polygon fill="#63295C" points="1197.308,1413.42 1187.308,1413.42 1187.308,1373.42 1197.308,1373.42 1197.308,1413.42 	"/>
	<polygon fill="#85577F" points="899.213,862.644 764.612,862.644 764.612,832.644 899.213,832.644 899.213,862.644 	"/>
	<g>
		<polygon fill="#63295C" points="899.213,757.92 803.361,757.92 803.361,756.92 899.213,756.92 899.213,757.92 		"/>
		<polygon fill="#63295C" points="1176.308,354.056 997.723,354.056 997.723,353.056 1176.308,353.056 1176.308,354.056 		"/>
		<polygon fill="#63295C" points="1083.391,1393.92 734.308,1393.92 734.308,1392.92 1083.391,1392.92 1083.391,1393.92 		"/>
		<polygon fill="#63295C" points="2102.33,1165.29 1916.305,1165.29 1916.305,1164.29 2102.33,1164.29 2102.33,1165.29 		"/>
		<polygon fill="#63295C" points="1184.839,1260.42 1183.839,1260.42 1183.839,1127.292 1184.839,1127.292 1184.839,1260.42 		"/>
	</g>
	<rect x="1996.334" y="1352.919" fill="#B3D600" width="160.105" height="1"/>
	<g>
		<polygon fill="#85577F" points="1085.1,1794.597 1055.1,1794.597 1055.1,1664.189 1085.1,1664.189 1085.1,1794.597 		"/>
		<polygon fill="#CEEAF0" points="1012.723,1410.754 982.723,1410.754 982.723,1362.42 1012.723,1362.42 1012.723,1410.754 		"/>
		<polygon fill="#63295C" points="1824.652,477.672 1774.652,477.672 1774.652,405.42 1824.652,405.42 1824.652,477.672 		"/>
		<polygon fill="#63295C" points="912.308,680.42 803.361,680.42 803.361,630.42 912.308,630.42 912.308,680.42 		"/>
		<path fill="#CEEAF0" d="M1082.083,1238.287c-25.783,0-46.759-20.976-46.759-46.759V971.853c0-13.538-11.014-24.551-24.551-24.551
			H985.26c-30.08,0-54.551-24.472-54.551-54.551v-40.555c0-13.538-11.014-24.551-24.551-24.551h-65.85v-30h65.85
			c30.08,0,54.551,24.472,54.551,54.551v40.555c0,13.538,11.014,24.551,24.551,24.551h25.513c30.08,0,54.551,24.472,54.551,54.551
			v219.675c0,9.241,7.518,16.759,16.759,16.759s16.759-7.518,16.759-16.759v-98.356h30v98.356
			C1128.843,1217.311,1107.867,1238.287,1082.083,1238.287L1082.083,1238.287z"/>
		<path fill="#FFFFFF" d="M1436.268,1864.196c-18.335,0-36.969-0.497-55.883-1.492c-132.048-6.95-258.326-46.209-365.184-113.53
			c-111.393-70.178-196.119-166.951-245.018-279.854l367.053-158.972c36.85,85.083,143.013,146.532,264.173,152.91
			c105.461,5.549,177.004-15.059,201.127-37.945c3.792-3.599,11.684-11.085,11.684-40.741c0-9.534-1.718-12.257-2.972-14.245
			c-2.277-3.612-9.901-13.573-31.449-28.021c-54.263-36.386-145.086-67.494-225.217-94.941
			c-101.869-34.891-218.334-77.816-311.284-145.88c-57.939-42.426-103.447-92.212-135.261-147.973
			c-36.994-64.842-55.752-137.385-55.752-215.613c0-79.186,19.337-152.56,57.476-218.082
			c33.935-58.303,81.383-107.832,141.029-147.213c92.719-61.217,211.847-94.931,335.44-94.931
			c113.034,0,226.028,31.345,326.768,90.646c101.538,59.771,183.752,143.917,237.752,243.341l-351.5,190.912
			c-39.308-72.372-128.896-124.899-213.02-124.899c-44.116,0-88.199,11.011-115.046,28.737
			c-18.898,12.477-18.898,20.452-18.898,31.488c0,11.813,2.231,15.725,3.184,17.395c1.704,2.986,7.467,11.25,24.149,23.465
			c45.364,33.219,125.133,62.978,204.577,90.188c103.383,35.411,220.561,75.545,318.373,141.133
			c174.932,117.299,211.651,268.394,211.651,374.492c0,131.845-47.157,246.275-136.374,330.92
			c-62.801,59.583-143.898,101.946-241.041,125.916C1575.367,1856.566,1508.117,1864.196,1436.268,1864.196L1436.268,1864.196z"/>
		<polygon fill="#FFFFFF" points="1586.228,477.672 1186.228,477.672 1186.228,229.438 1586.228,229.438 1586.228,477.672 		"/>
		<polygon fill="#FFFFFF" points="1590.896,1910.214 1190.896,1910.214 1190.896,1662.98 1590.896,1662.98 1590.896,1910.214 		"/>
	</g>
	<path fill="#CEEAF0" d="M909.791,2009.764h-30v-268.793c0-13.537-11.014-24.551-24.551-24.551h-63.381
		c-30.08,0-54.551-24.472-54.551-54.551v-68.898c0-30.079,24.472-54.551,54.551-54.551h48.383c13.538,0,24.551-11.014,24.551-24.551
		v-164.898c0-30.08,24.472-54.551,54.551-54.551h38.827c30.08,0,54.551,24.472,54.551,54.551v13.449h-30v-13.449
		c0-13.538-11.014-24.551-24.551-24.551h-38.827c-13.538,0-24.551,11.014-24.551,24.551v164.898
		c0,30.079-24.472,54.551-54.551,54.551h-48.383c-13.538,0-24.551,11.014-24.551,24.551v68.898
		c0,13.537,11.014,24.551,24.551,24.551h63.381c30.08,0,54.551,24.472,54.551,54.551V2009.764L909.791,2009.764z"/>
	<path fill="#85577F" d="M1814.652,2009.764h-30v-287.48c0-13.538-11.014-24.552-24.551-24.552h-524.309
		c-30.08,0-54.551-24.472-54.551-54.552v-166.922c0-13.537-11.014-24.551-24.551-24.551h-154.92
		c-13.538,0-24.551,11.014-24.551,24.551v331.162c0,13.537,11.014,24.551,24.551,24.551h28.778
		c13.538,0,24.551-11.014,24.551-24.551v-12.823h30v12.823c0,30.079-24.472,54.551-54.551,54.551h-28.778
		c-30.08,0-54.551-24.472-54.551-54.551v-331.162c0-30.08,24.472-54.551,54.551-54.551h154.92c30.08,0,54.551,24.471,54.551,54.551
		v166.922c0,13.538,11.014,24.552,24.551,24.552h524.309c30.079,0,54.551,24.472,54.551,54.552V2009.764L1814.652,2009.764z"/>
	<path fill="#CEEAF0" d="M1412.238,763.86h-64.911c-30.08,0-54.551-24.472-54.551-54.551v-12.495h30v12.495
		c0,13.538,11.014,24.551,24.551,24.551h64.911c13.538,0,24.552-11.014,24.552-24.551v-241.93c0-30.08,24.472-54.551,54.552-54.551
		h59.947c30.079,0,54.551,24.472,54.551,54.551v37.909c0,13.538,11.014,24.551,24.551,24.551h325.251v30h-325.251
		c-30.079,0-54.551-24.472-54.551-54.551v-37.909c0-13.538-11.014-24.551-24.551-24.551h-59.947
		c-13.538,0-24.552,11.014-24.552,24.551v241.93C1466.79,739.389,1442.318,763.86,1412.238,763.86L1412.238,763.86z"/>
	<path fill="#63295C" d="M1993.321,2009.764h-10v-377.49c0-19.052-15.5-34.552-34.552-34.552H1824.1
		c-24.565,0-44.552-19.985-44.552-44.552v-151.199c0-19.052-15.5-34.551-34.552-34.551h-37.137
		c-24.565,0-44.552-19.985-44.552-44.551v-41.897c0-19.052-15.499-34.551-34.552-34.551h-374.96
		c-24.566,0-44.551-19.985-44.551-44.551v-421.68c0-19.052-15.5-34.551-34.551-34.551H857.778
		c-24.566,0-44.551-19.986-44.551-44.551V564.166c0-24.565,19.985-44.551,44.551-44.551h23.579v10h-23.579
		c-19.052,0-34.551,15.5-34.551,34.551v136.919c0,19.052,15.5,34.551,34.551,34.551h316.915c24.565,0,44.551,19.985,44.551,44.551
		v421.68c0,19.052,15.5,34.551,34.551,34.551h374.96c24.566,0,44.552,19.986,44.552,44.551v41.897
		c0,19.052,15.5,34.551,34.552,34.551h37.137c24.565,0,44.552,19.986,44.552,44.551v151.199c0,19.053,15.5,34.552,34.552,34.552
		h124.67c24.566,0,44.552,19.985,44.552,44.552V2009.764L1993.321,2009.764z"/>
	<path fill="#B3D600" d="M1038.308,2009.765h-30v-389.493c0-30.08,24.472-54.551,54.551-54.551h489.872
		c13.537,0,24.551-11.014,24.551-24.551v-175.923c0-30.08,24.472-54.551,54.551-54.551h352.924
		c13.538,0,24.552-11.014,24.552-24.551v-142.919c0-13.538-11.014-24.551-24.552-24.551h-32.449v-30h32.449
		c30.08,0,54.552,24.472,54.552,54.551v142.919c0,30.08-24.472,54.551-54.552,54.551h-352.924
		c-13.537,0-24.551,11.014-24.551,24.551v175.923c0,30.079-24.472,54.551-54.551,54.551h-489.872
		c-13.538,0-24.551,11.014-24.551,24.551V2009.765L1038.308,2009.765z"/>
	<path fill="#CEEAF0" d="M2062.78,1469.709h-393.161c-19.654,0-35.645-15.99-35.645-35.645c0-3.112-2.532-5.645-5.645-5.645h-54.841
		v-30h54.841c19.654,0,35.645,15.99,35.645,35.645c0,3.112,2.532,5.645,5.645,5.645h393.161c13.538,0,24.552-11.014,24.552-24.552
		v-172.923c0-13.538-11.014-24.551-24.552-24.551h-703.975c-30.08,0-54.552-24.472-54.552-54.551v-52.65
		c0-30.08,24.472-54.551,54.552-54.551h205.926c13.537,0,24.551-11.014,24.551-24.551v-29.77c0-13.538-11.014-24.551-24.551-24.551
		h-742.98c-30.08,0-54.551-24.472-54.551-54.551v-70.312c0-30.08,24.471-54.551,54.551-54.551h18.557v30h-18.557
		c-13.537,0-24.551,11.014-24.551,24.551v70.312c0,13.538,11.014,24.551,24.551,24.551h742.98c30.079,0,54.551,24.472,54.551,54.551
		v29.77c0,30.08-24.472,54.551-54.551,54.551h-205.926c-13.538,0-24.552,11.014-24.552,24.551v52.65
		c0,13.538,11.014,24.551,24.552,24.551h703.975c30.08,0,54.552,24.472,54.552,54.551v172.923
		C2117.332,1445.236,2092.86,1469.709,2062.78,1469.709L2062.78,1469.709z"/>
	<path fill="#B3D600" d="M1199.308,1222.42h-11.519c-30.08,0-54.551-24.472-54.551-54.551v-126.708
		c0-13.538-11.014-24.551-24.551-24.551H902.76c-30.08,0-54.551-24.472-54.551-54.551V918.7c0-30.08,24.472-54.551,54.551-54.551
		h441.652c13.538,0,24.551-11.014,24.551-24.551v-15.405c0-13.538-11.014-24.551-24.551-24.551h-20.105v-30h20.105
		c30.08,0,54.551,24.472,54.551,54.551v15.405c0,30.08-24.472,54.551-54.551,54.551H902.76c-13.538,0-24.551,11.014-24.551,24.551
		v43.358c0,13.538,11.014,24.551,24.551,24.551h205.926c30.08,0,54.551,24.472,54.551,54.551v126.708
		c0,13.538,11.014,24.551,24.551,24.551h11.519V1222.42L1199.308,1222.42z"/>
	<path fill="#B3D600" d="M2094.146,668.42h-484.502c-28.859,0-52.337-23.478-52.337-52.337v-22.628
		c0-12.317-10.021-22.337-22.337-22.337h-157.326c-28.859,0-52.337-23.479-52.337-52.337V171.914
		c0-12.317-10.02-22.337-22.337-22.337h-9.386c-12.316,0-22.337,10.02-22.337,22.337v186.352c0,28.859-23.478,52.337-52.337,52.337
		h-48.267c-28.859,0-52.337-23.478-52.337-52.337v-36.337c0-12.317-10.02-22.337-22.337-22.337h-18.407
		c-12.316,0-22.337,10.02-22.337,22.337v19.491h-30v-19.491c0-28.859,23.479-52.337,52.337-52.337h18.407
		c28.859,0,52.337,23.478,52.337,52.337v36.337c0,12.316,10.02,22.337,22.337,22.337h48.267c12.316,0,22.337-10.021,22.337-22.337
		V171.914c0-28.859,23.479-52.337,52.337-52.337h9.386c28.859,0,52.337,23.478,52.337,52.337v346.868
		c0,12.316,10.02,22.337,22.337,22.337h157.326c28.859,0,52.337,23.478,52.337,52.337v22.628c0,12.316,10.02,22.337,22.337,22.337
		h484.502V668.42L2094.146,668.42z"/>
	<path fill="#85577F" d="M1289.082,2003.885h-12.569c-23.823,0-43.205-19.382-43.205-43.205v-37.26h30v37.26
		c0,7.281,5.924,13.205,13.205,13.205h12.569c7.281,0,13.205-5.924,13.205-13.205v-73.055c0-23.823,19.382-43.205,43.205-43.205
		h184.61c7.281,0,13.205-5.924,13.205-13.205v-185.59c0-23.823,19.382-43.205,43.205-43.205h79.59
		c7.281,0,13.205-5.924,13.205-13.205v-53.59c0-23.823,19.382-43.205,43.205-43.205h379.556c23.462,0,42.549,19.087,42.549,42.549
		c0,18.445-15.007,33.451-33.452,33.451v-30c1.903,0,3.452-1.549,3.452-3.451c0-6.92-5.63-12.549-12.549-12.549h-379.556
		c-7.281,0-13.205,5.924-13.205,13.205v53.59c0,23.823-19.382,43.205-43.205,43.205h-79.59c-7.281,0-13.205,5.924-13.205,13.205
		v185.59c0,23.823-19.382,43.205-43.205,43.205h-184.61c-7.281,0-13.205,5.924-13.205,13.205v73.055
		C1332.287,1984.503,1312.905,2003.885,1289.082,2003.885L1289.082,2003.885z"/>
	<path fill="#63295C" d="M1919.308,2009.764h-50v-240.82c0-8.023-6.528-14.551-14.552-14.551h-203.448v8.167
		c0,26.034-21.181,47.215-47.215,47.215h-104.233c-35.595,0-64.552-28.958-64.552-64.552v-316.252
		c0-8.023-6.528-14.551-14.552-14.551h-26.897c-8.023,0-14.551,6.527-14.551,14.551v16.449h-50v-16.449
		c0-35.593,28.958-64.551,64.551-64.551h26.897c35.594,0,64.552,28.958,64.552,64.551v316.252c0,8.023,6.527,14.552,14.552,14.552
		h101.448v-8.167c0-26.034,21.181-47.215,47.215-47.215h206.233c35.594,0,64.552,28.957,64.552,64.551V2009.764L1919.308,2009.764z"
		/>
	<path fill="#63295C" d="M2017.776,1655.802h-51.974v-50h51.974c8.023,0,14.552-6.528,14.552-14.552v-162.279
		c0-8.023-6.528-14.551-14.552-14.551h-61.91c-35.594,0-64.552-28.958-64.552-64.551v-57.075c0-6.123-4.981-11.105-11.104-11.105
		h-17.8c-33.693,0-61.104-27.411-61.104-61.104V928.676c0-8.023-6.527-14.551-14.551-14.551h-45.893
		c-8.023,0-14.552,6.527-14.552,14.551v12.626h-50v-12.626c0-35.593,28.958-64.551,64.552-64.551h45.893
		c35.594,0,64.551,28.958,64.551,64.551v291.908c0,6.123,4.981,11.104,11.104,11.104h17.8c33.693,0,61.104,27.412,61.104,61.105
		v57.075c0,8.023,6.528,14.551,14.552,14.551h61.91c35.594,0,64.552,28.958,64.552,64.551v162.279
		C2082.328,1626.844,2053.37,1655.802,2017.776,1655.802L2017.776,1655.802z"/>
	<path fill="#63295C" d="M1016.833,1158.676H938.58c-35.492,0-64.367-28.875-64.367-64.367v-2.274
		c0-35.492,28.875-64.367,64.367-64.367h278.301c7.922,0,14.367-6.445,14.367-14.367v-11.876c0-35.492,28.875-64.367,64.367-64.367
		h81.325c35.492,0,64.367,28.875,64.367,64.367v82.628c0,7.922,6.445,14.367,14.367,14.367h41.266
		c7.922,0,14.367-6.445,14.367-14.367V833.787c0-7.922-6.445-14.367-14.367-14.367h-7.266c-7.922,0-14.367,6.445-14.367,14.367
		v10.633h-50v-10.633c0-35.492,28.875-64.367,64.367-64.367h7.266c35.492,0,64.367,28.875,64.367,64.367v250.266
		c0,35.492-28.875,64.367-64.367,64.367h-41.266c-35.492,0-64.367-28.875-64.367-64.367v-82.628c0-7.922-6.445-14.367-14.367-14.367
		h-81.325c-7.922,0-14.367,6.445-14.367,14.367v11.876c0,35.492-28.875,64.367-64.367,64.367H938.58
		c-7.922,0-14.367,6.445-14.367,14.367v2.274c0,7.922,6.445,14.367,14.367,14.367h78.253V1158.676L1016.833,1158.676z"/>
	<path fill="#63295C" d="M1131.822,702.42h-37.029c-30.595,0-55.485-24.891-55.485-55.485v-37.029c0-3.024-2.46-5.485-5.485-5.485
		H776.659c-3.025,0-5.485,2.461-5.485,5.485v15.029c0,3.024,2.46,5.485,5.485,5.485h26.702v50h-26.702
		c-30.595,0-55.485-24.891-55.485-55.485v-15.029c0-30.595,24.891-55.485,55.485-55.485h257.163
		c30.595,0,55.485,24.891,55.485,55.485v37.029c0,3.024,2.461,5.485,5.485,5.485h37.029c3.025,0,5.485-2.461,5.485-5.485V508.157
		c0-30.595,24.891-55.485,55.485-55.485h171.029c3.025,0,5.485-2.461,5.485-5.485V187.905c0-30.595,24.891-55.485,55.485-55.485
		h59.029c30.595,0,55.485,24.891,55.485,55.485V323.07c0,3.025,2.461,5.485,5.485,5.485h224.374
		c30.595,0,55.485,24.891,55.485,55.485v21.379h-50v-21.379c0-3.024-2.461-5.485-5.485-5.485h-224.374
		c-30.595,0-55.485-24.891-55.485-55.485V187.905c0-3.024-2.46-5.485-5.485-5.485h-59.029c-3.024,0-5.485,2.461-5.485,5.485v259.281
		c0,30.595-24.891,55.485-55.485,55.485h-171.029c-3.024,0-5.485,2.46-5.485,5.485v138.777
		C1187.308,677.529,1162.417,702.42,1131.822,702.42L1131.822,702.42z"/>
	<path fill="#63295C" d="M1401.287,2085.506c-25.353,0-45.979-20.626-45.979-45.979v-378.225c0-14.061-11.439-25.5-25.5-25.5
		s-25.5,11.439-25.5,25.5v50.118c0,17.645-14.355,32-32,32s-32-14.355-32-32v-351.5c0-11.855-9.645-21.5-21.5-21.5
		s-21.5,9.645-21.5,21.5v13.5h-10v-13.5c0-17.369,14.131-31.5,31.5-31.5s31.5,14.131,31.5,31.5v351.5c0,12.131,9.869,22,22,22
		s22-9.869,22-22v-50.118c0-19.575,15.925-35.5,35.5-35.5s35.5,15.925,35.5,35.5v378.225c0,19.839,16.141,35.979,35.979,35.979
		s35.979-16.141,35.979-35.979V1923.42h10v116.106C1447.267,2064.88,1426.64,2085.506,1401.287,2085.506L1401.287,2085.506z"/>
	<path fill="#63295C" d="M1469.715,642.42h-179.356c-24.565,0-44.551-19.986-44.551-44.551v-14.897
		c0-19.052-15.5-34.551-34.551-34.551h-91.397c-24.565,0-44.551-19.986-44.551-44.551v-46.897c0-19.052-15.5-34.551-34.551-34.551
		h-124.4c-16.542,0-30,13.458-30,30s13.458,30,30,30h5.951v10h-5.951c-22.056,0-40-17.944-40-40s17.944-40,40-40h124.4
		c24.565,0,44.551,19.986,44.551,44.551v46.897c0,19.052,15.5,34.551,34.551,34.551h91.397c24.565,0,44.551,19.986,44.551,44.551
		v14.897c0,19.052,15.5,34.551,34.551,34.551h179.356c19.053,0,34.552-15.5,34.552-34.551v-62.314
		c0-24.566,19.985-44.551,44.552-44.551h77.604c24.566,0,44.552,19.985,44.552,44.551v22.314c0,19.052,15.5,34.551,34.552,34.551
		h292.211v10h-292.211c-24.566,0-44.552-19.986-44.552-44.551v-22.314c0-19.052-15.5-34.551-34.552-34.551h-77.604
		c-19.053,0-34.552,15.5-34.552,34.551v62.314C1514.267,622.434,1494.281,642.42,1469.715,642.42L1469.715,642.42z"/>
	<polygon fill="#63295C" points="1879.319,706.944 1984.065,767.42 1879.319,827.896 	"/>
	<polygon fill="#6BBF00" points="2077.564,611.882 2152.975,655.42 2077.564,698.958 	"/>
	<polygon fill="#FFFFFF" points="1988.321,576.207 2025.063,597.42 1988.321,618.633 	"/>
	<polygon fill="#CEEAF0" points="1943.496,514.293 1996.404,544.84 1943.496,575.387 	"/>
	<path fill="#85577F" d="M1923.059,1020.798h-217.533c-30.08,0-54.552-24.472-54.552-54.551V871.33c0-6.567-5.343-11.91-11.91-11.91
		s-11.91,5.343-11.91,11.91v17.794h-30V871.33c0-23.109,18.801-41.91,41.91-41.91s41.91,18.801,41.91,41.91v94.917
		c0,13.538,11.014,24.551,24.552,24.551h63.786v-3.946c0-30.08,24.472-54.551,54.552-54.551h99.195
		c24.398,0,44.248,19.85,44.248,44.249S1947.457,1020.798,1923.059,1020.798L1923.059,1020.798z M1799.312,990.798h123.747
		c7.856,0,14.248-6.392,14.248-14.249s-6.392-14.249-14.248-14.249h-99.195c-13.538,0-24.552,11.014-24.552,24.551V990.798
		L1799.312,990.798z"/>
	<path fill="#85577F" d="M1449.308,1332.42c-22.056,0-40-17.944-40-40v-13h30v13c0,5.514,4.485,10,10,10s10-4.486,10-10v-225.011
		c0-13.538-11.014-24.551-24.552-24.551h-77.917c-30.08,0-54.551-24.472-54.551-54.551v-38.042
		c0-13.538-11.014-24.551-24.551-24.551h-214.877c-30.08,0-54.551-24.472-54.551-54.551v-53.967
		c0-13.538-11.014-24.551-24.551-24.551H758.661c-11.028,0-20,8.972-20,20c0,11.028,8.972,20,20,20h5.951v30h-5.951
		c-27.57,0-50-22.43-50-50c0-27.57,22.43-50,50-50h225.095c30.08,0,54.551,24.472,54.551,54.551v53.967
		c0,13.538,11.014,24.551,24.551,24.551h214.877c30.08,0,54.551,24.472,54.551,54.551v38.042c0,13.538,11.014,24.551,24.551,24.551
		h77.917c30.08,0,54.552,24.472,54.552,54.551v225.011C1489.308,1314.476,1471.363,1332.42,1449.308,1332.42L1449.308,1332.42z"/>
	<polygon fill="#B3D600" points="1746.549,2009.764 1745.549,2009.764 1745.549,1903.92 2075.808,1903.92 2075.808,1766.92 
		2172.731,1766.92 2172.731,1663.48 1732.808,1663.48 1732.808,1825.92 1123.087,1825.92 1123.087,1519.92 689.808,1519.92 
		689.808,1392.92 734.308,1392.92 734.308,1393.92 690.808,1393.92 690.808,1518.92 1124.087,1518.92 1124.087,1824.92 
		1731.808,1824.92 1731.808,1662.48 2173.731,1662.48 2173.731,1767.92 2076.808,1767.92 2076.808,1904.92 1746.549,1904.92 
		1746.549,2009.764 	"/>
	<path fill="#B3D600" d="M2200.808,1353.92h-44.375v-1h43.375v-85.23h-476v-121.77h-283.762v134h-167.633v-135h166.633V844.144
		H1130.9V692.92H752.808v64h50.554v1h-51.554v-66H1131.9v151.224h308.146v301.776h283.762v-74.489h68.039v75.489h-67.039v120.77h476
		V1353.92L2200.808,1353.92z M1273.413,1278.919h165.633v-133h-165.633V1278.919L1273.413,1278.919z M1724.808,1144.92h66.039
		v-73.489h-66.039V1144.92L1724.808,1144.92z"/>
	<polygon fill="#B3D600" points="1969.95,394.498 1441.767,394.498 1441.767,293.92 954.209,293.92 954.209,353.056 
		997.723,353.056 997.723,354.056 953.209,354.056 953.209,292.92 1442.767,292.92 1442.767,393.498 1969.95,393.498 
		1969.95,394.498 	"/>
	<polygon fill="#63295C" points="782.7,2009.764 781.7,2009.764 781.7,1903.92 1098.484,1903.92 1098.484,1630.302 
		1402.774,1630.302 1402.774,1506.92 1642.808,1506.92 1642.808,1556.219 1857.364,1556.219 1857.364,1426.777 2143.808,1426.777 
		2143.808,1165.29 2102.33,1165.29 2102.33,1164.29 2144.808,1164.29 2144.808,1427.777 1858.364,1427.777 1858.364,1557.219 
		1641.808,1557.219 1641.808,1507.92 1403.774,1507.92 1403.774,1631.302 1099.484,1631.302 1099.484,1904.92 782.7,1904.92 
		782.7,2009.764 	"/>
	<polygon fill="#63295C" points="1184.339,1260.92 1082.891,1260.92 1082.891,932.802 953.209,932.802 953.209,820.807 
		1167.34,820.807 1167.34,673.353 1231.353,673.353 1231.353,427.328 1291.333,427.328 1291.333,587.844 1403.774,587.844 
		1403.774,660.315 1546.32,660.315 1546.32,706.444 1707.312,706.444 1707.312,508.253 2111.165,508.253 2111.165,509.253 
		1708.312,509.253 1708.312,707.444 1545.32,707.444 1545.32,661.315 1402.774,661.315 1402.774,588.844 1290.333,588.844 
		1290.333,428.328 1232.353,428.328 1232.353,674.353 1168.34,674.353 1168.34,821.807 954.209,821.807 954.209,931.802 
		1083.891,931.802 1083.891,1259.92 1184.339,1259.92 1184.339,1260.92 	"/>
	<g>
		<circle fill="#63295C" cx="782.2" cy="1904.42" r="13"/>
		<circle fill="#63295C" cx="1098.984" cy="1904.42" r="13"/>
		<circle fill="#63295C" cx="1098.984" cy="1630.802" r="13"/>
		<circle fill="#63295C" cx="1403.274" cy="1630.802" r="13"/>
		<circle fill="#63295C" cx="1403.274" cy="1507.42" r="13"/>
		<circle fill="#63295C" cx="1642.308" cy="1507.42" r="13"/>
		<circle fill="#63295C" cx="1642.308" cy="1556.719" r="13"/>
		<circle fill="#63295C" cx="1857.864" cy="1556.719" r="13"/>
		<circle fill="#63295C" cx="1857.864" cy="1427.277" r="13"/>
		<circle fill="#63295C" cx="2144.308" cy="1427.277" r="13"/>
		<circle fill="#63295C" cx="2144.308" cy="1164.79" r="13"/>
		<circle fill="#63295C" cx="1184.339" cy="1260.42" r="13"/>
		<circle fill="#63295C" cx="1083.391" cy="1260.42" r="13"/>
		<circle fill="#63295C" cx="1083.391" cy="932.302" r="13"/>
		<circle fill="#63295C" cx="953.709" cy="932.302" r="13"/>
		<circle fill="#63295C" cx="953.709" cy="821.307" r="13"/>
		<circle fill="#63295C" cx="1167.84" cy="821.307" r="13"/>
		<circle fill="#63295C" cx="1167.84" cy="673.853" r="13"/>
		<circle fill="#63295C" cx="1231.853" cy="673.853" r="13"/>
		<circle fill="#63295C" cx="1231.853" cy="427.828" r="13"/>
		<circle fill="#63295C" cx="1290.833" cy="427.828" r="13"/>
		<circle fill="#63295C" cx="1290.833" cy="588.344" r="13"/>
		<circle fill="#63295C" cx="1403.274" cy="588.344" r="13"/>
		<circle fill="#63295C" cx="1403.274" cy="660.815" r="13"/>
		<circle fill="#63295C" cx="1545.82" cy="660.815" r="13"/>
		<circle fill="#63295C" cx="1545.82" cy="706.944" r="13"/>
		<circle fill="#63295C" cx="1707.812" cy="706.944" r="13"/>
		<circle fill="#63295C" cx="1707.812" cy="508.753" r="13"/>
	</g>
	<g>
		<g>
			<circle fill="#B3D600" cx="1746.049" cy="1904.42" r="13"/>
		</g>
		<g>
			<circle fill="#B3D600" cx="2076.308" cy="1904.42" r="13"/>
		</g>
		<g>
			<circle fill="#B3D600" cx="2076.308" cy="1767.42" r="13"/>
		</g>
		<g>
			<circle fill="#B3D600" cx="2173.231" cy="1767.42" r="13"/>
		</g>
		<g>
			<circle fill="#B3D600" cx="2173.231" cy="1662.98" r="13"/>
		</g>
		<g>
			<circle fill="#B3D600" cx="1732.308" cy="1662.98" r="13"/>
		</g>
		<g>
			<circle fill="#B3D600" cx="1732.308" cy="1825.42" r="13"/>
		</g>
		<g>
			<circle fill="#B3D600" cx="1123.587" cy="1825.42" r="13"/>
		</g>
		<g>
			<circle fill="#B3D600" cx="1123.587" cy="1519.42" r="13"/>
		</g>
		<g>
			<circle fill="#B3D600" cx="690.308" cy="1519.42" r="13"/>
		</g>
		<g>
			<circle fill="#B3D600" cx="690.308" cy="1393.42" r="13"/>
		</g>
		<g>
			<circle fill="#B3D600" cx="1272.913" cy="1279.419" r="13"/>
		</g>
		<g>
			<circle fill="#B3D600" cx="1272.913" cy="1145.42" r="13"/>
		</g>
		<g>
			<circle fill="#B3D600" cx="1439.546" cy="843.644" r="13"/>
		</g>
		<g>
			<circle fill="#B3D600" cx="1131.4" cy="843.644" r="13"/>
		</g>
		<g>
			<circle fill="#B3D600" cx="1131.4" cy="692.42" r="13"/>
		</g>
		<g>
			<circle fill="#B3D600" cx="752.308" cy="692.42" r="13"/>
		</g>
		<g>
			<circle fill="#B3D600" cx="953.709" cy="353.556" r="13"/>
		</g>
		<g>
			<circle fill="#B3D600" cx="953.709" cy="293.42" r="13"/>
		</g>
		<g>
			<circle fill="#B3D600" cx="1442.267" cy="293.42" r="13"/>
		</g>
		<g>
			<circle fill="#B3D600" cx="1442.267" cy="393.998" r="13"/>
		</g>
		<g>
			<circle fill="#B3D600" cx="752.308" cy="757.42" r="13"/>
		</g>
		<g>
			<circle fill="#B3D600" cx="1439.546" cy="1279.419" r="13"/>
		</g>
		<g>
			<circle fill="#B3D600" cx="1791.347" cy="1145.42" r="13"/>
		</g>
		<g>
			<circle fill="#B3D600" cx="1791.347" cy="1070.931" r="13"/>
		</g>
		<g>
			<circle fill="#B3D600" cx="1724.308" cy="1070.931" r="13"/>
		</g>
		<g>
			<circle fill="#B3D600" cx="1724.308" cy="1267.189" r="13"/>
		</g>
		<g>
			<circle fill="#B3D600" cx="2200.308" cy="1267.189" r="13"/>
		</g>
		<g>
			<circle fill="#B3D600" cx="2200.308" cy="1353.42" r="13"/>
		</g>
	</g>
	<g>
		<path fill="#63295C" d="M986.749,430.772c-1.901-17.036-16.348-30.284-33.895-30.284c-4.271,0-8.358,0.786-12.127,2.219
			c-7.533-14.005-22.324-23.528-39.342-23.528c-22.941,0-41.836,17.306-44.354,39.577c-20.525,1.767-36.64,18.987-36.64,39.974
			c0,22.16,17.964,40.128,40.127,40.128h119.577c18.98,0,34.366-15.387,34.366-34.367
			C1014.463,447.79,1002.545,433.87,986.749,430.772z"/>
		<g>
			<path fill="#FFFFFF" d="M950.019,437.164c0-2.965-1.471-5.583-3.719-7.173L919.29,457c-0.515,0.514-1.188,0.772-1.862,0.772
				s-1.349-0.258-1.862-0.772l-27.009-27.009c-2.248,1.59-3.718,4.208-3.718,7.173v30.754c0,4.849,3.93,8.78,8.779,8.78h47.619
				c4.85,0,8.781-3.931,8.781-8.78V437.164z"/>
			<polygon fill="#FFFFFF" points="940.457,428.384 894.399,428.384 917.428,451.412 			"/>
		</g>
	</g>
	<g>
		<g>
			<g>
				<circle fill="#FFFFFF" cx="903.521" cy="1106.261" r="56.321"/>
			</g>
			<g>
				<circle fill="#FFFFFF" cx="815.666" cy="1155.678" r="12.928"/>
				<circle fill="#FFFFFF" cx="796.23" cy="1155.678" r="12.928"/>
				<circle fill="#FFFFFF" cx="774.031" cy="1152.728" r="24.574"/>
			</g>
			<rect x="774.032" y="1133.441" fill="#FFFFFF" width="182.682" height="43.861"/>
			<g>
				<circle fill="#FFFFFF" cx="805.409" cy="1129.084" r="29.178"/>
				<path fill="#FFFFFF" d="M819.118,1130.001c0,14.406,11.678,26.086,26.084,26.086c14.41,0,26.088-11.68,26.088-26.086
					c0-14.408-11.678-26.086-26.088-26.086C830.796,1103.915,819.118,1115.593,819.118,1130.001z"/>
				<circle fill="#FFFFFF" cx="956.713" cy="1133.441" r="43.86"/>
			</g>
		</g>
		<g>
			<path fill="#55B8CC" d="M872.911,1122.57c0.66,2.569,1.682,4.991,2.999,7.222l-6.497,10.952l5.422,5.422l10.953-6.498
				c2.229,1.318,4.653,2.34,7.222,3l3.148,12.333l7.669-0.003l3.149-12.329c2.569-0.661,4.993-1.682,7.221-3l10.952,6.498
				l5.424-5.423l-6.498-10.952c1.317-2.229,2.338-4.651,3-7.223l12.328-3.146l0.002-7.671l-12.33-3.147
				c-0.662-2.568-1.685-4.993-3-7.222l6.498-10.953l-5.424-5.423l-10.952,6.498c-2.228-1.317-4.653-2.338-7.221-3l-3.149-12.329
				h-7.668l-3.149,12.329c-2.568,0.663-4.994,1.684-7.222,3l-10.953-6.498l-5.422,5.423l6.497,10.954
				c-1.317,2.228-2.339,4.653-2.999,7.221l-12.332,3.147v7.671L872.911,1122.57z M899.992,1137.517
				c-12.112,0-21.931-9.818-21.931-21.931c0.002-12.112,9.818-21.931,21.931-21.929c12.114-0.002,21.932,9.817,21.932,21.929
				C921.924,1127.699,912.106,1137.517,899.992,1137.517z"/>
			<path fill="#C6E7EE" d="M825.886,1138.658c-0.141,1.689-0.033,3.363,0.29,4.983l-6.216,5.233l2.129,4.407l7.965-1.615
				c1.066,1.262,2.312,2.386,3.722,3.324l-0.694,8.092l4.623,1.609l4.484-6.767c1.688,0.14,3.363,0.033,4.982-0.292l5.234,6.216
				l4.406-2.129l-1.613-7.964c1.262-1.066,2.385-2.311,3.324-3.721l8.09,0.693l1.611-4.621l-6.768-4.488
				c0.14-1.685,0.033-3.361-0.293-4.979l6.217-5.237l-2.128-4.405l-7.966,1.615c-1.066-1.261-2.312-2.386-3.72-3.324l0.691-8.09
				l-4.62-1.611l-4.487,6.767c-1.687-0.142-3.362-0.035-4.98,0.292l-5.235-6.216l-4.406,2.129l1.615,7.964
				c-1.262,1.066-2.387,2.311-3.325,3.721l-8.091-0.694l-1.609,4.623L825.886,1138.658z M839.063,1153.354
				c-7.297-2.543-11.15-10.522-8.607-17.821c2.546-7.298,10.522-11.153,17.82-8.607c7.298,2.544,11.152,10.521,8.608,17.819
				C854.341,1152.044,846.362,1155.897,839.063,1153.354z"/>
		</g>
	</g>
	<path fill="#FFFFFF" d="M2020.748,1799.307c-2.117-18.986-18.218-33.75-37.771-33.75c-4.762,0-9.314,0.877-13.514,2.475
		c-8.396-15.609-24.879-26.221-43.844-26.221c-25.566,0-46.625,19.286-49.429,44.105c-22.876,1.97-40.834,21.16-40.834,44.549
		c0,24.697,20.021,44.721,44.72,44.721h133.261c21.151,0,38.299-17.148,38.299-38.301
		C2051.636,1818.271,2038.354,1802.758,2020.748,1799.307z"/>
	<g>
		<path fill="#55B8CC" d="M1943.496,1859.422c1.709,0,3.097-1.385,3.097-3.093v-15.784c0-1.709-1.388-3.094-3.097-3.094
			c-1.71,0-3.096,1.385-3.096,3.094v15.784C1940.4,1858.037,1941.786,1859.422,1943.496,1859.422L1943.496,1859.422z"/>
		<path fill="#55B8CC" d="M1909.17,1859.422h68.035c1.707,0,3.093-1.385,3.093-3.093c0-1.71-1.386-3.097-3.093-3.097h-68.035
			c-1.709,0-3.095,1.387-3.095,3.097C1906.075,1858.037,1907.461,1859.422,1909.17,1859.422L1909.17,1859.422z"/>
		<g>
			<path fill="#55B8CC" d="M1930.599,1864.912c-1.893,0-3.427-1.533-3.427-3.426v-10.317c0-1.892,1.534-3.427,3.427-3.427h25.794
				c1.893,0,3.427,1.535,3.427,3.427v10.317c0,1.893-1.534,3.426-3.427,3.426H1930.599L1930.599,1864.912z"/>
		</g>
		<g>
			<path fill="#55B8CC" d="M1913.297,1799.368h60.396c3.982,0,7.225-3.243,7.225-7.225s-3.242-7.222-7.225-7.222h-60.396
				c-3.982,0-7.222,3.24-7.222,7.222S1909.314,1799.368,1913.297,1799.368z M1973.363,1789.049c1.709,0,3.096,1.387,3.096,3.095
				c0,1.71-1.387,3.096-3.096,3.096c-1.71,0-3.096-1.386-3.096-3.096C1970.268,1790.436,1971.653,1789.049,1973.363,1789.049z
				 M1963.618,1789.049c1.71,0,3.096,1.387,3.096,3.095c0,1.71-1.386,3.096-3.096,3.096c-1.709,0-3.095-1.386-3.095-3.096
				C1960.523,1790.436,1961.909,1789.049,1963.618,1789.049z M1953.873,1789.049c1.709,0,3.096,1.387,3.096,3.095
				c0,1.71-1.387,3.096-3.096,3.096s-3.096-1.386-3.096-3.096C1950.777,1790.436,1952.164,1789.049,1953.873,1789.049z"/>
			<path fill="#55B8CC" d="M1973.693,1805.556h-60.396c-3.982,0-7.222,3.241-7.222,7.225c0,3.98,3.239,7.222,7.222,7.222h60.396
				c3.982,0,7.225-3.241,7.225-7.222C1980.918,1808.797,1977.676,1805.556,1973.693,1805.556z M1953.873,1815.875
				c-1.709,0-3.096-1.386-3.096-3.095c0-1.71,1.387-3.097,3.096-3.097s3.096,1.387,3.096,3.097
				C1956.969,1814.489,1955.582,1815.875,1953.873,1815.875z M1963.618,1815.875c-1.709,0-3.095-1.386-3.095-3.095
				c0-1.71,1.386-3.097,3.095-3.097c1.71,0,3.096,1.387,3.096,3.097C1966.714,1814.489,1965.328,1815.875,1963.618,1815.875z
				 M1973.363,1815.875c-1.71,0-3.096-1.386-3.096-3.095c0-1.71,1.386-3.097,3.096-3.097c1.709,0,3.096,1.387,3.096,3.097
				C1976.459,1814.489,1975.072,1815.875,1973.363,1815.875z"/>
			<path fill="#55B8CC" d="M1973.693,1826.191h-60.396c-3.982,0-7.222,3.241-7.222,7.226c0,3.981,3.239,7.22,7.222,7.22h60.396
				c3.982,0,7.225-3.238,7.225-7.22C1980.918,1829.433,1977.676,1826.191,1973.693,1826.191z M1953.873,1836.51
				c-1.709,0-3.096-1.386-3.096-3.093c0-1.712,1.387-3.098,3.096-3.098s3.096,1.386,3.096,3.098
				C1956.969,1835.124,1955.582,1836.51,1953.873,1836.51z M1963.618,1836.51c-1.709,0-3.095-1.386-3.095-3.093
				c0-1.712,1.386-3.098,3.095-3.098c1.71,0,3.096,1.386,3.096,3.098C1966.714,1835.124,1965.328,1836.51,1963.618,1836.51z
				 M1973.363,1836.51c-1.71,0-3.096-1.386-3.096-3.093c0-1.712,1.386-3.098,3.096-3.098c1.709,0,3.096,1.386,3.096,3.098
				C1976.459,1835.124,1975.072,1836.51,1973.363,1836.51z"/>
		</g>
	</g>
	<g>
		<g>
			<g>
				<g>
					<path fill="#84567E" d="M1155.975,1777.107c0,11.334,9.188,20.523,20.523,20.523h136.709c11.334,0,20.523-9.189,20.523-20.523
						v-12.31h-177.756V1777.107z"/>
					<path fill="#84567E" d="M1333.73,1494.342c0-11.334-9.189-20.523-20.523-20.523h-136.709c-11.335,0-20.523,9.189-20.523,20.523
						v7.504h177.756V1494.342z"/>
					<rect x="1155.975" y="1501.846" fill="#63295C" width="177.756" height="262.952"/>
				</g>
				<g>
					<rect x="1176.736" y="1518.552" fill="#FFFFFF" width="136.238" height="229.636"/>
				</g>
				<g>
					<rect x="1254.771" y="1518.552" fill="#DDF1F5" width="51.168" height="163.97"/>
				</g>
				<g>
					<rect x="1254.771" y="1685.021" fill="#DDF1F5" width="51.168" height="63.166"/>
				</g>
			</g>
			<g>
				<g>
					<polygon fill="#63295C" points="1263.511,1701.856 1264.726,1704.317 1267.442,1704.713 1265.477,1706.629 1265.939,1709.334 
						1263.511,1708.057 1261.081,1709.334 1261.544,1706.629 1259.579,1704.713 1262.296,1704.317 					"/>
				</g>
				<g>
					<polygon fill="#63295C" points="1271.743,1701.856 1272.958,1704.317 1275.674,1704.713 1273.709,1706.629 1274.173,1709.334 
						1271.743,1708.057 1269.313,1709.334 1269.776,1706.629 1267.812,1704.713 1270.527,1704.317 					"/>
				</g>
				<g>
					<polygon fill="#63295C" points="1279.976,1701.856 1281.19,1704.317 1283.906,1704.713 1281.941,1706.629 1282.404,1709.334 
						1279.976,1708.057 1277.546,1709.334 1278.01,1706.629 1276.044,1704.713 1278.761,1704.317 					"/>
				</g>
				<g>
					<polygon fill="#63295C" points="1288.207,1701.856 1289.423,1704.317 1292.139,1704.713 1290.174,1706.629 1290.637,1709.334 
						1288.207,1708.057 1285.777,1709.334 1286.242,1706.629 1284.276,1704.713 1286.992,1704.317 					"/>
				</g>
				<g>
					<polygon fill="#63295C" points="1296.44,1701.856 1297.655,1704.317 1300.371,1704.713 1298.406,1706.629 1298.87,1709.334 
						1296.44,1708.057 1294.01,1709.334 1294.475,1706.629 1292.508,1704.713 1295.225,1704.317 					"/>
				</g>
				<rect x="1268.625" y="1721.262" fill="#81CAD9" width="31.784" height="3.238"/>
				<rect x="1268.625" y="1713.609" fill="#81CAD9" width="31.784" height="3.238"/>
				<rect x="1259.621" y="1692.688" fill="#81CAD9" width="40.788" height="6.541"/>
				<path fill="#81CAD9" d="M1266.854,1713.114c-0.95-1.592-2.811,0.07-2.811,0.07s-1.86-1.662-2.812-0.07
					c-0.844,1.412,0.562,3.162,2.812,4.919C1266.292,1716.276,1267.697,1714.526,1266.854,1713.114z"/>
				<g>
					<path fill="#81CAD9" d="M1267.486,1723.525c0,0.775-0.629,1.405-1.405,1.405h-3.443c-0.777,0-1.406-0.63-1.406-1.405v-1.547
						c0-0.775,0.629-1.405,1.406-1.405h3.443c0.776,0,1.405,0.63,1.405,1.405V1723.525z"/>
					<polygon fill="#81CAD9" points="1262.777,1724.4 1262.075,1726.438 1264.359,1724.4 					"/>
				</g>
			</g>
			<g>
				<circle fill="#55B8CC" cx="1213.385" cy="1556.561" r="7.881"/>
				<circle fill="#55B8CC" cx="1230.583" cy="1556.561" r="7.881"/>
				<circle fill="#55B8CC" cx="1247.78" cy="1556.561" r="7.881"/>
				<circle fill="#55B8CC" cx="1264.978" cy="1556.561" r="7.88"/>
				<circle fill="#55B8CC" cx="1282.176" cy="1556.561" r="7.881"/>
				<circle fill="#55B8CC" cx="1299.373" cy="1556.561" r="7.881"/>
				<path fill="#55B8CC" d="M1324.451,1556.561c0,4.352-3.527,7.88-7.881,7.88c-4.352,0-7.881-3.528-7.881-7.88
					c0-4.354,3.529-7.881,7.881-7.881C1320.924,1548.68,1323.213,1552.32,1324.451,1556.561z"/>
				<circle fill="#55B8CC" cx="1196.188" cy="1556.561" r="7.881"/>
				<polygon fill="#80CAD9" points="1324.451,1556.561 1188.307,1556.561 1176.733,1518.552 1312.879,1518.552 				"/>
				<polygon fill="#CEEAF0" points="1222.702,1556.561 1221.266,1556.561 1209.693,1518.552 1211.129,1518.552 				"/>
				<polygon fill="#CEEAF0" points="1239.899,1556.561 1238.464,1556.561 1226.891,1518.552 1228.327,1518.552 				"/>
				<polygon fill="#55B8CC" points="1176.733,1518.552 1176.733,1556.561 1188.307,1556.561 				"/>
				<polygon fill="#CEEAF0" points="1205.504,1556.561 1204.068,1556.561 1192.495,1518.552 1193.932,1518.552 				"/>
				<polygon fill="#CEEAF0" points="1257.098,1556.561 1255.661,1556.561 1244.088,1518.552 1245.524,1518.552 				"/>
				<polygon fill="#CEEAF0" points="1274.295,1556.561 1272.858,1556.561 1261.286,1518.552 1262.723,1518.552 				"/>
				<polygon fill="#CEEAF0" points="1291.492,1556.561 1290.057,1556.561 1278.484,1518.552 1279.92,1518.552 				"/>
				<polygon fill="#CEEAF0" points="1308.689,1556.561 1307.254,1556.561 1295.682,1518.552 1297.117,1518.552 				"/>
			</g>
			<g>
				<rect x="1259.579" y="1583.77" fill="#81CAD9" width="34.259" height="9.043"/>
				<g>
					<rect x="1259.579" y="1608.152" fill="#81CAD9" width="40.86" height="3.63"/>
					<rect x="1259.579" y="1599.348" fill="#81CAD9" width="40.86" height="3.63"/>
					<rect x="1259.579" y="1616.957" fill="#81CAD9" width="40.86" height="3.631"/>
					<rect x="1259.579" y="1625.762" fill="#81CAD9" width="26.455" height="3.631"/>
				</g>
				<rect x="1259.579" y="1651.147" fill="#63295C" width="40.86" height="15.752"/>
				<g>
					<g>
						<path fill="#0094B3" d="M1267.391,1642.89c0,1.849-1.051,2.903-3.152,3.166v0.816h-1.406v-0.774
							c-1.051-0.084-1.863-0.479-2.435-1.182c-0.516-0.656-0.783-1.528-0.802-2.617h1.941c0.019,0.572,0.107,1.004,0.268,1.295
							c0.196,0.375,0.539,0.61,1.027,0.703v-3.039c-0.732-0.263-1.253-0.488-1.562-0.676c-0.956-0.581-1.435-1.36-1.435-2.336
							c0-0.957,0.375-1.73,1.125-2.321c0.544-0.423,1.168-0.681,1.872-0.774v-0.816h1.406v0.816
							c0.938,0.122,1.666,0.475,2.182,1.056c0.525,0.572,0.797,1.341,0.816,2.308h-1.942c-0.028-0.863-0.38-1.389-1.056-1.576v2.856
							c1.023,0.395,1.67,0.681,1.942,0.858C1266.987,1641.188,1267.391,1641.934,1267.391,1642.89z M1262.832,1636.966
							c-0.686,0.216-1.027,0.604-1.027,1.168c0,0.394,0.229,0.723,0.689,0.985c0.037,0.019,0.149,0.065,0.338,0.141V1636.966z
							 M1264.238,1644.283c0.808-0.197,1.21-0.647,1.21-1.351c0-0.385-0.159-0.69-0.478-0.915c-0.141-0.084-0.385-0.183-0.732-0.295
							V1644.283z"/>
					</g>
					<rect x="1270.294" y="1634.727" fill="#55B8CC" width="23.869" height="11.755"/>
				</g>
				<g>
					<path fill="#FFFFFF" d="M1273.205,1663.016h-2.971v-7.768h2.815c0.688,0,1.27,0.183,1.743,0.547
						c0.509,0.406,0.764,0.945,0.764,1.619c0,0.613-0.247,1.115-0.742,1.506c0.688,0.413,1.031,1.025,1.031,1.837
						c0,0.716-0.269,1.278-0.805,1.691C1274.553,1662.826,1273.94,1663.016,1273.205,1663.016z M1272.844,1656.518h-1.269v1.867
						h1.289c0.351,0,0.636-0.062,0.856-0.186c0.274-0.166,0.412-0.41,0.412-0.732
						C1274.133,1656.834,1273.703,1656.518,1272.844,1656.518z M1273.741,1659.767c-0.262-0.083-0.678-0.124-1.248-0.124h-0.918
						v2.104h1.31c0.475,0,0.829-0.062,1.062-0.187c0.323-0.164,0.485-0.46,0.485-0.887
						C1274.433,1660.221,1274.202,1659.918,1273.741,1659.767z"/>
					<path fill="#FFFFFF" d="M1279.734,1663.16c-0.942,0-1.688-0.265-2.238-0.795c-0.543-0.529-0.814-1.265-0.814-2.207v-4.91h1.361
						v4.982c0,0.51,0.154,0.908,0.464,1.197c0.31,0.288,0.719,0.433,1.228,0.433s0.918-0.145,1.228-0.433
						c0.303-0.289,0.454-0.688,0.454-1.197v-4.982h1.361v4.91c0,0.929-0.274,1.661-0.825,2.197
						C1281.402,1662.893,1280.663,1663.16,1279.734,1663.16z"/>
					<path fill="#FFFFFF" d="M1288.09,1659.715v3.301h-1.393v-3.301l-3.125-4.467h1.681l2.146,3.178l2.146-3.178h1.661
						L1288.09,1659.715z"/>
				</g>
			</g>
			<g>
				<rect x="1183.694" y="1599.393" fill="#B3D600" width="64.17" height="83.129"/>
				<rect x="1200.406" y="1621.041" fill="#FFFFFF" width="30.746" height="39.831"/>
				<polygon opacity="0.5" fill="#B3D600" points="1247.864,1682.521 1225.966,1682.521 1204.068,1599.393 1247.864,1599.393 				
					"/>
				<g>
					<rect x="1183.694" y="1685.021" fill="#55B8CC" width="14.034" height="14.033"/>
					<rect x="1200.406" y="1685.021" fill="#55B8CC" width="14.034" height="14.033"/>
					<rect x="1217.118" y="1685.021" fill="#55B8CC" width="14.034" height="14.033"/>
					<rect x="1233.83" y="1685.021" fill="#55B8CC" width="14.034" height="14.033"/>
				</g>
			</g>
			<g>
				<polygon fill="#48003F" points="1176.736,1593.968 1168.36,1588.291 1168.36,1572.548 1176.736,1578.224 				"/>
				<polygon fill="#84567E" points="1241.589,1580.42 1249.461,1572.548 1168.36,1572.548 1168.36,1588.291 1249.461,1588.291 				
					"/>
				<g>
					<path fill="#FFFFFF" d="M1179.298,1583.953c-0.733,0-1.3-0.218-1.699-0.652c-0.381-0.404-0.578-0.982-0.59-1.733h1.215
						c0.012,0.47,0.111,0.801,0.3,0.995c0.176,0.193,0.493,0.29,0.95,0.29c0.317,0,0.584-0.064,0.802-0.194
						c0.258-0.164,0.387-0.396,0.387-0.695c0-0.24-0.097-0.432-0.29-0.572c-0.111-0.064-0.32-0.143-0.625-0.237
						c-0.846-0.265-1.408-0.483-1.69-0.66c-0.599-0.364-0.897-0.851-0.897-1.462c0-0.604,0.234-1.091,0.704-1.461
						c0.428-0.334,0.953-0.502,1.575-0.502c0.716,0,1.276,0.174,1.682,0.52c0.429,0.376,0.648,0.913,0.66,1.611h-1.206
						c-0.023-0.687-0.382-1.029-1.074-1.029c-0.281,0-0.527,0.059-0.739,0.176c-0.252,0.146-0.378,0.352-0.378,0.615
						c0,0.247,0.146,0.453,0.439,0.617c0.041,0.023,0.291,0.12,0.749,0.29c0.845,0.317,1.364,0.54,1.558,0.669
						c0.505,0.334,0.757,0.801,0.757,1.4c0,0.721-0.261,1.25-0.783,1.584C1180.662,1583.809,1180.061,1583.953,1179.298,1583.953z"
						/>
					<path fill="#FFFFFF" d="M1187.863,1583.83l-0.73-1.646h-2.772l-0.723,1.646h-1.259l2.879-6.629h0.96l2.896,6.629H1187.863z
						 M1185.742,1578.9l-0.925,2.2h1.849L1185.742,1578.9z"/>
					<path fill="#FFFFFF" d="M1193.206,1583.83h-1.092l-2.553-6.629h1.276l1.822,4.85l1.831-4.85h1.268L1193.206,1583.83z"/>
					<path fill="#FFFFFF" d="M1196.429,1583.83v-6.629h4.982v1.1h-3.829v1.567h3.715v1.101h-3.715v1.761h3.961v1.101H1196.429z"/>
					<path fill="#FFFFFF" d="M1207.635,1583.953c-1.538,0-2.324-0.748-2.359-2.245h1.197c0.018,0.405,0.114,0.701,0.29,0.89
						c0.176,0.188,0.467,0.281,0.872,0.281c0.334,0,0.618-0.085,0.854-0.256c0.258-0.199,0.388-0.463,0.388-0.792
						s-0.145-0.575-0.432-0.739c-0.229-0.123-0.522-0.186-0.881-0.186c-0.082,0-0.252,0.016-0.51,0.045v-1.145
						c0.223,0.023,0.422,0.035,0.599,0.035c0.305,0,0.562-0.067,0.774-0.203c0.246-0.17,0.369-0.398,0.369-0.686
						s-0.123-0.505-0.369-0.652c-0.206-0.117-0.461-0.176-0.766-0.176c-0.394,0-0.669,0.08-0.828,0.238
						c-0.152,0.164-0.246,0.439-0.281,0.827h-1.162c0.029-1.414,0.76-2.122,2.191-2.122c0.663,0,1.212,0.145,1.646,0.432
						c0.493,0.335,0.739,0.822,0.739,1.461c0,0.57-0.252,1.033-0.757,1.392c0.569,0.388,0.854,0.907,0.854,1.558
						c0,0.641-0.252,1.15-0.757,1.532C1208.849,1583.782,1208.291,1583.953,1207.635,1583.953z"/>
					<path fill="#FFFFFF" d="M1213.418,1583.953c-0.893,0-1.55-0.37-1.973-1.109c-0.328-0.587-0.492-1.359-0.492-2.315
						c0-0.962,0.164-1.739,0.492-2.333c0.423-0.75,1.08-1.127,1.973-1.127c0.88,0,1.531,0.377,1.954,1.127
						c0.328,0.594,0.493,1.371,0.493,2.333c0,0.956-0.165,1.729-0.493,2.315C1214.949,1583.583,1214.298,1583.953,1213.418,1583.953
						z M1213.418,1578.1c-0.857,0-1.285,0.809-1.285,2.429c0,1.579,0.428,2.368,1.285,2.368c0.851,0,1.276-0.789,1.276-2.368
						C1214.694,1578.908,1214.269,1578.1,1213.418,1578.1z"/>
					<path fill="#FFFFFF" d="M1219.711,1578.583c0,0.505-0.135,0.913-0.404,1.224c-0.288,0.322-0.681,0.484-1.18,0.484
						c-0.493,0-0.88-0.158-1.162-0.476c-0.275-0.317-0.414-0.728-0.414-1.232c0-0.511,0.136-0.919,0.405-1.224
						c0.282-0.334,0.672-0.502,1.171-0.502s0.889,0.162,1.171,0.484C1219.573,1577.67,1219.711,1578.084,1219.711,1578.583z
						 M1222.863,1576.857l-4.552,7.368h-1.012l4.542-7.368H1222.863z M1218.849,1578.583c0-0.253-0.056-0.46-0.167-0.625
						c-0.123-0.194-0.306-0.29-0.546-0.29c-0.241,0-0.426,0.096-0.555,0.29c-0.105,0.165-0.158,0.372-0.158,0.625
						s0.053,0.458,0.158,0.616c0.129,0.188,0.313,0.282,0.555,0.282c0.24,0,0.423-0.095,0.546-0.282
						C1218.793,1579.041,1218.849,1578.836,1218.849,1578.583z M1223.594,1582.518c0,0.505-0.139,0.918-0.414,1.242
						c-0.275,0.316-0.663,0.475-1.162,0.475s-0.886-0.158-1.162-0.475c-0.275-0.324-0.413-0.737-0.413-1.242
						c0-0.51,0.138-0.924,0.413-1.24c0.271-0.317,0.657-0.477,1.162-0.477c0.493,0,0.884,0.165,1.171,0.494
						C1223.458,1581.605,1223.594,1582.014,1223.594,1582.518z M1222.73,1582.518c0-0.252-0.05-0.457-0.149-0.615
						c-0.129-0.194-0.313-0.291-0.555-0.291c-0.246,0-0.431,0.097-0.555,0.291c-0.105,0.158-0.158,0.363-0.158,0.615
						c0,0.253,0.056,0.458,0.167,0.617c0.124,0.193,0.306,0.29,0.546,0.29c0.234,0,0.417-0.097,0.546-0.29
						C1222.678,1582.976,1222.73,1582.771,1222.73,1582.518z"/>
				</g>
			</g>
		</g>
	</g>
	<g>
		<g>
			<g>
				<circle fill="#C6E7EE" cx="2069.417" cy="1040.575" r="73.047"/>
			</g>
			<g>
				<circle fill="#C6E7EE" cx="1918.919" cy="1101.768" r="29.564"/>
			</g>
			<rect x="1918.921" y="1078.565" fill="#C6E7EE" width="219.778" height="52.767"/>
			<g>
				<circle fill="#C6E7EE" cx="1967.872" cy="1062.121" r="46.305"/>
				<circle fill="#C6E7EE" cx="2138.699" cy="1078.565" r="52.768"/>
			</g>
		</g>
	</g>
	<g>
		<g>
			<path fill="#63295C" d="M2083.807,1025.797h-74.149c-1.363,0-2.469,1.105-2.469,2.468v55.193h79.088v-55.193
				C2086.276,1026.902,2085.172,1025.797,2083.807,1025.797z M2081.008,1078.189h-68.55v-47.124h68.55V1078.189z"/>
			<g>
				<g>
				</g>
			</g>
			<rect x="1987.577" y="1097.575" fill="#63295C" width="118.311" height="4.226"/>
			<path fill="#63295C" d="M2086.276,1083.458h-79.088l-19.611,14.117h118.311L2086.276,1083.458z M2006.218,1085.96h81.029v0.643
				h-81.029V1085.96z M2002.608,1088.783h88.248v0.643h-88.248V1088.783z M1998.999,1091.608h95.467v0.641h-95.467V1091.608z
				 M1995.39,1095.071v-0.64h102.688v0.64H1995.39z"/>
		</g>
	</g>
	<g>
		<path fill="#63295C" d="M2216.979,1615.904c-2.597-20.133-19.789-35.691-40.63-35.691c-22.631,0-40.979,18.347-40.979,40.979
			c0,17.64,0,31.489,0,35.803s-4.314,20.274-15.098,20.274s-18.548-5.177-21.999-15.098c1.726,15.528,17.254,38.822,53.921,38.822
			c49.174,0,65.135-36.234,65.135-55.214c0-4.524,0-8.642,0-12.159L2216.979,1615.904z"/>
		<polygon fill="#FFFFFF" points="2216.979,1615.904 2217.33,1633.621 2236.31,1623.781 		"/>
		<circle fill="#FFFFFF" cx="2192.311" cy="1621.192" r="6.902"/>
		<path fill="#FFFFFF" d="M2179.351,1649.861c-3.019,16.393-12.06,32.783-36.233,32.783c2.588-12.94,6.039-32.783,6.039-32.783
			s0.136,16.779,0.431,24.588C2161.234,1674.449,2173.742,1664.959,2179.351,1649.861z"/>
	</g>
	<g>
		<path fill="#63295C" d="M745.516,1526.436c0,1.336,1.083,2.419,2.418,2.419h273.809c1.335,0,2.418-1.083,2.418-2.419v-198.318
			c0-1.335-1.083-2.418-2.418-2.418H747.934c-1.335,0-2.418,1.083-2.418,2.418V1526.436z"/>
		<rect x="764.079" y="1344.263" fill="#FFFFFF" width="241.517" height="166.027"/>
		<g>
			<path fill="#B3D600" d="M875.556,1373.606c0,17.296-11.509,33.692-15.552,37.136h24.707c0,0,6.739-12.13,6.739-31.945
				C891.45,1367.273,875.556,1363.887,875.556,1373.606z"/>
			<path fill="#B3D600" d="M916.335,1435.457l8.07,0.004c4.17,0,7.558-3.315,7.556-7.487c0.001-4.173-3.382-7.485-7.556-7.484
				l-6.129-0.007c-0.554,0.002-1.002-0.518-1.002-1.07c0.001-0.552,0.449-1.068,1.002-1.069l2.932,0.001
				c4.172,0.002,7.559-3.533,7.559-7.706c-0.002-4.177-3.387-7.713-7.559-7.713c0,0-32.99,0-41.016,0
				c-8.027,0-16.115,4.722-20.188,7.817h-11.649v49.77h11.567c7.577,0,8.718,9.171,16.7,9.171h41.491
				c4.173-0.001,7.558-3.315,7.555-7.484c0.001-4.178-3.382-7.489-7.556-7.489l-4.906,0.001c-0.557-0.001-1.004-0.52-1-1.07
				c-0.004-0.555,0.445-1.07,0.998-1.07h8.167c4.169,0,7.554-3.313,7.556-7.485c0.002-4.173-3.385-7.488-7.557-7.488l-5.035-0.001
				c-0.555,0.002-1.003-0.517-1-1.067C915.333,1435.972,915.781,1435.457,916.335,1435.457z"/>
		</g>
	</g>
	<g>
		<path fill="#63295C" d="M1694.765,1273.147c0,1.678-1.36,3.038-3.038,3.038h-124.838c-1.678,0-3.038-1.36-3.038-3.038v-99.72
			c0-1.678,1.36-3.038,3.038-3.038h124.838c1.678,0,3.038,1.36,3.038,3.038V1273.147z"/>
		<rect x="1572.927" y="1194.907" fill="#FFFFFF" width="112.764" height="56.76"/>
		<g>
			<g>
				<rect x="1572.927" y="1179.863" fill="#FFFFFF" width="13.923" height="8.357"/>
				<rect x="1605.874" y="1179.863" fill="#FFFFFF" width="13.922" height="8.357"/>
				<rect x="1638.819" y="1179.863" fill="#FFFFFF" width="13.924" height="8.357"/>
				<rect x="1671.767" y="1179.863" fill="#FFFFFF" width="13.924" height="8.357"/>
			</g>
			<g>
				<rect x="1572.927" y="1258.354" fill="#FFFFFF" width="13.923" height="8.357"/>
				<rect x="1605.874" y="1258.354" fill="#FFFFFF" width="13.922" height="8.357"/>
				<rect x="1638.819" y="1258.354" fill="#FFFFFF" width="13.924" height="8.357"/>
				<rect x="1671.767" y="1258.354" fill="#FFFFFF" width="13.924" height="8.357"/>
			</g>
		</g>
		<path fill="#63295C" d="M1613.864,1209.176c0-1.085,0.579-2.088,1.519-2.631c0.94-0.542,2.099-0.542,3.039,0l24.44,14.112
			c0.939,0.542,1.519,1.545,1.519,2.631s-0.579,2.088-1.519,2.631l-24.44,14.111c-0.94,0.542-2.099,0.542-3.039,0
			c-0.939-0.543-1.519-1.546-1.519-2.631V1209.176z"/>
	</g>
</g>
</svg>
