<?xml version="1.0" encoding="UTF-8" standalone="no"?>
<!-- Created with Inkscape (http://www.inkscape.org/) -->

<svg
   xmlns:dc="http://purl.org/dc/elements/1.1/"
   xmlns:cc="http://creativecommons.org/ns#"
   xmlns:rdf="http://www.w3.org/1999/02/22-rdf-syntax-ns#"
   xmlns:svg="http://www.w3.org/2000/svg"
   xmlns="http://www.w3.org/2000/svg"
   xmlns:sodipodi="http://sodipodi.sourceforge.net/DTD/sodipodi-0.dtd"
   xmlns:inkscape="http://www.inkscape.org/namespaces/inkscape"
   id="svg3042"
   version="1.1"
   inkscape:version="0.48.2 r9819"
   width="370.49695"
   height="443.72815"
   xml:space="preserve"
   sodipodi:docname="hand-ok.svg"><metadata
     id="metadata3048"><rdf:RDF><cc:Work
         rdf:about=""><dc:format>image/svg+xml</dc:format><dc:type
           rdf:resource="http://purl.org/dc/dcmitype/StillImage" /></cc:Work></rdf:RDF></metadata><defs
     id="defs3046"><clipPath
       clipPathUnits="userSpaceOnUse"
       id="clipPath3058"><path
         d="m 0,841.89 595.276,0 L 595.276,0 0,0 0,841.89 z"
         id="path3060"
         inkscape:connector-curvature="0" /></clipPath><clipPath
       clipPathUnits="userSpaceOnUse"
       id="clipPath3070"><path
         d="m 0,841.89 595.276,0 L 595.276,0 0,0 0,841.89 z"
         id="path3072"
         inkscape:connector-curvature="0" /></clipPath><clipPath
       clipPathUnits="userSpaceOnUse"
       id="clipPath3146"><path
         d="m 0,841.89 595.276,0 L 595.276,0 0,0 0,841.89 z"
         id="path3148"
         inkscape:connector-curvature="0" /></clipPath><clipPath
       clipPathUnits="userSpaceOnUse"
       id="clipPath3158"><path
         d="m 0,841.89 595.276,0 L 595.276,0 0,0 0,841.89 z"
         id="path3160"
         inkscape:connector-curvature="0" /></clipPath></defs><sodipodi:namedview
     pagecolor="#ffffff"
     bordercolor="#666666"
     borderopacity="1"
     objecttolerance="10"
     gridtolerance="10"
     guidetolerance="10"
     inkscape:pageopacity="0"
     inkscape:pageshadow="2"
     inkscape:window-width="884"
     inkscape:window-height="739"
     id="namedview3044"
     showgrid="false"
     inkscape:zoom="0.66520394"
     inkscape:cx="38.067054"
     inkscape:cy="286.74162"
     inkscape:window-x="25"
     inkscape:window-y="21"
     inkscape:window-maximized="0"
     inkscape:current-layer="g3050"
     fit-margin-top="40"
     fit-margin-left="40"
     fit-margin-right="40"
     fit-margin-bottom="40"><inkscape:grid
       type="xygrid"
       id="grid3226"
       empspacing="5"
       visible="true"
       enabled="true"
       snapvisiblegridlinesonly="true" /></sodipodi:namedview><g
     id="g3050"
     inkscape:groupmode="layer"
     inkscape:label="Hand_with_finger_on_thumb"
     transform="matrix(1.25,0,0,-1.25,-192.63055,736.67616)"><g
       id="g3054"><g
         id="g3056"
         clip-path="url(#clipPath3058)"><g
           id="g3062"
           transform="translate(234.3374,438.29)"><path
             d="m 0,0 c -8.183,6.553 -18.123,10.975 -24.779,12.169 -1.531,0.277 -3.358,0.453 -5.256,0.381 0.259,0.138 0.511,0.281 0.741,0.435 0,0 3.601,3.021 8.367,5.099 4.767,2.085 9.718,6.237 9.718,6.237 0,0 2.405,-1.045 4.91,-1.05 2.496,-0.012 5.145,1.63 9.106,1.699 3.969,0.075 12.468,-0.465 12.468,-0.465 1.246,-2.401 4.061,-5.979 11.444,-9.751 7.38,-3.774 12.885,-4.342 14.694,-5.123 0,0 -0.6,-5.283 2.277,-10.538 2.877,-5.254 4.423,-6.638 4.922,-10.435 0.507,-3.795 -0.31,-8.307 -0.31,-8.307 l -0.022,-0.056 c -1.37,-0.844 -2.943,-2.051 -4.44,-3.305 -3.601,-3.02 -7.919,-4.726 -7.919,-4.726 -5.341,0.882 -13.626,6.197 -21.542,11.054 C 6.472,-11.823 8.183,-6.552 0,0 m 183.415,-138.18 c -9.581,9.59 -8.25,15.309 -12.513,19.02 -4.26,3.704 -11.077,6.805 -14.707,12.956 -2.751,4.663 -6.539,10.991 -10.527,22.597 -3.988,11.599 -1.865,16.836 -4.449,25.4 -2.584,8.563 -6.685,18.923 -10.256,30.488 -1.703,5.515 -3.162,10.522 -4.414,14.688 -0.396,4.053 2.499,18.878 1.181,29.352 -1.276,10.119 -5.555,17.574 -6.967,25.2 -0.861,4.623 -2.888,19.427 -5.261,20.886 0,0 -0.802,5.581 -1.464,7.758 -0.649,2.137 -1.659,4.186 -1.659,4.186 0,0 -1.17,1.92 -5.416,0.058 -2.969,-1.303 -4.232,-5.467 -4.663,-10.429 -0.428,-4.966 2.113,-18.912 2.113,-18.912 l -0.012,-0.03 c -2.615,5.388 -6.52,12.455 -8.277,15.832 -2.497,4.808 -4.617,9.16 -7.979,13.622 -3.357,4.462 -11.574,10.602 -13.051,12.812 -1.47,2.217 -8.131,11.911 -10.429,14.196 -2.304,2.286 -7.69,7.396 -7.69,7.396 0,0 -1.547,2.954 -3.187,5.532 -1.641,2.578 -2.907,3.515 -2.907,3.515 -3.211,1.828 -9.619,-3.593 -8.168,-10.806 1.455,-7.213 4.906,-15.43 7.886,-19.446 2.988,-4.014 3.779,-4.496 3.779,-4.496 l 0.491,-0.816 c -0.737,0.169 -1.468,0.348 -2.179,0.547 -6.514,1.82 -9.304,3.313 -14.461,6.264 -5.163,2.953 -11.709,4.36 -15.322,5.927 -3.618,1.568 -6.436,2.648 -11.777,3.532 -1.617,0.268 -2.64,0.33 -3.399,0.288 0,0 -4.147,2.553 -7.615,3.444 -3.469,0.89 -6.279,1.115 -6.279,1.115 0,0 -0.331,-0.225 -0.518,-0.412 -0.188,-0.188 -0.298,-0.343 -0.298,-0.343 0,0 -5.856,-0.433 -3.868,-9.88 1.308,-6.203 12.19,-13.157 17.043,-14.828 4.858,-1.678 9.449,-4.784 12.904,-5.715 0,0 1.127,-1.688 4.625,-3.625 3.501,-1.937 9.252,-4.499 11.751,-5.5 2.499,-1 5.25,-2.312 8.311,-3.562 3.063,-1.25 3.626,-1.5 5.313,-2.063 1.688,-0.562 1.929,-0.76 1.929,-0.76 0,0 0.134,-1.818 2.102,-5.052 1.969,-3.235 2.391,-4.828 2.766,-5.906 0.375,-1.079 1.828,-6.047 3.937,-9.704 2.11,-3.656 5.579,-8.953 5.579,-8.953 l 0.008,-0.085 C 64.09,27.92 62.84,28.761 61.778,29.611 57.105,33.35 53.112,35.37 47.877,37.495 42.645,39.62 40.723,41.452 28.749,47.504 16.774,53.551 9.344,49.618 2.13,48.164 -5.083,46.712 -17.37,44.409 -22.559,42.365 -27.738,40.314 -36.943,30.397 -36.943,30.397 l -0.103,-0.085 -10.43,-8.374 c 0,0 -0.321,-6.082 3.183,-8.89 2.445,-1.959 5.432,-2.344 7.017,-2.398 -1.129,-0.654 -2.17,-1.495 -3.05,-2.592 -3.526,-4.399 -2.228,-8.505 3.544,-14.013 5.765,-5.501 15.155,-12.576 18.548,-16.624 3.401,-4.049 7.104,-9.378 12.014,-15.224 4.905,-5.852 7.421,-15.242 12.324,-21.087 3.93,-4.681 8.607,-9.958 12.895,-12.961 l -0.272,-0.345 c 2.159,-3.939 13.312,-26.589 21.42,-33.968 8.108,-7.379 16.126,-10.997 35.686,-25.629 6.734,-5.038 35.142,-28.326 45.08,-39.389 l 11.943,14.212 23.057,3.976 27.502,14.814 z"
             style="fill:#ffffff;fill-opacity:1;fill-rule:evenodd;stroke:none"
             id="path3064"
             inkscape:connector-curvature="0" /></g></g></g><g
       id="g3066"><g
         id="g3068"
         clip-path="url(#clipPath3070)"><g
           id="g3074"
           transform="translate(282.5801,418.1133)"><path
             d="M 0,0 C 1.927,1.187 3.666,2.271 5.045,4.101 7.4,7.23 11.557,11.87 11.557,11.87"
             style="fill:none;stroke:#050301;stroke-width:0.75;stroke-linecap:butt;stroke-linejoin:miter;stroke-miterlimit:3.86400008;stroke-opacity:1;stroke-dasharray:none"
             id="path3076"
             inkscape:connector-curvature="0" /></g><g
           id="g3078"
           transform="translate(219.5898,467.9839)"><path
             d="M 0,0 C 0,0 2.425,-2.592 3.539,-5.373"
             style="fill:none;stroke:#050301;stroke-width:0.75;stroke-linecap:butt;stroke-linejoin:miter;stroke-miterlimit:3.86400008;stroke-opacity:1;stroke-dasharray:none"
             id="path3080"
             inkscape:connector-curvature="0" /></g><g
           id="g3082"
           transform="translate(331.6982,441.0244)"><path
             d="m 0,0 c 0,0 -3.771,4.496 -7.137,8.959 -3.36,4.468 -5.967,8.028 -10.854,9.291 -4.893,1.259 -12.914,4.882 -17.591,8.627 -4.673,3.738 -8.666,5.759 -13.902,7.884 -5.232,2.125 -7.155,3.957 -19.128,10.009 -11.975,6.046 -19.405,2.114 -26.618,0.66 -7.214,-1.452 -19.501,-3.755 -24.689,-5.8 -5.18,-2.05 -14.385,-11.967 -14.385,-11.967 l -0.103,-0.086 -10.429,-8.374 c 0,0 -0.322,-6.081 3.182,-8.89 3.503,-2.807 8.132,-2.382 8.132,-2.382 0,0 4.412,0.674 6.868,2.32 0,0 3.6,3.02 8.367,5.099 4.766,2.085 9.717,6.236 9.717,6.236 0,0 2.405,-1.044 4.91,-1.05 2.497,-0.012 5.144,1.631 9.106,1.699 3.969,0.076 12.469,-0.464 12.469,-0.464 1.245,-2.401 4.06,-5.979 11.443,-9.751 7.38,-3.774 12.885,-4.342 14.694,-5.124 0,0 -0.599,-5.283 2.277,-10.537 2.878,-5.255 4.423,-6.638 4.922,-10.435 0.507,-3.795 -0.31,-8.308 -0.31,-8.308 l -0.022,-0.055 c -1.37,-0.844 -2.943,-2.051 -4.44,-3.305 -3.601,-3.021 -7.919,-4.727 -7.919,-4.727"
             style="fill:none;stroke:#050301;stroke-width:1.5;stroke-linecap:butt;stroke-linejoin:miter;stroke-miterlimit:3.86400008;stroke-opacity:1;stroke-dasharray:none"
             id="path3084"
             inkscape:connector-curvature="0" /></g><g
           id="g3086"
           transform="translate(274.8433,448.6123)"><path
             d="M 0,0 C 1.81,-0.786 2.988,0.781 2.988,0.781"
             style="fill:none;stroke:#050301;stroke-width:0.75;stroke-linecap:butt;stroke-linejoin:miter;stroke-miterlimit:3.86400008;stroke-opacity:1;stroke-dasharray:none"
             id="path3088"
             inkscape:connector-curvature="0" /></g><g
           id="g3090"
           transform="translate(251.291,471.6396)"><path
             d="M 0,0 C 0,0 -2.649,-6.438 -1.396,-8.845"
             style="fill:none;stroke:#050301;stroke-width:0.75;stroke-linecap:butt;stroke-linejoin:miter;stroke-miterlimit:3.86400008;stroke-opacity:1;stroke-dasharray:none"
             id="path3092"
             inkscape:connector-curvature="0" /></g><g
           id="g3094"
           transform="translate(198.0381,468.8364)"><path
             d="m 0,0 c 0,0 -1.068,-2.613 -2.452,-4.164 -1.385,-1.545 -4.968,-4.358 -4.968,-4.358 0,0 -2.532,-0.402 -2.819,1.085"
             style="fill:none;stroke:#050301;stroke-width:0.75;stroke-linecap:butt;stroke-linejoin:miter;stroke-miterlimit:3.86400008;stroke-opacity:1;stroke-dasharray:none"
             id="path3096"
             inkscape:connector-curvature="0" /></g><g
           id="g3098"
           transform="translate(275.9971,448.2012)"><path
             d="m 0,0 c 0,0 0.977,-0.707 2.653,-0.649 1.671,0.062 2.498,-0.006 2.498,-0.006"
             style="fill:none;stroke:#050301;stroke-width:0.75;stroke-linecap:butt;stroke-linejoin:miter;stroke-miterlimit:3.86400008;stroke-opacity:1;stroke-dasharray:none"
             id="path3100"
             inkscape:connector-curvature="0" /></g><g
           id="g3102"
           transform="translate(355.25,267.1084)"><path
             d="m 0,0 c -9.938,11.063 -38.346,34.351 -45.08,39.389 -19.56,14.632 -27.578,18.25 -35.686,25.629 -8.108,7.378 -19.26,30.029 -21.42,33.967"
             style="fill:none;stroke:#050301;stroke-width:1.5;stroke-linecap:butt;stroke-linejoin:miter;stroke-miterlimit:3.86400008;stroke-opacity:1;stroke-dasharray:none"
             id="path3104"
             inkscape:connector-curvature="0" /></g><g
           id="g3106"
           transform="translate(252.6011,513.4922)"><path
             d="M 0,0 C 0,0 0.2,-1.297 1.206,-2.755"
             style="fill:none;stroke:#050301;stroke-width:0.75;stroke-linecap:butt;stroke-linejoin:miter;stroke-miterlimit:3.86400008;stroke-opacity:1;stroke-dasharray:none"
             id="path3108"
             inkscape:connector-curvature="0" /></g><g
           id="g3110"
           transform="translate(286.1523,499.3506)"><path
             d="M 0,0 C 0,0 -0.668,-2.577 -0.378,-4.347"
             style="fill:none;stroke:#050301;stroke-width:0.75;stroke-linecap:butt;stroke-linejoin:miter;stroke-miterlimit:3.86400008;stroke-opacity:1;stroke-dasharray:none"
             id="path3112"
             inkscape:connector-curvature="0" /></g><g
           id="g3114"
           transform="translate(417.752,300.1104)"><path
             d="m 0,0 c -9.58,9.59 -8.25,15.309 -12.513,19.02 -4.259,3.704 -11.077,6.804 -14.707,12.956 -2.751,4.663 -6.539,10.991 -10.526,22.596 -3.99,11.6 -1.866,16.837 -4.45,25.401 -2.581,8.563 -6.686,18.923 -10.254,30.488 -3.573,11.572 -6.088,20.96 -7.828,24.866 -1.749,3.898 -4.389,7.051 -8.357,14.069 -3.974,7.017 -9.406,11.658 -12.725,16.533 -3.331,4.876 -4.583,9.573 -9.386,16.66 -4.8,7.092 -10.387,14.667 -13.029,17.813 -2.647,3.153 -4.094,10.367 -8.321,14.484 -4.227,4.123 -12.123,4.398 -18.629,6.219 -6.513,1.821 -9.304,3.314 -14.461,6.265 -5.163,2.952 -11.709,4.359 -15.322,5.926 -3.617,1.568 -6.436,2.649 -11.777,3.533 -1.616,0.267 -2.64,0.33 -3.398,0.287 0,0 -4.147,2.554 -7.616,3.445 -3.469,0.89 -6.278,1.114 -6.278,1.114 0,0 -0.331,-0.224 -0.519,-0.411 -0.187,-0.188 -0.297,-0.343 -0.297,-0.343 0,0 -5.856,-0.434 -3.869,-9.88 1.308,-6.203 12.191,-13.158 17.044,-14.828 4.858,-1.678 9.447,-4.784 12.904,-5.715 0,0 1.126,-1.688 4.625,-3.625 3.5,-1.937 9.251,-4.499 11.75,-5.5 2.5,-1 5.25,-2.312 8.312,-3.562 3.063,-1.25 3.625,-1.5 5.313,-2.063 1.687,-0.562 1.929,-0.761 1.929,-0.761 0,0 0.133,-1.817 2.102,-5.051 1.969,-3.235 2.39,-4.829 2.765,-5.907 0.375,-1.078 1.829,-6.047 3.938,-9.703 2.109,-3.656 5.578,-8.953 5.578,-8.953"
             style="fill:none;stroke:#050301;stroke-width:1.5;stroke-linecap:butt;stroke-linejoin:miter;stroke-miterlimit:3.86400008;stroke-opacity:1;stroke-dasharray:none"
             id="path3116"
             inkscape:connector-curvature="0" /></g><g
           id="g3118"
           transform="translate(241.9297,537.0537)"><path
             d="m 0,0 c -1.627,-0.127 -2.014,-0.909 -4.847,-0.943 -4.175,-0.053 -10.327,2.256 -10.327,2.256 -0.109,1.083 0.231,1.85 0.604,2.352 0.389,0.522 0.815,0.754 0.815,0.754 0,0 7.264,-0.321 13.783,-4.434 L 0,0 z"
             style="fill:#ffffff;fill-opacity:1;fill-rule:nonzero;stroke:none"
             id="path3120"
             inkscape:connector-curvature="0" /></g><g
           id="g3122"
           transform="translate(241.9297,537.0537)"><path
             d="m 0,0 c -1.627,-0.127 -2.014,-0.909 -4.847,-0.943 -4.175,-0.053 -10.327,2.256 -10.327,2.256 -0.109,1.083 0.231,1.85 0.604,2.352 0.389,0.522 0.815,0.754 0.815,0.754 0,0 7.264,-0.321 13.783,-4.434 L 0,0 z"
             style="fill:none;stroke:#231f20;stroke-width:0.75;stroke-linecap:butt;stroke-linejoin:miter;stroke-miterlimit:4;stroke-opacity:1;stroke-dasharray:none"
             id="path3124"
             inkscape:connector-curvature="0" /></g><g
           id="g3126"
           transform="translate(291.3672,547.0918)"><path
             d="M 0,0 -3.037,-1.401 -9.077,5.8 c 0,0 0.452,3.504 2.79,3.297 C -4.633,8.953 0,0 0,0 z"
             style="fill:none;stroke:#050301;stroke-width:0.75;stroke-linecap:butt;stroke-linejoin:miter;stroke-miterlimit:3.86400008;stroke-opacity:1;stroke-dasharray:none"
             id="path3128"
             inkscape:connector-curvature="0" /></g><g
           id="g3130"
           transform="translate(288.7158,521.4854)"><path
             d="m 0,0 c 0,0 -0.792,0.481 -3.78,4.496 -2.979,4.015 -6.431,12.233 -7.885,19.445 -1.452,7.214 4.957,12.635 8.168,10.807 0,0 1.266,-0.937 2.906,-3.516 1.641,-2.578 3.188,-5.531 3.188,-5.531 0,0 5.386,-5.111 7.69,-7.396 2.297,-2.285 8.959,-11.979 10.43,-14.197 1.476,-2.209 9.691,-8.349 13.052,-12.811 3.36,-4.463 5.478,-8.815 7.977,-13.622 2.497,-4.8 9.347,-17.073 10.641,-21.351 1.292,-4.283 7.148,-26.951 7.148,-26.951"
             style="fill:none;stroke:#050301;stroke-width:1.5;stroke-linecap:butt;stroke-linejoin:miter;stroke-miterlimit:3.86400008;stroke-opacity:1;stroke-dasharray:none"
             id="path3132"
             inkscape:connector-curvature="0" /></g><g
           id="g3134"
           transform="translate(338.75,483.3584)"><path
             d="m 0,0 c 0,0 -2.543,13.945 -2.112,18.912 0.43,4.962 1.693,9.126 4.663,10.429 4.246,1.862 5.415,-0.058 5.415,-0.058 0,0 1.011,-2.05 1.661,-4.187 0.659,-2.176 1.463,-7.757 1.463,-7.757 2.372,-1.46 4.399,-16.264 5.261,-20.887 1.412,-7.626 5.689,-15.08 6.966,-25.199 1.336,-10.624 -1.667,-25.747 -1.169,-29.542"
             style="fill:none;stroke:#050301;stroke-width:1.5;stroke-linecap:butt;stroke-linejoin:miter;stroke-miterlimit:3.86400008;stroke-opacity:1;stroke-dasharray:none"
             id="path3136"
             inkscape:connector-curvature="0" /></g><g
           id="g3138"
           transform="translate(346.625,512.5928)"><path
             d="m 0,0 c 0,0 -3.281,-1.781 -1.901,-6.016 1.268,-3.887 1.395,-5.541 1.395,-5.541 0,0 1.115,-0.213 1.959,-0.302 0.844,-0.09 1.781,-0.047 1.781,-0.047"
             style="fill:none;stroke:#050301;stroke-width:0.75;stroke-linecap:butt;stroke-linejoin:miter;stroke-miterlimit:3.86400008;stroke-opacity:1;stroke-dasharray:none"
             id="path3140"
             inkscape:connector-curvature="0" /></g></g></g><g
       id="g3142"><g
         id="g3144"
         clip-path="url(#clipPath3146)"><g
           id="g3150"
           transform="translate(256.4521,364.6582)"><path
             d="m 0,0 c -5.024,2.106 -11.101,8.895 -16.011,14.742 -4.903,5.845 -7.419,15.235 -12.323,21.087 -4.91,5.846 -8.614,11.175 -12.015,15.224 -3.393,4.048 -12.782,11.123 -18.548,16.624 -5.771,5.508 -7.07,9.614 -3.543,14.012 3.945,4.922 11.032,4.928 15.546,4.112 6.656,-1.195 16.596,-5.616 24.779,-12.169 8.183,-6.552 6.472,-11.823 14.38,-16.682 7.915,-4.857 16.2,-10.172 21.541,-11.054 5.347,-0.885 11.1,-1.804 11.1,-1.804 L 0,0 z"
             style="fill:#ffffff;fill-opacity:1;fill-rule:evenodd;stroke:none"
             id="path3152"
             inkscape:connector-curvature="0" /></g></g></g><g
       id="g3154"><g
         id="g3156"
         clip-path="url(#clipPath3158)"><g
           id="g3162"
           transform="translate(197.6992,433.9951)"><path
             d="m 0,0 c 0,0 -3.102,2.665 -4.152,4.974 -0.736,1.625 -0.489,4.318 1.55,7.201 1.665,2.355 5.749,2.383 8.764,1.079 3.008,-1.302 5.122,-4.129 5.122,-4.129 0,0 3.617,-3.135 1.597,-4.835 C 10.853,2.59 5.68,-1.751 4.008,-1.814 2.337,-1.872 0,0 0,0 z"
             style="fill:none;stroke:#050301;stroke-width:0.75;stroke-linecap:butt;stroke-linejoin:miter;stroke-miterlimit:3.86400008;stroke-opacity:1;stroke-dasharray:none"
             id="path3164"
             inkscape:connector-curvature="0" /></g><g
           id="g3166"
           transform="translate(201.2822,433.2607)"><path
             d="M 0,0 C 0,0 1.27,2.601 3.239,3.68 5.208,4.754 8.125,5.96 8.125,5.96"
             style="fill:none;stroke:#050301;stroke-width:0.75;stroke-linecap:butt;stroke-linejoin:miter;stroke-miterlimit:3.86400008;stroke-opacity:1;stroke-dasharray:none"
             id="path3168"
             inkscape:connector-curvature="0" /></g><g
           id="g3170"
           transform="translate(228.4854,423.7959)"><path
             d="M 0,0 C 0,0 -6.616,0.58 -9.371,-7.098"
             style="fill:none;stroke:#050301;stroke-width:0.75;stroke-linecap:butt;stroke-linejoin:miter;stroke-miterlimit:3.86400008;stroke-opacity:1;stroke-dasharray:none"
             id="path3172"
             inkscape:connector-curvature="0" /></g><g
           id="g3174"
           transform="translate(230.6563,415.2686)"><path
             d="M 0,0 C 0,0 -1.516,-0.7 -3.699,-1.758 -5.87,-2.818 -7.545,-2.883 -7.545,-2.883"
             style="fill:none;stroke:#050301;stroke-width:0.75;stroke-linecap:butt;stroke-linejoin:miter;stroke-miterlimit:3.86400008;stroke-opacity:1;stroke-dasharray:none"
             id="path3176"
             inkscape:connector-curvature="0" /></g><g
           id="g3178"
           transform="translate(221.709,415.4297)"><path
             d="m 0,0 c 0,0 2.079,2.314 4.222,2.964 2.14,0.648 6.54,0.883 6.54,0.883"
             style="fill:none;stroke:#050301;stroke-width:0.75;stroke-linecap:butt;stroke-linejoin:miter;stroke-miterlimit:3.86400008;stroke-opacity:1;stroke-dasharray:none"
             id="path3180"
             inkscape:connector-curvature="0" /></g><g
           id="g3182"
           transform="translate(256.4521,364.6582)"><path
             d="m 0,0 c -5.024,2.106 -11.101,8.895 -16.011,14.742 -4.903,5.845 -7.419,15.235 -12.323,21.087 -4.91,5.846 -8.614,11.175 -12.015,15.224 -3.393,4.048 -12.782,11.123 -18.548,16.624 -5.771,5.508 -7.07,9.614 -3.543,14.012 3.945,4.922 11.032,4.928 15.546,4.112 6.656,-1.195 16.596,-5.616 24.779,-12.169 8.183,-6.552 6.472,-11.823 14.38,-16.682 7.915,-4.857 16.2,-10.172 21.541,-11.054 5.347,-0.885 11.1,-1.804 11.1,-1.804"
             style="fill:none;stroke:#050301;stroke-width:1.5;stroke-linecap:butt;stroke-linejoin:miter;stroke-miterlimit:3.86400008;stroke-opacity:1;stroke-dasharray:none"
             id="path3184"
             inkscape:connector-curvature="0" /></g></g></g></g></svg>