<?xml version="1.0" encoding="utf-8"?>
<!-- Generator: Adobe Illustrator 15.0.2, SVG Export Plug-In . SVG Version: 6.00 Build 0)  -->
<!DOCTYPE svg PUBLIC "-//W3C//DTD SVG 1.1//EN" "http://www.w3.org/Graphics/SVG/1.1/DTD/svg11.dtd">
<svg version="1.1" id="Layer_1" xmlns="http://www.w3.org/2000/svg" xmlns:xlink="http://www.w3.org/1999/xlink" x="0px" y="0px"
	 width="961.832px" height="646.31px" viewBox="0 0 961.832 646.31" enable-background="new 0 0 961.832 646.31"
	 xml:space="preserve">
<g>
	<defs>
		<rect id="SVGID_1_" width="961.832" height="646.31"/>
	</defs>
	<clipPath id="SVGID_2_">
		<use xlink:href="#SVGID_1_"  overflow="visible"/>
	</clipPath>
	
		<path clip-path="url(#SVGID_2_)" fill="none" stroke="#FFFFFF" stroke-width="2" stroke-linecap="round" stroke-linejoin="round" stroke-miterlimit="10" d="
		M677.532,82.269c-4.778,11.947-4.778,14.335,0,25.088c4.778,10.752,11.946,29.867,14.336,34.645
		c2.39,4.779,4.779,21.504,19.115,15.531"/>
	
		<path clip-path="url(#SVGID_2_)" fill="none" stroke="#FFFFFF" stroke-width="2" stroke-linecap="round" stroke-linejoin="round" stroke-miterlimit="10" d="
		M715.35,143.245c6.618-9.927,22.5-4.632,24.485,2.647c1.985,7.279,2.859,16.393-2.646,22.5c-4.387,4.866-6.668,6.261-8.966,10.588
		c-1.711,3.222-7.578,3.972-10.227,2.648"/>
	
		<path clip-path="url(#SVGID_2_)" fill="none" stroke="#FFFFFF" stroke-width="2" stroke-linecap="round" stroke-linejoin="round" stroke-miterlimit="10" d="
		M692.466,70.117c-13.185,3.309-23.773,11.912-28.405,15.221c-4.632,3.308-18.137,4.348-25.147,11.25
		c-5.134,5.053-8.892-1.84-17.136,0.522c-1.908,0.546-17.152,8.603-17.337,15.907c-0.185,7.304-17.806-9.15-7.88-26.356
		s33.087-35.735,38.382-38.382c5.294-2.648,27.717-16.544,39.006-17.206c11.288-0.663,36.314-9.266,67.147,13.897
		c30.833,23.162,41.422,44.337,42.084,54.926c0.662,10.588,3.307,25.809-3.31,45.662c-6.617,19.853-4.232,27.852-5.294,33.088
		c-0.948,4.678-2.646,11.25-5.294,17.206s-12.574,17.206-15.883,3.971s-1.985-17.206-9.265-26.471"/>
	
		<path clip-path="url(#SVGID_2_)" fill="none" stroke="#FFFFFF" stroke-width="2" stroke-linecap="round" stroke-linejoin="round" stroke-miterlimit="10" d="
		M661.792,239.707c-0.029,6.782,2.93,9.09,6.9,15.708c3.971,6.617,3.977,24.602,5.256,27.132c3.347,6.619,13.921,4.005,29.817-9.263
		c16.215-13.534,45.001-43.017,48.972-57.576c0.661-4.632,0.024-5.524,1.005-14.674"/>
	
		<path clip-path="url(#SVGID_2_)" fill="none" stroke="#FFFFFF" stroke-width="2" stroke-linecap="round" stroke-linejoin="round" stroke-miterlimit="10" d="
		M752.737,215.708c3.309,5.625,23.824,26.14,34.412,31.434c10.588,5.295,49.632,25.479,52.941,27.463
		c3.31,1.985,37.721,19.853,40.368,65.516c7.941,56.253-9.926,113.165-11.25,138.974c-2.646,19.854-3.971,71.472-3.971,80.075"/>
	
		<path clip-path="url(#SVGID_2_)" fill="none" stroke="#FFFFFF" stroke-width="2" stroke-linecap="round" stroke-linejoin="round" stroke-miterlimit="10" d="
		M671.924,267.338c-5.221,7.931-17.795,15.211-34.339,21.829c-16.544,6.617-13.897,5.956-21.177,27.132
		c-7.279,21.177-46.324,136.326-49.633,150.223c-8.601,21.176,1.324,9.927-91.526,45"/>
	
		<path clip-path="url(#SVGID_2_)" fill="none" stroke="#FFFFFF" stroke-width="2" stroke-linecap="round" stroke-linejoin="round" stroke-miterlimit="10" d="
		M666.271,273.516c-13.711,12.002-25.771,179.215-20.741,190.359c-3.309-5.955-17.868-114.488-16.626-117.135
		c1.242-2.647,13.899-15.883,13.899-15.883s-15.142-12.573-13.817-15.22s6.617-16.545,13.817-28.641"/>
	
		<path clip-path="url(#SVGID_2_)" fill="none" stroke="#FFFFFF" stroke-width="2" stroke-linecap="round" stroke-linejoin="round" stroke-miterlimit="10" d="
		M678.06,286.042c0,0-6.324,7.791-7.45,10.789c-0.634,1.687,5.45,10.187,4.95,10.687s-28.545,68.455-27.772,73.977"/>
	
		<path clip-path="url(#SVGID_2_)" fill="none" stroke="#FFFFFF" stroke-width="2" stroke-linecap="round" stroke-linejoin="round" stroke-miterlimit="10" d="
		M684.479,285.268c0,0,8.08,12.25,7.08,13.75s-7.16,8-7.08,9s-0.92,44-2.42,48"/>
	
		<path clip-path="url(#SVGID_2_)" fill="none" stroke="#FFFFFF" stroke-width="2" stroke-linecap="round" stroke-linejoin="round" stroke-miterlimit="10" d="
		M756.636,220.701c-0.576,7.067-7.834,17.765-22.576,35.567c-26.293,31.75-69,131.171-88.53,207.607
		c-1.144,9.59-1.715,17.636-1.47,28.144"/>
	
		<path clip-path="url(#SVGID_2_)" fill="none" stroke="#FFFFFF" stroke-width="2" stroke-linecap="round" stroke-linejoin="round" stroke-miterlimit="10" d="
		M776.047,239.389c2.013,8.879-2.487,21.379-10.487,30.879s-13,26.5-15.5,28s-31.5,14-31.5,16.5s10,25.5,8,27.5
		s-82.133,114.385-81.566,126.442"/>
	
		<path clip-path="url(#SVGID_2_)" fill="none" stroke="#FFFFFF" stroke-width="2" stroke-linecap="round" stroke-linejoin="round" stroke-miterlimit="10" d="
		M706.143,492.018c-48.543,1.932-197.348,13.961-201.971,19.504c15.53-3.594,15.027,59.865,0,57.554
		c5.777,4.045,63.858,8.669,100.985,7.513c0,0,88.273,0.36,119.479,0.181s31.782-1.913,59.521-38.897s63.86-85.521,70.502-101.129
		c9.029-21.218,35.543-72.811,20.322-122.306"/>
	
		<path clip-path="url(#SVGID_2_)" fill="none" stroke="#FFFFFF" stroke-width="2" stroke-linecap="round" stroke-linejoin="round" stroke-miterlimit="10" d="
		M779.249,328.676c-10.401,15.601-49.698,89.572-56.633,104.597s-16.628,53.57-35.764,59.725"/>
	
		<path clip-path="url(#SVGID_2_)" fill="none" stroke="#FFFFFF" stroke-width="2" stroke-linecap="round" stroke-linejoin="round" stroke-miterlimit="10" d="
		M607.036,368.695c-5.778,48.392-14.88,128.608-13.218,131.264"/>
	
		<path clip-path="url(#SVGID_2_)" fill="none" stroke="#FFFFFF" stroke-width="2" stroke-linecap="round" stroke-linejoin="round" stroke-miterlimit="10" d="
		M506.568,511.522c-7.025,0.626-12.227,0.049-13.96,1.204s-3.467,46.808-3.467,49.697s0.759,5.927,17.427,6.431"/>
	
		<path clip-path="url(#SVGID_2_)" fill="none" stroke="#FFFFFF" stroke-width="2" stroke-linecap="round" stroke-linejoin="round" stroke-miterlimit="10" d="
		M510.487,571c-13.217,4.261-23.011,7.627-25.903,6.759c-2.822-0.847-57.28-148.827-64.214-166.741
		c-6.935-17.914-18.493-24.271-35.251-25.427c-16.758-1.156-173.956,0.273-178.571,0c-8.665-0.514-43.34,7.804-30.049,47.678
		c13.292,39.874,47.007,113.465,56.637,131.76c11.56,21.963,12.714,24.849,46.231,27.159c33.517,2.312,161.232,1.739,172.212,2.316
		c10.979,0.577,25.429-4.625,18.495-23.117c-6.935-18.492-52.013-142.164-57.792-151.41c-5.779-9.247-6.357-20.804-43.341-21.382
		c-36.985-0.578-153.169,0.558-160.078,1.154c-10.804,0.933-36.984,0.577-33.072,31.243"/>
	
		<path clip-path="url(#SVGID_2_)" fill="none" stroke="#FFFFFF" stroke-width="2" stroke-linecap="round" stroke-linejoin="round" stroke-miterlimit="10" d="
		M537.104,574.31c-21.956,8.054-52.007,19.334-58.363,19.033c-3.651-0.173-8.667-1.153-9.824-4.622"/>
	
		<path clip-path="url(#SVGID_2_)" fill="none" stroke="#FFFFFF" stroke-width="2" stroke-linecap="round" stroke-linejoin="round" stroke-miterlimit="10" d="
		M491.477,519.085c-13.313,0-22.559-7.562-31.052-1.363"/>
	
		<path clip-path="url(#SVGID_2_)" fill="none" stroke="#FFFFFF" stroke-width="2" stroke-linecap="round" stroke-linejoin="round" stroke-miterlimit="10" d="
		M489.142,558.958c-6.355,0.578-10.565-1.156-12.795,0"/>
	
		<path clip-path="url(#SVGID_2_)" fill="none" stroke="#FFFFFF" stroke-width="2" stroke-linecap="round" stroke-linejoin="round" stroke-miterlimit="10" d="
		M451.816,494.94c39.06-16.888,38.475-17.056,44.546,8.744"/>
	
		<path clip-path="url(#SVGID_2_)" fill="none" stroke="#FFFFFF" stroke-width="2" stroke-linecap="round" stroke-linejoin="round" stroke-miterlimit="10" d="
		M327.083,264.765c0.351,4.122,1.623,12.239-5.844,17.109"/>
	
		<path clip-path="url(#SVGID_2_)" fill="none" stroke="#FFFFFF" stroke-width="2" stroke-linecap="round" stroke-linejoin="round" stroke-miterlimit="10" d="
		M327.037,273.319c13.683,8.556,69.854,42.647,85.763,50.115c15.909,7.468,16.236,8.119,32.469,38.963
		c16.234,30.844,37.619,116.263,42.004,120.744"/>
	
		<path clip-path="url(#SVGID_2_)" fill="none" stroke="#FFFFFF" stroke-width="2" stroke-linecap="round" stroke-linejoin="round" stroke-miterlimit="10" d="
		M235.334,237.749c5.68,17.039,1.893,34.078-31.238,53.01c-33.132,18.932-43.544,24.612-62.476,32.185
		c-18.933,7.573-16.094,5.68-33.132,51.118c-17.039,45.437-33.673,101.691-37.486,111.68"/>
	
		<path clip-path="url(#SVGID_2_)" fill="none" stroke="#FFFFFF" stroke-width="2" stroke-linecap="round" stroke-linejoin="round" stroke-miterlimit="10" d="
		M156.764,515.106c7.573,0,7.88-4.623,9.466-9.467c2.031-6.201,6.913-13.101-12.162-17.181c-19.076-4.08-38.352-6.932-63.567-5.317
		c-19.879,1.272-21.771-1.166-26.505,17.766c-4.733,18.932-10.412,34.078,10.413,25.559S129.312,511.32,156.764,515.106z"/>
	
		<path clip-path="url(#SVGID_2_)" fill="none" stroke="#FFFFFF" stroke-width="2" stroke-linecap="round" stroke-linejoin="round" stroke-miterlimit="10" d="
		M180.755,445.342c-3.996,10.223-13.764,45.618-14.237,48.375"/>
	
		<path clip-path="url(#SVGID_2_)" fill="none" stroke="#FFFFFF" stroke-width="2" stroke-linecap="round" stroke-linejoin="round" stroke-miterlimit="10" d="
		M156.764,515.106c11.555,2.147,22.269,12.835,33.308,12.835h25.384"/>
	
		<path clip-path="url(#SVGID_2_)" fill="none" stroke="#FFFFFF" stroke-width="2" stroke-linecap="round" stroke-linejoin="round" stroke-miterlimit="10" d="
		M64.43,528.897c-5.844,17.908-8.116,32.194-2.597,39.986s13.312,9.415,24.675,10.39c11.363,0.975,62.015,3.245,80.521,0
		c18.506-3.245,37.016-2.922,41.561-3.246c4.546-0.324,28.006-1.995,29.587-1.646"/>
	
		<path clip-path="url(#SVGID_2_)" fill="none" stroke="#FFFFFF" stroke-width="2" stroke-linecap="round" stroke-linejoin="round" stroke-miterlimit="10" d="
		M236.874,256.122c3.714,69.563,62.005,57.654,69.526,117.826"/>
	
		<path clip-path="url(#SVGID_2_)" fill="none" stroke="#FFFFFF" stroke-width="2" stroke-linecap="round" stroke-linejoin="round" stroke-miterlimit="10" d="
		M327.387,274.916c3.458,22.564-16.558,61.38-27.234,76.759"/>
	
		<path clip-path="url(#SVGID_2_)" fill="none" stroke="#FFFFFF" stroke-width="2" stroke-linecap="round" stroke-linejoin="round" stroke-miterlimit="10" d="
		M341.994,282.506c2.013,20.614-1.121,48.819-4.255,54.46c-2.507-2.506-20.205-17.271-21.125-15.241"/>
	
		<path clip-path="url(#SVGID_2_)" fill="none" stroke="#FFFFFF" stroke-width="2" stroke-linecap="round" stroke-linejoin="round" stroke-miterlimit="10" d="
		M273.697,321.435c-8.664,9.894-14.554,28.068-14.554,28.068c-15.422-14.416-34.891-40.277-37.692-70.594"/>
	
		<path clip-path="url(#SVGID_2_)" fill="none" stroke="#FFFFFF" stroke-width="2" stroke-linecap="round" stroke-linejoin="round" stroke-miterlimit="10" d="
		M248.11,174.004c-1.253-9.401-17.55-10.029-20.684,0c-3.133,10.029,4.479,22.564,9.448,26.325c4.968,3.761,7.475,7.522,8.102,8.775
		c0.627,1.254,7.522,3.761,10.029-1.88"/>
	
		<path clip-path="url(#SVGID_2_)" fill="none" stroke="#FFFFFF" stroke-width="2" stroke-linecap="round" stroke-linejoin="round" stroke-miterlimit="10" d="
		M255.005,184.66c6.268,8.148,10.655,11.282,18.176,10.029c-8.148-10.029-7.521-30.892,0-40.921
		c7.522-10.029,19.43-31.786,14.416-41.188c20.684-4.388,15.67,16.296,30.086,0c3.134,4.387,1.254,11.909,0,11.909
		c14.416-1.881,20.684-16.923,19.43-19.431c3.761,5.642,2.193,13.163,0.157,14.416c15.513,1.881,19.901-16.296,16.14-25.071
		c-3.761-8.775-18.804-15.669-22.565-18.177c-3.76-2.507-56.41-33.219-92.763-10.028c-36.354,23.191-41.715,50.878-38.861,80.855
		c2.507,26.325,15.67,47.009,20.057,58.918c10.655,17.55,9.493,39.487,17.596,28.205c8.102-11.282,3.608-20.057,3.975-21.31"/>
	
		<path clip-path="url(#SVGID_2_)" fill="none" stroke="#FFFFFF" stroke-width="2" stroke-linecap="round" stroke-linejoin="round" stroke-miterlimit="10" d="
		M353.998,106.865c5.009,5.68,9.728,15.145,10.862,22.585c1.11,7.283,1.311,15.505,0.951,23.087
		c-0.364,7.67-4.809,13.877-4.808,21.644c0.001,7.343,4.214,12.705,6.625,19.347c0.725,1.999,3.431,8.207,2.025,10.347
		c-1.755,2.673-6.463,1.617-7.688,5.9c-0.993,3.473,0.075,7.876-0.465,11.615c-0.565,3.913-0.787,6.621-1.449,10.039
		c-2.968,15.313,4.343,34.621-17.808,34.619c-15.618-0.001-29.506-7.738-44.25-11.036c-5.747-1.286-11.537-2.269-16.834-4.462
		c-14.062-5.823-21.643-13.133-23.087-28.271"/>
	
		<path clip-path="url(#SVGID_2_)" fill="none" stroke="#FFFFFF" stroke-width="2" stroke-linecap="round" stroke-linejoin="round" stroke-miterlimit="10" d="
		M604.308,113.878c-0.91,5.718-1.059,13.296,0.962,19.179c2.695,7.844,7.333,11.925,5.107,20.194
		c-1.68,6.243-4.743,13.394-6.316,19.78c-1.152,4.68-1.837,8.58,3.573,10.536c1.959,0.708,5.354,1.402,6.777,2.897
		c2.371,2.492,0.649,8.096,1.104,11.099c0.586,3.865,1.363,7.609,1.281,11.523c-0.066,3.107,0.598,7.531,1.352,10.629
		c1.614,6.637,3.537,11.783,8.596,16.544c11.809,11.113,43.618,0.727,62.286-7.496c12.668-5.58,16.684-11.455,21.953-23.445"/>
</g>
</svg>
