<?xml version="1.0" encoding="utf-8"?>
<!-- Generator: Adobe Illustrator 15.0.2, SVG Export Plug-In . SVG Version: 6.00 Build 0)  -->
<!DOCTYPE svg PUBLIC "-//W3C//DTD SVG 1.1//EN" "http://www.w3.org/Graphics/SVG/1.1/DTD/svg11.dtd">
<svg version="1.1" id="Layer_1" xmlns="http://www.w3.org/2000/svg" xmlns:xlink="http://www.w3.org/1999/xlink" x="0px" y="0px"
	 width="972px" height="684px" viewBox="0 0 972 684" enable-background="new 0 0 972 684" xml:space="preserve">
<g>
	<defs>
		<rect id="SVGID_1_" width="972" height="684"/>
	</defs>
	<clipPath id="SVGID_2_">
		<use xlink:href="#SVGID_1_"  overflow="visible"/>
	</clipPath>
	
		<path clip-path="url(#SVGID_2_)" fill="none" stroke="#000000" stroke-width="2" stroke-linecap="round" stroke-linejoin="round" stroke-miterlimit="10" d="
		M678.674,92.609c-0.425-5.141-11.312-6.155-11.135,1.822c0.178,7.977,3.816,7.076,4.117,10.09c0.354,3.546,5.223,5.098,7.018,1.453
		"/>
	
		<path clip-path="url(#SVGID_2_)" fill="none" stroke="#000000" stroke-width="2" stroke-linecap="round" stroke-linejoin="round" stroke-miterlimit="10" d="
		M683.107,92.652c4.963-1.95-0.103-7.66,5.494-11.345c7.269-4.786-1.24-13.295,10.637-20.439c5.826-3.505,10.994,0,10.994,0
		c4.869,3.246,10.279,16.232,9.197,27.595c-1.082,11.362,11.065,18.726,4.869,22.725c-7.33,4.732-3.054,8.014-4.676,10.178
		c-2.127,2.836-0.936,6.987-2.48,10.459c-1.449,3.256-1.949,4.609-15.027,1.006c-13.92-3.834-25.034-5.083-23.807-12.445"/>
	
		<path clip-path="url(#SVGID_2_)" fill="none" stroke="#000000" stroke-width="2" stroke-linecap="round" stroke-linejoin="round" stroke-miterlimit="10" d="
		M710.231,60.868c-2.483-6.149-15.424-16.077-22.87-13.063c-7.445,3.014-7.125-1.316-12.939,2.836
		c-6.205,4.431-15.422,1.948-17.549,7.091c-3.545,9.038-11.168,11.875-11.345,22.513c0,7.453-2.812,13.884-1.772,16.306
		c1.596,3.719-0.812,8.059,3.545,13.472c5.283,6.565,6.598,5.25,13.826,10.946c2.629,1.971,8.51-0.135,8.863-1.021
		c0,0,3.406-4.892,3.406-6.644"/>
	
		<path clip-path="url(#SVGID_2_)" fill="none" stroke="#000000" stroke-width="2" stroke-linejoin="round" stroke-miterlimit="10" d="
		M702.415,132.914c-2.646,3.338-5.836,16.456-0.694,25.142c-8.334-7.972-29.252-9.39-39.533-25.142
		c-1.596-2.506-6.545,4.779-7.254,6.02"/>
	
		<path clip-path="url(#SVGID_2_)" fill="none" stroke="#000000" stroke-width="2" stroke-linecap="round" stroke-linejoin="round" stroke-miterlimit="10" d="
		M669.99,119.948c-0.719,6.018-6.449,13.514-7.569,13.316"/>
	
		<path clip-path="url(#SVGID_2_)" fill="none" stroke="#000000" stroke-width="2" stroke-linecap="round" stroke-linejoin="round" stroke-miterlimit="10" d="
		M692.653,152.612c2.858,2.432,3.213,2.604,3.567,5.443c0.354,2.839,4.765,18.97-1.783,13.298
		c-6.549-5.673-11.481-9.403-12.014-10.999"/>
	
		<path clip-path="url(#SVGID_2_)" fill="none" stroke="#000000" stroke-width="2" stroke-linecap="round" stroke-linejoin="round" stroke-miterlimit="10" d="
		M668.895,140.363c6.231,7.059,20.258,25.901,27.565,58.788c7.308,32.886,7.83,45.935,0,68.904
		c-7.83,22.969,2.612,42.544-5.739,68.123c-8.353,25.58-5.222,26.623-34.453,27.146c-29.233,0.521-77.257,2.088-66.815-19.314
		c10.44-21.403,17.228-48.547,17.749-54.811"/>
	
		<path clip-path="url(#SVGID_2_)" fill="none" stroke="#000000" stroke-width="2" stroke-linecap="round" stroke-linejoin="round" stroke-miterlimit="10" d="
		M661.396,175.806c16.818-14.643,4.81-39.992-12.436-36.942c-20.072,3.55-51.156,35.496-57.421,38.107
		c-6.265,2.61-45.938,25.056-42.284,41.761c3.655,16.704,31.844,52.199,35.497,56.375c3.655,4.177,9.397,19.315,16.183,12.529
		c6.787-6.787,13.195-13.286,17.894-17.462c4.698-4.176,6.479-4.517-8.138-21.744c-14.616-17.227-23.328-31.267-25.416-31.789"/>
	
		<path clip-path="url(#SVGID_2_)" fill="none" stroke="#000000" stroke-width="2" stroke-linecap="round" stroke-linejoin="round" stroke-miterlimit="10" d="
		M651.571,185.32c-11.259,12.582-43.896,31.843-61.661,36.446"/>
	
		<path clip-path="url(#SVGID_2_)" fill="none" stroke="#000000" stroke-width="2" stroke-linejoin="round" stroke-miterlimit="10" d="
		M669.452,157.652c1.81,6.61,1.278,11.269,0.387,13.051c6.786,3.655,15.028,13.05,12.734,13.573
		c-2.294,0.522-7.772-0.522-3.728,6.264c4.043,6.786,16.561,36.532,16.571,51.679c0.015,19.839-6.264,31.322-4.698,45.938
		c1.566,14.617,3.442,30.823,2.926,34.491"/>
	
		<path clip-path="url(#SVGID_2_)" fill="none" stroke="#000000" stroke-width="2" stroke-linecap="round" stroke-linejoin="round" stroke-miterlimit="10" d="
		M699.506,257.969c15.367-23.835,4.512-73.056,2.214-86.269c1.501-2.088,3.884-10.456-0.442-14.048"/>
	
		<path clip-path="url(#SVGID_2_)" fill="none" stroke="#000000" stroke-width="2" stroke-linecap="round" stroke-linejoin="round" stroke-miterlimit="10" d="
		M697.597,171.935c0.39,9.245,0.981,16.916-0.176,31.608"/>
	
		<path clip-path="url(#SVGID_2_)" fill="none" stroke="#000000" stroke-width="2" stroke-linecap="round" stroke-linejoin="round" stroke-miterlimit="10" d="
		M703.496,161.244c13.562,32.228,10.217,58.795,7.417,73.078c-2.873,14.65-19.004,54.61-17.258,64.36"/>
	
		<path clip-path="url(#SVGID_2_)" fill="none" stroke="#000000" stroke-width="2" stroke-linecap="round" stroke-linejoin="round" stroke-miterlimit="10" d="
		M693.762,300.69c2.438,11.185,5.227,25.653,10.949,33.031"/>
	
		<path clip-path="url(#SVGID_2_)" fill="none" stroke="#000000" stroke-width="2" stroke-linecap="round" stroke-linejoin="round" stroke-miterlimit="10" d="
		M621.344,207.853c-0.661,16.613-1.939,31.616-5.934,46.262"/>
	
		<path clip-path="url(#SVGID_2_)" fill="none" stroke="#000000" stroke-width="2" stroke-linecap="round" stroke-linejoin="round" stroke-miterlimit="10" d="
		M711.256,232.515c4.014,0.707,13.961-1.532,14.956-0.537c0.994,0.995-0.498,7.461-0.995,14.672
		c-0.498,7.212,4.725,20.143-1.244,19.646c-5.968-0.498-21.064,0.442-23.712,2.956"/>
	
		<path clip-path="url(#SVGID_2_)" fill="none" stroke="#000000" stroke-width="2" stroke-linecap="round" stroke-linejoin="round" stroke-miterlimit="10" d="
		M726.858,233.207c3.079-0.271,6.067-1.726,5.817,2.501c-0.248,4.228-0.744,17.159-0.496,19.646s-0.695,2.496-5.321,2.616"/>
	
		<path clip-path="url(#SVGID_2_)" fill="none" stroke="#000000" stroke-width="2" stroke-linecap="round" stroke-linejoin="round" stroke-miterlimit="10" d="
		M732.672,235.061c8.9-3.614,15.647-16.144,24.804-18.071c9.155-1.928,11.084-3.374,11.565-4.337
		c0.481-0.964,4.336-1.181,3.854,2.421c-0.481,3.602-3.373,5.289-6.746,5.53c-2.675,0.191-4.138,2.352-4.629,3.239
		c-0.128,0.231-0.545,1.19-0.726,1.574"/>
	
		<path clip-path="url(#SVGID_2_)" fill="none" stroke="#000000" stroke-width="2" stroke-linecap="round" stroke-linejoin="round" stroke-miterlimit="10" d="
		M732.115,253.614c3.675-1.206,7.048-1.446,10.902-0.482c3.855,0.963,9.301,0.543,13.135-1.747c3.41-2.04,7.757-2.977,9.686-3.7"/>
	
		<path clip-path="url(#SVGID_2_)" fill="none" stroke="#000000" stroke-width="2" stroke-linecap="round" stroke-linejoin="round" stroke-miterlimit="10" d="
		M763.107,225.184c-3.484-0.151-4.473,5.237-0.219,5.164c3.963-0.069,2.857,0.173,6.494-0.011c3.787-0.193,3.899-5.39-0.924-5.303
		C763.659,225.12,763.107,225.184,763.107,225.184z"/>
	
		<path clip-path="url(#SVGID_2_)" fill="none" stroke="#000000" stroke-width="2" stroke-linecap="round" stroke-linejoin="round" stroke-miterlimit="10" d="
		M768.923,230.359c4.951-0.328,5.233,6.155,0.685,6.177c-4.256,0.019-5.487,0.129-8.469,0.129c-4.419,0-5.113-6.556,1.395-6.331"/>
	
		<path clip-path="url(#SVGID_2_)" fill="none" stroke="#000000" stroke-width="2" stroke-linecap="round" stroke-linejoin="round" stroke-miterlimit="10" d="
		M768.654,236.541c4.795-0.322,4.99,5.771,0.584,5.791c-4.123,0.019-5.316,0.054-8.203,0.125c-4.101,0.101-4.758-5.718,0.104-5.792"
		/>
	
		<path clip-path="url(#SVGID_2_)" fill="none" stroke="#000000" stroke-width="2" stroke-linecap="round" stroke-linejoin="round" stroke-miterlimit="10" d="
		M767.685,242.341c4.354-0.295,4.488,5.291,0.488,5.309c-3.743,0.015-4.828,0.048-7.448,0.113c-3.725,0.092-4.52-5.25-0.105-5.317"
		/>
	
		<path clip-path="url(#SVGID_2_)" fill="none" stroke="#000000" stroke-width="2" stroke-linecap="round" stroke-linejoin="round" stroke-miterlimit="10" d="
		M620.768,268.446c2.119,2.384,5.354,4.872,3.363,6.864c-1.99,1.991-14.793,16.151-17.175,13.351
		c-2.538-2.983-3.392-3.654-3.392-3.654"/>
	
		<path clip-path="url(#SVGID_2_)" fill="none" stroke="#000000" stroke-width="2" stroke-linecap="round" stroke-linejoin="round" stroke-miterlimit="10" d="
		M692.934,327.433c27.471,14.378,107.943,58.733,102.241,78.377c-5.703,19.644-17.284,30.932-26.614,44.989
		c-18.098,27.268-30.482,74.116-33.583,74.771c-3.347,0.706-8.015-4.995-27.989-11.147c-14.125-4.351-16.382-4.352-21.088-6.454
		c-3.615-1.616-7.988-1.725-3.746-8.634c10.402-16.94,17.973-26.992,24.942-38.397s18.377-40.553,33.584-47.524"/>
	
		<path clip-path="url(#SVGID_2_)" fill="none" stroke="#000000" stroke-width="2" stroke-linecap="round" stroke-linejoin="round" stroke-miterlimit="10" d="
		M605.812,361.521c17.021,25.277,55.026,32.247,82.273,42.386c26.346,9.803,39.4,10.131,47.939,12.396"/>
	
		<path clip-path="url(#SVGID_2_)" fill="none" stroke="#000000" stroke-width="2" stroke-linecap="round" stroke-linejoin="round" stroke-miterlimit="10" d="
		M605.812,361.521c-11.379,30.835-28.931,90.546-31.465,100.051c-2.535,9.505-30.416,25.345-57.029,57.027
		c-26.612,31.683-26.612,26.613,2.535,45.623s23.445,20.277,29.781,9.505c6.338-10.772,47.088-55.763,56.178-70.97
		c9.088-15.207,11.051-6.946,21.763-34.217c6.969-17.744,19.009-20.912,41.168-71.138"/>
	
		<path clip-path="url(#SVGID_2_)" fill="none" stroke="#000000" stroke-width="2" stroke-linecap="round" stroke-linejoin="round" stroke-miterlimit="10" d="
		M712.388,518.202c3.513-1.033,7.565,0.001,10.087,13.114s12.105,15.636,16.645,18.156c4.539,2.522,24.021,6.406,18.799,18.343
		c-16.645,2.018-33.93-2.707-49.061-15.82c-15.132-13.113-17.15-8.07-17.15-5.548s-11.096-3.026-13.617-5.044
		s-8.07-4.035-6.557-8.574s1.5-13.33,8.709-19.166c2.388-0.504,3.289,4.684,11.527,5.86
		C699.597,520.641,705.895,520.7,712.388,518.202z"/>
	
		<path clip-path="url(#SVGID_2_)" fill="none" stroke="#000000" stroke-width="2" stroke-linecap="round" stroke-linejoin="round" stroke-miterlimit="10" d="
		M517.203,568.378c3.553,0.879,6.532,3.817,2.093,16.412c-4.438,12.594-1.868,22.97,1.605,26.829
		c3.53,3.924,13.536,4.512,10.594,16.797c-28.342,0.162-28.862-12.349-35.312-31.305c-6.448-18.956-9.813-16.959-11.086-14.781
		s-8.054-8.212-9.213-11.226c-1.158-3.014-4.932-7.556-1.335-10.711c3.598-3.155,8.021-10.753,17.19-12.153
		c2.314,0.769,0.475,5.702,6.996,10.876C504.93,564.03,510.337,567.258,517.203,568.378z"/>
	
		<path clip-path="url(#SVGID_2_)" fill="none" stroke="#000000" stroke-width="2" stroke-linecap="round" stroke-linejoin="round" stroke-miterlimit="10" d="
		M685.354,508.193c-1.146,1.602-2.906,4.678-3.199,6.229"/>
	
		<path clip-path="url(#SVGID_2_)" fill="none" stroke="#000000" stroke-width="2" stroke-linecap="round" stroke-linejoin="round" stroke-miterlimit="10" d="
		M712.6,516.307c-0.25,0.804-0.355,1.576-0.212,1.896"/>
	
		<path clip-path="url(#SVGID_2_)" fill="none" stroke="#000000" stroke-width="2" stroke-linecap="round" stroke-linejoin="round" stroke-miterlimit="10" d="
		M497.665,548.24c0,0-2.26,1.331-4.462,2.247"/>
	
		<path clip-path="url(#SVGID_2_)" fill="none" stroke="#000000" stroke-width="2" stroke-linecap="round" stroke-linejoin="round" stroke-miterlimit="10" d="
		M521.312,565.179c-1.389,0.817-3.047,3.547-3.047,3.547"/>
	
		<path clip-path="url(#SVGID_2_)" fill="none" stroke="#000000" stroke-width="2" stroke-linecap="round" stroke-linejoin="round" stroke-miterlimit="10" d="
		M644.807,304.634c2.24,3.209,6.881,0.444,4.137-3.71c-2.541-3.846-4.342-5.843-4.342-5.843l-2.965-2.385
		c0.437-0.052,3.362,2.483,4.992,4.719c2.057,2.822,6.018,4.395,9.434,2.846c3.416-1.548,1.119-4.804,0.012-4.698
		s-4.506-1.429-11.201-8.389s-14.006-4.179-22.039-9.993"/>
	
		<path clip-path="url(#SVGID_2_)" fill="none" stroke="#000000" stroke-width="2" stroke-linecap="round" stroke-linejoin="round" stroke-miterlimit="10" d="
		M644.535,304.243c2.996,4.155-2.525,7.948-5.031,3.978"/>
	
		<path clip-path="url(#SVGID_2_)" fill="none" stroke="#000000" stroke-width="2" stroke-linecap="round" stroke-linejoin="round" stroke-miterlimit="10" d="
		M638.979,307.391c2.82,3.906-2.029,7.322-4.534,3.991c-0.073-0.098-0.472-0.604-0.542-0.715"/>
	
		<path clip-path="url(#SVGID_2_)" fill="none" stroke="#000000" stroke-width="2" stroke-linecap="round" stroke-linejoin="round" stroke-miterlimit="10" d="
		M633.371,309.713c2.639,3.649-1.893,6.036-4.378,3.331c0,0-4.956-3.872-8.06-6.698c-3.58-3.26-6.773-7.388-8.711-10.539
		c-1.498-2.432-2.145-4.908-3.865-6.852"/>
	<line clip-path="url(#SVGID_2_)" fill="#FFFFFF" x1="903.041" y1="629.416" x2="73.94" y2="629.416"/>
	
		<line clip-path="url(#SVGID_2_)" fill="none" stroke="#000000" stroke-width="2" stroke-linecap="round" stroke-linejoin="round" stroke-miterlimit="10" x1="903.041" y1="629.416" x2="73.94" y2="629.416"/>
	
		<line clip-path="url(#SVGID_2_)" fill="none" stroke="#000000" stroke-width="2" stroke-miterlimit="10" x1="624.754" y1="113.279" x2="528.086" y2="113.279"/>
	
		<line clip-path="url(#SVGID_2_)" fill="none" stroke="#000000" stroke-width="2" stroke-linecap="round" stroke-linejoin="round" stroke-miterlimit="10" x1="603.565" y1="143.13" x2="475.548" y2="143.13"/>
	
		<line clip-path="url(#SVGID_2_)" fill="none" stroke="#000000" stroke-width="2" stroke-linecap="round" stroke-linejoin="round" stroke-miterlimit="10" x1="555.548" y1="168.205" x2="446.891" y2="168.205"/>
	
		<line clip-path="url(#SVGID_2_)" fill="none" stroke="#000000" stroke-width="2" stroke-linecap="round" stroke-linejoin="round" stroke-miterlimit="10" x1="535.25" y1="185.32" x2="353.757" y2="185.32"/>
	
		<line clip-path="url(#SVGID_2_)" fill="none" stroke="#000000" stroke-width="2" stroke-linecap="round" stroke-linejoin="round" stroke-miterlimit="10" x1="537.554" y1="200.841" x2="402.24" y2="200.841"/>
	
		<line clip-path="url(#SVGID_2_)" fill="none" stroke="#000000" stroke-width="2" stroke-linecap="round" stroke-linejoin="round" stroke-miterlimit="10" x1="549.02" y1="259.639" x2="399.018" y2="259.639"/>
	
		<line clip-path="url(#SVGID_2_)" fill="none" stroke="#000000" stroke-width="2" stroke-linecap="round" stroke-linejoin="round" stroke-miterlimit="10" x1="567.355" y1="281.386" x2="407.877" y2="281.386"/>
	
		<line clip-path="url(#SVGID_2_)" fill="none" stroke="#000000" stroke-width="2" stroke-linecap="round" stroke-linejoin="round" stroke-miterlimit="10" x1="583.204" y1="301.581" x2="422.375" y2="301.581"/>
	
		<line clip-path="url(#SVGID_2_)" fill="none" stroke="#000000" stroke-width="2" stroke-linecap="round" stroke-linejoin="round" stroke-miterlimit="10" x1="569.77" y1="370.794" x2="450.563" y2="370.794"/>
	
		<line clip-path="url(#SVGID_2_)" fill="none" stroke="#000000" stroke-width="2" stroke-linecap="round" stroke-linejoin="round" stroke-miterlimit="10" x1="572.991" y1="388.912" x2="389.35" y2="388.912"/>
	
		<line clip-path="url(#SVGID_2_)" fill="none" stroke="#000000" stroke-width="2" stroke-linecap="round" stroke-linejoin="round" stroke-miterlimit="10" x1="569.77" y1="412.677" x2="418.346" y2="412.677"/>
	
		<line clip-path="url(#SVGID_2_)" fill="none" stroke="#000000" stroke-width="2" stroke-linecap="round" stroke-miterlimit="10" x1="556.883" y1="436.034" x2="426.4" y2="436.034"/>
	
		<path clip-path="url(#SVGID_2_)" fill="none" stroke="#000000" stroke-width="2" stroke-linecap="round" stroke-linejoin="round" stroke-miterlimit="10" d="
		M760.794,225.417c-2.097,5.706-5.461,12.967-14.282,14.077"/>
</g>
</svg>
