<?xml version="1.0" encoding="utf-8"?>
<!-- Generator: Adobe Illustrator 15.0.2, SVG Export Plug-In . SVG Version: 6.00 Build 0)  -->
<!DOCTYPE svg PUBLIC "-//W3C//DTD SVG 1.1//EN" "http://www.w3.org/Graphics/SVG/1.1/DTD/svg11.dtd">
<svg version="1.1" id="Layer_1" xmlns="http://www.w3.org/2000/svg" xmlns:xlink="http://www.w3.org/1999/xlink" x="0px" y="0px"
	 width="972px" height="684px" viewBox="0 0 972 684" enable-background="new 0 0 972 684" xml:space="preserve">
<g>
	<defs>
		<rect id="SVGID_1_" width="972" height="684"/>
	</defs>
	<clipPath id="SVGID_2_">
		<use xlink:href="#SVGID_1_"  overflow="visible"/>
	</clipPath>
	
		<path clip-path="url(#SVGID_2_)" fill="none" stroke="#000000" stroke-width="2" stroke-linecap="round" stroke-linejoin="round" stroke-miterlimit="10" d="
		M266.358,169.891c-6.575-12.457-15.058-10.205-19.924-5.692c-6.036,5.598-7.842,25.357,4.816,37.856
		c4.319,4.265,2.071,13.255,11.123,13.376c3.415,17.077,6.83,36.432-1.14,45.539c-7.969,9.108-44.961,31.886-71.146,43.271
		c-26.187,11.384-38.711,23.907-42.126,81.97c-3.415,58.062,36.432,179.873,19.354,209.475"/>
	
		<path clip-path="url(#SVGID_2_)" fill="none" stroke="#000000" stroke-width="2" stroke-linecap="round" stroke-linejoin="round" stroke-miterlimit="10" d="
		M275.466,237.062c3.415,13.662,1.139,19.354,25.046,37.57c23.908,18.216,27.324,21.631,46.679,19.354
		c19.353-2.277,21.629-6.832,28.461-20.493c6.832-13.661,28.462-37.57,29.601-52.37c1.139-14.8,4.555-17.078,3.416-27.324
		c-1.14-10.246,5.818-33.045,3.415-43.262c-9.582-40.735-18.7-23.108-19.354-26.184c-7.247-18.959-13.934-3.61-15.938-6.832
		c-8.937-12.127-17.447,3.222-19.356,0c-5.692-13.662-31.877-19.355-46.678,2.277c-3.411,3.45-1.92-6.985-6.144-5.494
		c-17.399,7.733-27.649,30.413-27.333,59.424c0.056,5.156,0.122,9.978,1.818,15.065c-0.923,4.635-8.062-6.592-9.2-10.008"/>
	<path clip-path="url(#SVGID_2_)" fill="none" stroke="#000000" stroke-width="2" stroke-miterlimit="10" d="M249.707,160.926
		c-9.537-48.526,13.231-87.235,33.725-97.481c20.493-10.246,68.309-19.354,101.325,10.246
		c33.016,29.601,32.774,60.307,27.771,80.816"/>
	
		<path clip-path="url(#SVGID_2_)" fill="none" stroke="#000000" stroke-width="2" stroke-linecap="round" stroke-linejoin="round" stroke-miterlimit="10" d="
		M263.809,256.869c0.264,13.773,9.371,28.574,44.664,50.205c35.294,21.632,46.565,23.275,52.883-16.255"/>
	
		<path clip-path="url(#SVGID_2_)" fill="none" stroke="#000000" stroke-width="2" stroke-linecap="round" stroke-linejoin="round" stroke-miterlimit="10" d="
		M384.611,445.594c-17.077-45.538-35.152-75.902-72.029-111.196c-36.876-35.293-54.202-58.063-51.349-73.428"/>
	
		<path clip-path="url(#SVGID_2_)" fill="none" stroke="#000000" stroke-width="2" stroke-linecap="round" stroke-linejoin="round" stroke-miterlimit="10" d="
		M358.997,302.627c15.51-0.106,40.555,20.386,67.879,31.771C454.2,345.783,469,358.304,476.97,381.075
		c7.969,22.77,19.353,61.474,66.029,107.011c38.708,38.709,31.877,55.785,28.462,91.076c-3.417,35.295-48.944,40.985-135.469,0
		c-86.526-40.982-103.603-22.768-126.372-71.721c-19.495-41.912-41.298-105.571-68.769-139.585"/>
	
		<path clip-path="url(#SVGID_2_)" fill="none" stroke="#000000" stroke-width="2" stroke-linecap="round" stroke-linejoin="round" stroke-miterlimit="10" d="
		M149.091,416.939c10.969,69.732,26.193,109.299,52.378,152.559c26.185,43.262,42.125,50.094,92.219,52.371
		c107.016,1.139,171.909-26.186,196.532-21.314"/>
	
		<path clip-path="url(#SVGID_2_)" fill="none" stroke="#000000" stroke-width="2" stroke-linecap="round" stroke-linejoin="round" stroke-miterlimit="10" d="
		M229.337,283.652c-16.436,20.325,29.039,69.438,48.385,79.619c19.345,10.181,17.402,7.638,17.83,18.322
		c0.448,11.192-4.322,9.014,11.968,20.481c17.951,12.639,56.115,46.856,72.782,89.536"/>
	
		<path clip-path="url(#SVGID_2_)" fill="none" stroke="#000000" stroke-width="2" stroke-linecap="round" stroke-linejoin="round" stroke-miterlimit="10" d="
		M362.688,302.958c11.413,19.257,24.938,115.992,22.463,137.859c-3.28,28.998-5.692,50.963-4.848,66.352"/>
	
		<path clip-path="url(#SVGID_2_)" fill="none" stroke="#000000" stroke-width="2" stroke-linecap="round" stroke-linejoin="round" stroke-miterlimit="10" d="
		M513.162,502.357c-55.075,23.486-81.104-14.359-122.409,0.223c-0.522,2.764,25.498,10.826,8.469,60.84"/>
	
		<path clip-path="url(#SVGID_2_)" fill="none" stroke="#000000" stroke-width="2" stroke-linecap="round" stroke-linejoin="round" stroke-miterlimit="10" d="
		M394.228,506.197c0,0-12.189,0.297-15.646,1.334c7.258,7.947,3.111,43.881,0,48.551"/>
	
		<path clip-path="url(#SVGID_2_)" fill="none" stroke="#000000" stroke-width="2" stroke-linecap="round" stroke-linejoin="round" stroke-miterlimit="10" d="
		M379.806,509.326c-22.595-10.727-49.749,6.865-63.943,10.098"/>
	
		<path clip-path="url(#SVGID_2_)" fill="none" stroke="#000000" stroke-width="2" stroke-linecap="round" stroke-linejoin="round" stroke-miterlimit="10" d="
		M457.601,424.787c11.091,27.535,1.84,68.828,2.26,83.174"/>
	
		<path clip-path="url(#SVGID_2_)" fill="none" stroke="#000000" stroke-width="2" stroke-linecap="round" stroke-linejoin="round" stroke-miterlimit="10" d="
		M652.165,133.58c-10.195,5.827-16.507,16.995-13.107,32.535c3.396,15.54,2.722,18.675,2.236,23.046
		c-0.487,4.37,2.183,28.264,21.071,44.453c15.296,13.111,16.908,13.916,29.466,7.564c13.993-7.079,31.719-29.416,33.661-43.013"/>
	
		<path clip-path="url(#SVGID_2_)" fill="none" stroke="#000000" stroke-width="2" stroke-linecap="round" stroke-linejoin="round" stroke-miterlimit="10" d="
		M647.559,133.58c18.937-1.942,23.308,7.771,36.905,17.968c13.598,10.198,20.879,9.712,23.795,10.198
		c2.914,0.485,9.228,1.456,11.655,9.711s5.812,18.452,5.578,37.39c-0.232,18.939-2.504,40.775-2.659,48.075
		c-0.163,7.762-0.648,9.457-1.095,14.084c1.943,0.486,40.673,0.828,38.984-27.922c-1.924-32.777-13.097-116.786-56.504-134.025
		c-35.889-14.252-44.511,2.914-51.795,5.342c-7.284,2.429-35.459,12.145-19.919,110.718c7.768,42.243,2.425,59.725,2.425,59.725
		c17.482,2.428,33.832-11.153,35.775-15.524"/>
	
		<path clip-path="url(#SVGID_2_)" fill="none" stroke="#000000" stroke-width="2" stroke-linecap="round" stroke-linejoin="round" stroke-miterlimit="10" d="
		M723.555,271.12c-43.117,74.629-95.654,114.427-88.641,156.237c-23.3-48.083,7.121-77.097,25.449-117.7
		c5.071-11.232,15.869-24.524,7.877-71.095"/>
	
		<path clip-path="url(#SVGID_2_)" fill="none" stroke="#000000" stroke-width="2" stroke-linecap="round" stroke-linejoin="round" stroke-miterlimit="10" d="
		M639.548,349.249c13.938,1.379,27.875,2.781,27.875,2.781"/>
	
		<path clip-path="url(#SVGID_2_)" fill="none" stroke="#000000" stroke-width="2" stroke-linecap="round" stroke-linejoin="round" stroke-miterlimit="10" d="
		M636.572,272.101c-20.14,0.688-32.081,3.341-39.377,20.587s-33.168,76.947-53.064,104.807
		c-19.897,27.857-21.748,54.584-5.97,63.676c39.136,22.553,78.933,2.656,96.841,5.203c-1.986-10.508,11.281-33.004,13.269-33.668
		c-28.853-11.326-60.331-3.373-74.064-8.678"/>
	
		<path clip-path="url(#SVGID_2_)" fill="none" stroke="#000000" stroke-width="2" stroke-linecap="round" stroke-linejoin="round" stroke-miterlimit="10" d="
		M610.267,305.204c0.872,20.621-19.458,51.405-24.685,65.345c-5.228,13.939-6.102,38.524,8.131,55.57"/>
	
		<path clip-path="url(#SVGID_2_)" fill="none" stroke="#000000" stroke-width="2" stroke-linecap="round" stroke-linejoin="round" stroke-miterlimit="10" d="
		M588.304,418.02c0,2.336-2.277,6.381-4.189,7.84"/>
	
		<path clip-path="url(#SVGID_2_)" fill="none" stroke="#000000" stroke-width="2" stroke-linecap="round" stroke-linejoin="round" stroke-miterlimit="10" d="
		M744.792,267.152c15.084,5.847,39.018,23.796,47.136,29.779c8.121,5.983,19.231,16.931,14.959,36.03
		c-4.273,19.1-22.652,72.526-25.217,80.219c-2.562,7.69-23.496,64.533-35.034,81.2c-11.537,16.667-18.066,25.486-44.451,15.809
		c-27.168-9.965-49.214-19.865-53.914-22c-19.656-8.976-31.824-14.586-49.101-17.48"/>
	
		<path clip-path="url(#SVGID_2_)" fill="none" stroke="#000000" stroke-width="2" stroke-linecap="round" stroke-linejoin="round" stroke-miterlimit="10" d="
		M764.821,318.52c-17.896,17.417-33.031,49.983-44.784,80.662c-13.995,36.535-21.832,63.818-31.995,72.877"/>
	
		<path clip-path="url(#SVGID_2_)" fill="none" stroke="#000000" stroke-width="2" stroke-linecap="round" stroke-linejoin="round" stroke-miterlimit="10" d="
		M646.871,434.146c21.11,6.457,21.67-6.789,56.63,9.496"/>
	
		<path clip-path="url(#SVGID_2_)" fill="none" stroke="#000000" stroke-width="2" stroke-linecap="round" stroke-linejoin="round" stroke-miterlimit="10" d="
		M635.008,461.287c17.02-1.65,34.488,13.412,55.982,7.561"/>
	
		<path clip-path="url(#SVGID_2_)" fill="none" stroke="#000000" stroke-width="2" stroke-linecap="round" stroke-linejoin="round" stroke-miterlimit="10" d="
		M589.885,472.059c-1.12,18.928-10.645,36.281-15.679,41.318"/>
	
		<path clip-path="url(#SVGID_2_)" fill="none" stroke="#000000" stroke-width="2" stroke-linecap="round" stroke-linejoin="round" stroke-miterlimit="10" d="
		M632.334,481.037c-10.106,35.352-26.308,61.51-46.929,70.967"/>
	
		<path clip-path="url(#SVGID_2_)" fill="none" stroke="#000000" stroke-width="2" stroke-linecap="round" stroke-linejoin="round" stroke-miterlimit="10" d="
		M742.548,500.225c-3.207,29.937,5.187,57.367,19.185,73.604c-17.903,1.686-48.255,13.779-86.546-1.674
		c-38.842-15.676-44.999-20.15-52.505-64.479"/>
	
		<path clip-path="url(#SVGID_2_)" fill="none" stroke="#000000" stroke-width="2" stroke-linecap="round" stroke-linejoin="round" stroke-miterlimit="10" d="
		M606.026,535.805c10.165,4.439,14.14,6.094,25.309,5.547"/>
	
		<path clip-path="url(#SVGID_2_)" fill="none" stroke="#000000" stroke-width="2" stroke-linecap="round" stroke-linejoin="round" stroke-miterlimit="10" d="
		M755.628,574.67c3.313,17.645,1.078,34.438-1.162,43.953"/>
	
		<path clip-path="url(#SVGID_2_)" fill="none" stroke="#000000" stroke-width="2" stroke-linecap="round" stroke-linejoin="round" stroke-miterlimit="10" d="
		M563.851,201.571c2.609-6.455,7.832-7.275,10.078-5.598c2.24,1.675,2.758,9.351-0.795,15.156c-3.773,4.645-2.321,8.708-7.691,9.282
		c-2.034,0-2.325-0.289-2.903,5.225c-0.579,5.515-8.419,28.16-31.057,28.16h-3.675c-22.64,0-30.478-22.645-31.058-28.16
		c-0.578-5.514-0.869-5.225-2.902-5.225c-5.372-0.574-3.919-4.637-7.693-9.282c-3.551-5.805-3.033-13.481-0.792-15.156
		c2.244-1.677,7.467-0.857,10.075,5.598c-4.735-27.584,5.425-38.033,13.842-38.614c11.02-0.761,14.801-0.291,15.382-1.742
		c0.582-3.773,11.969,3.477,14.514,4.064c3.775,0.871,2.614-4.064,6.968-1.161c3.149,2.099,4.391-3.693,10.738,3.483
		C563.558,175.148,564.719,181.824,563.851,201.571z"/>
	
		<path clip-path="url(#SVGID_2_)" fill="none" stroke="#000000" stroke-width="2" stroke-linecap="round" stroke-linejoin="round" stroke-miterlimit="10" d="
		M569.054,195.712c3.005-18.436,0.994-46.642-26.707-53.651c-22.799-5.769-38.24,1.459-44.653,8.719
		c-8.579,9.712-13.169,20.946-9.354,44.468"/>
	
		<path clip-path="url(#SVGID_2_)" fill="none" stroke="#000000" stroke-width="2" stroke-linecap="round" stroke-linejoin="round" stroke-miterlimit="10" d="
		M502.416,280.026c1.853-5.844,3.369-25.94,1.571-38.268"/>
	
		<path clip-path="url(#SVGID_2_)" fill="none" stroke="#000000" stroke-width="2" stroke-linecap="round" stroke-linejoin="round" stroke-miterlimit="10" d="
		M556.083,240.695c0.674,22.366,1.559,31.123,3.79,36.219"/>
	
		<path clip-path="url(#SVGID_2_)" fill="none" stroke="#000000" stroke-width="2" stroke-linecap="round" stroke-linejoin="round" stroke-miterlimit="10" d="
		M542.712,300.868c16.876,33.762-11.353,45.571,0.125,77.932"/>
	<path clip-path="url(#SVGID_2_)" d="M544.709,383.577c0.137,0.504,0.013,0.978-0.283,1.056c-0.295,0.081-0.644-0.262-0.779-0.764
		l-1.221-4.459c-0.137-0.505-0.012-0.979,0.284-1.059c0.294-0.081,0.642,0.262,0.78,0.768L544.709,383.577z"/>
	
		<path clip-path="url(#SVGID_2_)" fill="none" stroke="#000000" stroke-width="2" stroke-linecap="round" stroke-linejoin="round" stroke-miterlimit="10" d="
		M516.569,300.868c-10.861,27.458,7.882,45.155,6.748,73.089"/>
	<path clip-path="url(#SVGID_2_)" fill="none" stroke="#000000" stroke-width="2" stroke-miterlimit="10" d="M470.626,280.058
		c-30.272-0.703-40.876,12.745-47.343,33.1c-4.34,13.66-6.374,16.674-6.825,16.453"/>
	
		<path clip-path="url(#SVGID_2_)" fill="none" stroke="#000000" stroke-width="2" stroke-linejoin="round" stroke-miterlimit="10" d="
		M459.969,354.21c1.527-3.625,2.2-8.764,2.2-9.104c0.739,6.838-0.001,10.102,2.197,13.675"/>
	
		<path clip-path="url(#SVGID_2_)" fill="none" stroke="#000000" stroke-width="2" stroke-linejoin="round" stroke-miterlimit="10" d="
		M504.489,266.992c-4.055,0.16-10.862,19.478,25.156,36.985"/>
	
		<path clip-path="url(#SVGID_2_)" fill="none" stroke="#000000" stroke-width="2" stroke-linecap="round" stroke-linejoin="round" stroke-miterlimit="10" d="
		M557.978,266.992c4.412-0.031,8.777,17.084-28.332,36.985"/>
	<path clip-path="url(#SVGID_2_)" d="M522.539,379.085c-0.023,0.521,0.2,0.956,0.507,0.969c0.306,0.015,0.57-0.396,0.595-0.915
		l0.221-4.618c0.024-0.521-0.2-0.957-0.507-0.971c-0.305-0.015-0.569,0.395-0.595,0.919L522.539,379.085z"/>
	
		<path clip-path="url(#SVGID_2_)" fill="none" stroke="#000000" stroke-width="2" stroke-linecap="round" stroke-linejoin="round" stroke-miterlimit="10" d="
		M529.646,305.736c9.244-0.532,39.428-21.426,51.028-23.093c11.793-1.695,14.013-4.846,10.727-7.073
		c-7.019-4.752,6.883-21.57-34.224-19.451"/>
	
		<path clip-path="url(#SVGID_2_)" fill="none" stroke="#000000" stroke-width="2" stroke-linecap="round" stroke-linejoin="round" stroke-miterlimit="10" d="
		M529.646,305.736c-11.377-0.887-33.783-22.078-47.92-23.326c-10.389-0.917-18.5-4.054-10.602-8.317
		c7.222-3.898-4.639-20.058,31.897-17.698c0.121,0.008,0.917,0.079,1.038,0.087"/>
	
		<path clip-path="url(#SVGID_2_)" fill="none" stroke="#000000" stroke-width="2" stroke-linecap="round" stroke-linejoin="round" stroke-miterlimit="10" d="
		M591.524,279.843c10.524,0.026,13.02,1.465,13.02,1.465"/>
	
		<path clip-path="url(#SVGID_2_)" fill="none" stroke="#000000" stroke-width="2" stroke-linecap="round" stroke-linejoin="round" stroke-miterlimit="10" d="
		M379.806,309.489c32.786,27.923,34.836,42.185,30.953,53.57c-3.885,11.386-1.33,12.524,6.639,19.354
		c7.439,6.989,12.917,4.491,6.533,25.796c0,0-11.339,37.384-21.9,92.015"/>
	<path clip-path="url(#SVGID_2_)" fill="none" stroke="#000000" stroke-width="2" stroke-miterlimit="10" d="M336.236,321.192
		c-7.782,15.671-7.782,15.671-0.125,20.707c9.45,6.214,7.837,3.071,6.354,25.155"/>
	<path clip-path="url(#SVGID_2_)" fill="none" stroke="#000000" stroke-width="2" stroke-miterlimit="10" d="M349.35,320.628
		c15.476,11.769,12.608,10.499,9.265,20.139c-1.747,5.038-1.747,5.038,2.46,11.176c4.207,6.138,20.115,33.339,20.115,33.339"/>
</g>
</svg>
